<svg width="1280" height="821" viewBox="0 0 1280 821" fill="none" xmlns="http://www.w3.org/2000/svg">
<g filter="url(#filter0_f_911_7893)">
<path d="M-685.213 -82.2274C-672.814 -249.815 -311.939 93.7794 1002.56 179.18C2085.05 264.791 2804.26 -12.9494 2791.86 154.638C2779.46 322.226 2179.47 783.305 980.859 704.099C-217.75 624.893 -697.612 85.3602 -685.213 -82.2274Z" fill="#1255CB"/>
</g>
<g filter="url(#filter1_f_911_7893)">
<path d="M-637.081 -243.739C-584.754 -378.096 -174.928 -151.507 400.07 67.2411C975.068 285.989 1497.5 414.062 1445.17 548.419C1392.85 682.776 884.297 614.364 309.299 395.615C-265.699 176.867 -689.408 -109.382 -637.081 -243.739Z" fill="white"/>
</g>
<path d="M0 -526.549L1282 -526.549V510.451L0 147.428V-526.549Z" fill="white"/>
<defs>
<filter id="filter0_f_911_7893" x="-789.529" y="-231.752" width="3685.63" height="1049" filterUnits="userSpaceOnUse" color-interpolation-filters="sRGB">
<feFlood flood-opacity="0" result="BackgroundImageFix"/>
<feBlend mode="normal" in="SourceGraphic" in2="BackgroundImageFix" result="shape"/>
<feGaussianBlur stdDeviation="52.0407" result="effect1_foregroundBlur_911_7893"/>
</filter>
<filter id="filter1_f_911_7893" x="-745.533" y="-388.13" width="2298.41" height="1109.44" filterUnits="userSpaceOnUse" color-interpolation-filters="sRGB">
<feFlood flood-opacity="0" result="BackgroundImageFix"/>
<feBlend mode="normal" in="SourceGraphic" in2="BackgroundImageFix" result="shape"/>
<feGaussianBlur stdDeviation="52.0407" result="effect1_foregroundBlur_911_7893"/>
</filter>
</defs>
</svg>
