<svg width="1280" height="1044" viewBox="0 0 1280 1044" fill="none" xmlns="http://www.w3.org/2000/svg">
<g clip-path="url(#clip0_875_1327)">
<rect width="1280" height="1044" fill="black"/>
<g clip-path="url(#clip1_875_1327)">
<rect width="1280" height="729" transform="translate(0.1875)" fill="#080809"/>
<mask id="mask0_875_1327" style="mask-type:alpha" maskUnits="userSpaceOnUse" x="0" y="0" width="1281" height="704">
<rect x="0.1875" width="1280" height="704" fill="black"/>
</mask>
<g mask="url(#mask0_875_1327)">
<g filter="url(#filter0_f_875_1327)">
<ellipse cx="152.646" cy="781.921" rx="152.646" ry="781.921" transform="matrix(-0.526779 0.850003 0.786091 0.618111 -356.828 -9.07031)" fill="#1255CB"/>
</g>
</g>
</g>
<g filter="url(#filter1_f_875_1327)">
<path d="M-226.515 218.584C-200.812 20.5028 -60.7933 444.452 585.039 606.375C1115.1 757.835 1506.25 461.815 1480.55 659.896C1454.85 857.978 1101.82 1376.83 513.081 1227.6C-75.6584 1078.37 -252.218 416.666 -226.515 218.584Z" fill="#0A2A62"/>
</g>
<g filter="url(#filter2_f_875_1327)">
<path d="M-227.445 310.023C-200.078 99.1221 -63.2183 547.41 582.629 709.221C1112.55 861.753 1506.91 540.974 1479.55 751.875C1452.18 962.775 1094.21 1519.74 505.472 1370.51C-83.2678 1221.28 -254.811 520.923 -227.445 310.023Z" fill="#1255CB"/>
</g>
<g filter="url(#filter3_f_875_1327)">
<path d="M-382.81 885.501C-370.253 614.805 10.3875 771.083 522.55 813.84C1034.71 856.596 1484.45 769.639 1471.89 1040.33C1459.34 1311.03 1033.97 1495.81 521.805 1453.06C9.64242 1410.3 -395.368 1156.2 -382.81 885.501Z" fill="white"/>
</g>
</g>
<g filter="url(#filter4_f_875_1327)">
<ellipse cx="732.708" cy="190.536" rx="732.708" ry="190.536" transform="matrix(-0.815819 0.578308 0.600337 0.799747 1540.98 -633.949)" fill="url(#paint0_radial_875_1327)"/>
</g>
<g filter="url(#filter5_f_875_1327)">
<ellipse cx="706.052" cy="41.3956" rx="706.052" ry="41.3956" transform="matrix(-0.815819 0.578308 0.600337 0.799747 1835.73 -660.531)" fill="url(#paint1_radial_875_1327)"/>
</g>
<g filter="url(#filter6_f_875_1327)">
<ellipse cx="729.285" cy="191.517" rx="729.285" ry="191.517" transform="matrix(-0.72914 0.684365 0.713359 0.700799 1585.5 -693.998)" fill="url(#paint2_radial_875_1327)"/>
</g>
<g filter="url(#filter7_f_875_1327)">
<ellipse cx="702.752" cy="24.4682" rx="702.752" ry="24.4682" transform="matrix(-0.72914 0.684365 0.713359 0.700799 1671.87 -600.162)" fill="url(#paint3_radial_875_1327)"/>
</g>
<defs>
<filter id="filter0_f_875_1327" x="-992.101" y="-446.113" width="2339.05" height="2100.21" filterUnits="userSpaceOnUse" color-interpolation-filters="sRGB">
<feFlood flood-opacity="0" result="BackgroundImageFix"/>
<feBlend mode="normal" in="SourceGraphic" in2="BackgroundImageFix" result="shape"/>
<feGaussianBlur stdDeviation="274.777" result="effect1_foregroundBlur_875_1327"/>
</filter>
<filter id="filter1_f_875_1327" x="-316.214" y="79.6133" width="1885.26" height="1261.87" filterUnits="userSpaceOnUse" color-interpolation-filters="sRGB">
<feFlood flood-opacity="0" result="BackgroundImageFix"/>
<feBlend mode="normal" in="SourceGraphic" in2="BackgroundImageFix" result="shape"/>
<feGaussianBlur stdDeviation="43.65" result="effect1_foregroundBlur_875_1327"/>
</filter>
<filter id="filter2_f_875_1327" x="-367.503" y="117.367" width="1985.69" height="1415.51" filterUnits="userSpaceOnUse" color-interpolation-filters="sRGB">
<feFlood flood-opacity="0" result="BackgroundImageFix"/>
<feBlend mode="normal" in="SourceGraphic" in2="BackgroundImageFix" result="shape"/>
<feGaussianBlur stdDeviation="68.65" result="effect1_foregroundBlur_875_1327"/>
</filter>
<filter id="filter3_f_875_1327" x="-470.394" y="642.827" width="2029.84" height="903.678" filterUnits="userSpaceOnUse" color-interpolation-filters="sRGB">
<feFlood flood-opacity="0" result="BackgroundImageFix"/>
<feBlend mode="normal" in="SourceGraphic" in2="BackgroundImageFix" result="shape"/>
<feGaussianBlur stdDeviation="43.65" result="effect1_foregroundBlur_875_1327"/>
</filter>
<filter id="filter4_f_875_1327" x="339.06" y="-618.092" width="1437.1" height="1120.51" filterUnits="userSpaceOnUse" color-interpolation-filters="sRGB">
<feFlood flood-opacity="0" result="BackgroundImageFix"/>
<feBlend mode="normal" in="SourceGraphic" in2="BackgroundImageFix" result="shape"/>
<feGaussianBlur stdDeviation="54.9172" result="effect1_foregroundBlur_875_1327"/>
</filter>
<filter id="filter5_f_875_1327" x="669.574" y="-667.229" width="1230" height="896.237" filterUnits="userSpaceOnUse" color-interpolation-filters="sRGB">
<feFlood flood-opacity="0" result="BackgroundImageFix"/>
<feBlend mode="normal" in="SourceGraphic" in2="BackgroundImageFix" result="shape"/>
<feGaussianBlur stdDeviation="19.221" result="effect1_foregroundBlur_875_1327"/>
</filter>
<filter id="filter6_f_875_1327" x="611.223" y="-607.643" width="1158.3" height="1093.91" filterUnits="userSpaceOnUse" color-interpolation-filters="sRGB">
<feFlood flood-opacity="0" result="BackgroundImageFix"/>
<feBlend mode="normal" in="SourceGraphic" in2="BackgroundImageFix" result="shape"/>
<feGaussianBlur stdDeviation="15" result="effect1_foregroundBlur_875_1327"/>
</filter>
<filter id="filter7_f_875_1327" x="625.773" y="-621.768" width="1102.3" height="1039.38" filterUnits="userSpaceOnUse" color-interpolation-filters="sRGB">
<feFlood flood-opacity="0" result="BackgroundImageFix"/>
<feBlend mode="normal" in="SourceGraphic" in2="BackgroundImageFix" result="shape"/>
<feGaussianBlur stdDeviation="19.221" result="effect1_foregroundBlur_875_1327"/>
</filter>
<radialGradient id="paint0_radial_875_1327" cx="0" cy="0" r="1" gradientUnits="userSpaceOnUse" gradientTransform="translate(732.708 190.536) scale(732.708 190.536)">
<stop stop-color="#1255CB"/>
<stop offset="1" stop-color="#1255CB" stop-opacity="0"/>
</radialGradient>
<radialGradient id="paint1_radial_875_1327" cx="0" cy="0" r="1" gradientUnits="userSpaceOnUse" gradientTransform="translate(706.052 41.3956) scale(706.052 41.3956)">
<stop stop-color="white"/>
<stop offset="1" stop-color="white" stop-opacity="0"/>
</radialGradient>
<radialGradient id="paint2_radial_875_1327" cx="0" cy="0" r="1" gradientUnits="userSpaceOnUse" gradientTransform="translate(729.285 191.517) scale(729.285 191.517)">
<stop offset="0.211542" stop-color="#1255CB"/>
<stop offset="1" stop-color="#1255CB" stop-opacity="0"/>
</radialGradient>
<radialGradient id="paint3_radial_875_1327" cx="0" cy="0" r="1" gradientUnits="userSpaceOnUse" gradientTransform="translate(702.752 24.4682) scale(702.752 24.4682)">
<stop stop-color="white"/>
<stop offset="1" stop-color="white" stop-opacity="0"/>
</radialGradient>
<clipPath id="clip0_875_1327">
<rect width="1280" height="1044" fill="white"/>
</clipPath>
<clipPath id="clip1_875_1327">
<rect width="1280" height="729" fill="white" transform="translate(0.1875)"/>
</clipPath>
</defs>
</svg>
