<svg width="1280" height="663" viewBox="0 0 1280 663" fill="none" xmlns="http://www.w3.org/2000/svg">
<g opacity="0.7">
<path d="M970.499 207.771C970.499 199.875 970.499 191.978 970.459 184.09C970.419 177.438 970.338 170.787 970.162 164.144C969.768 149.66 968.917 135.056 966.346 120.733C963.735 106.193 959.47 92.6575 952.738 79.4432C946.135 66.4698 937.499 54.5889 927.209 44.2986C916.911 34.0002 905.038 25.3728 892.056 18.7616C878.85 12.0379 865.322 7.77236 850.791 5.16162C836.468 2.58301 821.848 1.73151 807.364 1.33789C800.713 1.16116 794.069 1.08083 787.418 1.04067C779.521 0.992469 771.625 1.0005 763.737 1.0005H516.271C508.374 1.0005 500.478 1.0005 492.589 1.04067C485.938 1.08083 479.286 1.16116 472.643 1.33789C458.16 1.73151 443.539 2.58301 429.216 5.16162C414.685 7.77236 401.157 12.0379 387.951 18.7616C374.969 25.3647 363.096 34.0002 352.798 44.2986C342.5 54.597 333.872 66.4698 327.261 79.4432C320.537 92.6575 316.272 106.185 313.661 120.733C311.091 135.056 310.231 149.66 309.845 164.144C309.669 170.795 309.588 177.438 309.548 184.09C309.5 191.986 309.5 199.883 309.5 207.771V455.229C309.5 463.125 309.5 471.022 309.548 478.91C309.588 485.562 309.669 492.205 309.845 498.856C310.239 513.34 311.091 527.944 313.661 542.267C316.272 556.807 320.537 570.342 327.261 583.557C333.864 596.53 342.5 608.411 352.798 618.701C363.096 629 374.969 637.627 387.951 644.238C401.157 650.962 414.685 655.228 429.216 657.838C443.539 660.417 458.151 661.268 472.643 661.662C479.294 661.839 485.938 661.919 492.589 661.959C500.486 662.008 508.382 661.999 516.271 661.999H763.729C771.625 661.999 779.521 661.999 787.41 661.959C794.061 661.919 800.705 661.839 807.356 661.662C821.84 661.268 836.452 660.417 850.783 657.838C865.314 655.228 878.842 650.962 892.048 644.238C905.03 637.635 916.903 629 927.201 618.701C937.499 608.403 946.127 596.53 952.73 583.557C959.454 570.342 963.719 556.815 966.338 542.267C968.908 527.944 969.768 513.34 970.154 498.856C970.33 492.205 970.411 485.562 970.451 478.91C970.499 471.014 970.491 463.117 970.491 455.229V207.771H970.499Z" stroke="#575757" stroke-width="0.550559" stroke-miterlimit="10"/>
<path d="M516.062 1V661.999" stroke="#575757" stroke-width="0.550559" stroke-miterlimit="10"/>
<path d="M763.254 1V661.999" stroke="#575757" stroke-width="0.550559" stroke-miterlimit="10"/>
<path d="M970.499 207.562H309.5" stroke="#575757" stroke-width="0.550559" stroke-miterlimit="10"/>
<path d="M970.499 454.746H309.5" stroke="#575757" stroke-width="0.550559" stroke-miterlimit="10"/>
<path d="M970.499 331.496H309.5" stroke="#575757" stroke-width="0.550559" stroke-miterlimit="10"/>
<path d="M639.312 661.999V1" stroke="#575757" stroke-width="0.550559" stroke-miterlimit="10"/>
<path d="M640.059 455.358C708.43 455.358 763.856 399.932 763.856 331.561C763.856 263.19 708.43 207.764 640.059 207.764C571.688 207.764 516.262 263.19 516.262 331.561C516.262 399.932 571.688 455.358 640.059 455.358Z" stroke="#575757" stroke-width="0.550559" stroke-miterlimit="10"/>
<path d="M309.5 1L970.499 661.999" stroke="#575757" stroke-width="0.550559" stroke-miterlimit="10"/>
<path d="M309.5 661.999L970.499 1" stroke="#575757" stroke-width="0.550559" stroke-miterlimit="10"/>
<path d="M814.57 345.996C822.545 249.614 750.877 165.016 654.494 157.041C558.112 149.066 473.513 220.734 465.538 317.117C457.564 413.499 529.232 498.098 625.615 506.073C721.997 514.048 806.595 442.379 814.57 345.996Z" stroke="#575757" stroke-width="0.550559" stroke-miterlimit="10"/>
<path d="M640.06 618.686C798.635 618.686 927.185 490.136 927.185 331.561C927.185 172.986 798.635 44.4355 640.06 44.4355C481.485 44.4355 352.935 172.986 352.935 331.561C352.935 490.136 481.485 618.686 640.06 618.686Z" stroke="#575757" stroke-width="0.550559" stroke-miterlimit="10"/>
</g>
<path d="M1631.5 207.771C1631.5 199.875 1631.5 191.978 1631.46 184.09C1631.42 177.438 1631.34 170.787 1631.16 164.144C1630.77 149.66 1629.92 135.056 1627.35 120.733C1624.74 106.193 1620.47 92.6575 1613.74 79.4432C1607.13 66.4698 1598.5 54.5889 1588.21 44.2986C1577.91 34.0002 1566.04 25.3728 1553.06 18.7616C1539.85 12.0379 1526.32 7.77236 1511.79 5.16162C1497.47 2.58301 1482.85 1.73151 1468.36 1.33789C1461.71 1.16116 1455.07 1.08083 1448.42 1.04067C1440.52 0.992469 1432.62 1.0005 1424.74 1.0005H1177.27C1169.37 1.0005 1161.48 1.0005 1153.59 1.04067C1146.94 1.08083 1140.29 1.16116 1133.64 1.33789C1119.16 1.73151 1104.54 2.58301 1090.22 5.16162C1075.68 7.77236 1062.16 12.0379 1048.95 18.7616C1035.97 25.3647 1024.1 34.0002 1013.8 44.2986C1003.5 54.597 994.872 66.4698 988.261 79.4432C981.537 92.6575 977.272 106.185 974.661 120.733C972.091 135.056 971.231 149.66 970.845 164.144C970.669 170.795 970.588 177.438 970.548 184.09C970.5 191.986 970.5 199.883 970.5 207.771V455.229C970.5 463.125 970.5 471.022 970.548 478.91C970.588 485.562 970.669 492.205 970.845 498.856C971.239 513.34 972.091 527.944 974.661 542.267C977.272 556.807 981.537 570.342 988.261 583.557C994.864 596.53 1003.5 608.411 1013.8 618.701C1024.1 629 1035.97 637.627 1048.95 644.238C1062.16 650.962 1075.68 655.228 1090.22 657.838C1104.54 660.417 1119.15 661.268 1133.64 661.662C1140.29 661.839 1146.94 661.919 1153.59 661.959C1161.49 662.008 1169.38 661.999 1177.27 661.999H1424.73C1432.62 661.999 1440.52 661.999 1448.41 661.959C1455.06 661.919 1461.7 661.839 1468.36 661.662C1482.84 661.268 1497.45 660.417 1511.78 657.838C1526.31 655.228 1539.84 650.962 1553.05 644.238C1566.03 637.635 1577.9 629 1588.2 618.701C1598.5 608.403 1607.13 596.53 1613.73 583.557C1620.45 570.342 1624.72 556.815 1627.34 542.267C1629.91 527.944 1630.77 513.34 1631.15 498.856C1631.33 492.205 1631.41 485.562 1631.45 478.91C1631.5 471.014 1631.49 463.117 1631.49 455.229V207.771H1631.5Z" stroke="#575757" stroke-width="0.550559" stroke-miterlimit="10"/>
<path d="M1177.06 1V661.999" stroke="#575757" stroke-width="0.550559" stroke-miterlimit="10"/>
<path d="M1631.5 207.562H970.5" stroke="#575757" stroke-width="0.550559" stroke-miterlimit="10"/>
<path d="M1631.5 454.746H970.5" stroke="#575757" stroke-width="0.550559" stroke-miterlimit="10"/>
<path d="M1631.5 331.496H970.5" stroke="#575757" stroke-width="0.550559" stroke-miterlimit="10"/>
<path d="M1301.06 455.358C1369.43 455.358 1424.86 399.932 1424.86 331.561C1424.86 263.19 1369.43 207.764 1301.06 207.764C1232.69 207.764 1177.26 263.19 1177.26 331.561C1177.26 399.932 1232.69 455.358 1301.06 455.358Z" stroke="#575757" stroke-width="0.550559" stroke-miterlimit="10"/>
<path d="M970.5 1L1631.5 661.999" stroke="#575757" stroke-width="0.550559" stroke-miterlimit="10"/>
<path d="M970.5 661.999L1631.5 1" stroke="#575757" stroke-width="0.550559" stroke-miterlimit="10"/>
<path d="M1475.57 345.996C1483.55 249.614 1411.88 165.016 1315.49 157.041C1219.11 149.066 1134.51 220.734 1126.54 317.117C1118.56 413.499 1190.23 498.098 1286.61 506.073C1383 514.048 1467.6 442.379 1475.57 345.996Z" stroke="#575757" stroke-width="0.550559" stroke-miterlimit="10"/>
<path d="M1301.06 618.686C1459.63 618.686 1588.18 490.136 1588.18 331.561C1588.18 172.986 1459.63 44.4355 1301.06 44.4355C1142.48 44.4355 1013.93 172.986 1013.93 331.561C1013.93 490.136 1142.48 618.686 1301.06 618.686Z" stroke="#575757" stroke-width="0.550559" stroke-miterlimit="10"/>
<path d="M309.499 207.771C309.499 199.875 309.499 191.978 309.459 184.09C309.419 177.438 309.338 170.787 309.162 164.144C308.768 149.66 307.917 135.056 305.346 120.733C302.735 106.193 298.47 92.6575 291.738 79.4432C285.135 66.4698 276.499 54.5889 266.209 44.2986C255.911 34.0002 244.038 25.3728 231.056 18.7616C217.85 12.0379 204.322 7.77236 189.791 5.16162C175.468 2.58301 160.848 1.73151 146.364 1.33789C139.713 1.16116 133.069 1.08083 126.418 1.04067C118.521 0.992469 110.625 1.0005 102.737 1.0005H-144.729C-152.626 1.0005 -160.522 1.0005 -168.411 1.04067C-175.062 1.08083 -181.714 1.16116 -188.357 1.33789C-202.84 1.73151 -217.461 2.58301 -231.784 5.16162C-246.315 7.77236 -259.843 12.0379 -273.049 18.7616C-286.031 25.3647 -297.904 34.0002 -308.202 44.2986C-318.5 54.597 -327.128 66.4698 -333.739 79.4432C-340.463 92.6575 -344.728 106.185 -347.339 120.733C-349.909 135.056 -350.769 149.66 -351.155 164.144C-351.331 170.795 -351.412 177.438 -351.452 184.09C-351.5 191.986 -351.5 199.883 -351.5 207.771V455.229C-351.5 463.125 -351.5 471.022 -351.452 478.91C-351.412 485.562 -351.331 492.205 -351.155 498.856C-350.761 513.34 -349.909 527.944 -347.339 542.267C-344.728 556.807 -340.463 570.342 -333.739 583.557C-327.136 596.53 -318.5 608.411 -308.202 618.701C-297.904 629 -286.031 637.627 -273.049 644.238C-259.843 650.962 -246.315 655.228 -231.784 657.838C-217.461 660.417 -202.849 661.268 -188.357 661.662C-181.706 661.839 -175.062 661.919 -168.411 661.959C-160.514 662.008 -152.618 661.999 -144.729 661.999H102.729C110.625 661.999 118.521 661.999 126.41 661.959C133.061 661.919 139.705 661.839 146.356 661.662C160.84 661.268 175.452 660.417 189.783 657.838C204.314 655.228 217.842 650.962 231.048 644.238C244.03 637.635 255.903 629 266.201 618.701C276.499 608.403 285.127 596.53 291.73 583.557C298.454 570.342 302.719 556.815 305.338 542.267C307.908 527.944 308.768 513.34 309.154 498.856C309.33 492.205 309.411 485.562 309.451 478.91C309.499 471.014 309.491 463.117 309.491 455.229V207.771H309.499Z" stroke="#575757" stroke-width="0.550559" stroke-miterlimit="10"/>
<path d="M102.254 1V661.999" stroke="#575757" stroke-width="0.550559" stroke-miterlimit="10"/>
<path d="M309.499 207.562H-351.5" stroke="#575757" stroke-width="0.550559" stroke-miterlimit="10"/>
<path d="M309.499 454.746H-351.5" stroke="#575757" stroke-width="0.550559" stroke-miterlimit="10"/>
<path d="M309.499 331.496H-351.5" stroke="#575757" stroke-width="0.550559" stroke-miterlimit="10"/>
<path d="M-20.941 455.358C47.4303 455.358 102.856 399.932 102.856 331.561C102.856 263.19 47.4303 207.764 -20.941 207.764C-89.3124 207.764 -144.738 263.19 -144.738 331.561C-144.738 399.932 -89.3124 455.358 -20.941 455.358Z" stroke="#575757" stroke-width="0.550559" stroke-miterlimit="10"/>
<path d="M-351.5 1L309.499 661.999" stroke="#575757" stroke-width="0.550559" stroke-miterlimit="10"/>
<path d="M-351.5 661.999L309.499 1" stroke="#575757" stroke-width="0.550559" stroke-miterlimit="10"/>
<path d="M153.569 345.996C161.544 249.614 89.8757 165.016 -6.50676 157.041C-102.889 149.066 -187.488 220.734 -195.463 317.117C-203.437 413.499 -131.769 498.098 -35.3864 506.073C60.9961 514.048 145.594 442.379 153.569 345.996Z" stroke="#575757" stroke-width="0.550559" stroke-miterlimit="10"/>
<path d="M-20.9393 618.686C137.636 618.686 266.186 490.136 266.186 331.561C266.186 172.986 137.636 44.4355 -20.9393 44.4355C-179.514 44.4355 -308.064 172.986 -308.064 331.561C-308.064 490.136 -179.514 618.686 -20.9393 618.686Z" stroke="#575757" stroke-width="0.550559" stroke-miterlimit="10"/>
</svg>
