<svg width="662" height="663" viewBox="0 0 662 663" fill="none" xmlns="http://www.w3.org/2000/svg">
<g opacity="0.7">
<path d="M661.499 207.771C661.499 199.875 661.499 191.978 661.459 184.09C661.419 177.438 661.338 170.787 661.162 164.144C660.768 149.66 659.917 135.056 657.346 120.733C654.735 106.193 650.47 92.6575 643.738 79.4432C637.135 66.4698 628.499 54.5889 618.209 44.2986C607.911 34.0002 596.038 25.3728 583.056 18.7616C569.85 12.0379 556.322 7.77236 541.791 5.16162C527.468 2.58301 512.848 1.73151 498.364 1.33789C491.713 1.16116 485.069 1.08083 478.418 1.04067C470.521 0.992469 462.625 1.0005 454.737 1.0005H207.271C199.374 1.0005 191.478 1.0005 183.589 1.04067C176.938 1.08083 170.286 1.16116 163.643 1.33789C149.16 1.73151 134.539 2.58301 120.216 5.16162C105.685 7.77236 92.157 12.0379 78.9507 18.7616C65.9693 25.3647 54.0965 34.0002 43.7981 44.2986C33.4997 54.597 24.8723 66.4698 18.2611 79.4432C11.5374 92.6575 7.27186 106.185 4.66112 120.733C2.09054 135.056 1.23101 149.66 0.845421 164.144C0.668694 170.795 0.588364 177.438 0.548198 184.09C0.5 191.986 0.5 199.883 0.5 207.771V455.229C0.5 463.125 0.5 471.022 0.548198 478.91C0.588364 485.562 0.668694 492.205 0.845421 498.856C1.23904 513.34 2.09054 527.944 4.66112 542.267C7.27186 556.807 11.5374 570.342 18.2611 583.557C24.8642 596.53 33.4997 608.411 43.7981 618.701C54.0965 629 65.9693 637.627 78.9507 644.238C92.157 650.962 105.685 655.228 120.216 657.838C134.539 660.417 149.151 661.268 163.643 661.662C170.294 661.839 176.938 661.919 183.589 661.959C191.486 662.008 199.382 661.999 207.271 661.999H454.729C462.625 661.999 470.521 661.999 478.41 661.959C485.061 661.919 491.705 661.839 498.356 661.662C512.84 661.268 527.452 660.417 541.783 657.838C556.314 655.228 569.842 650.962 583.048 644.238C596.03 637.635 607.903 629 618.201 618.701C628.499 608.403 637.127 596.53 643.73 583.557C650.454 570.342 654.719 556.815 657.338 542.267C659.908 527.944 660.768 513.34 661.154 498.856C661.33 492.205 661.411 485.562 661.451 478.91C661.499 471.014 661.491 463.117 661.491 455.229V207.771H661.499Z" stroke="#575757" stroke-width="0.550559" stroke-miterlimit="10"/>
<path d="M207.062 1V661.999" stroke="#575757" stroke-width="0.550559" stroke-miterlimit="10"/>
<path d="M454.254 1V661.999" stroke="#575757" stroke-width="0.550559" stroke-miterlimit="10"/>
<path d="M661.499 207.562H0.5" stroke="#575757" stroke-width="0.550559" stroke-miterlimit="10"/>
<path d="M661.499 454.746H0.5" stroke="#575757" stroke-width="0.550559" stroke-miterlimit="10"/>
<path d="M661.499 331.496H0.5" stroke="#575757" stroke-width="0.550559" stroke-miterlimit="10"/>
<path d="M330.312 661.999V1" stroke="#575757" stroke-width="0.550559" stroke-miterlimit="10"/>
<path d="M331.059 455.358C399.43 455.358 454.856 399.932 454.856 331.561C454.856 263.19 399.43 207.764 331.059 207.764C262.688 207.764 207.262 263.19 207.262 331.561C207.262 399.932 262.688 455.358 331.059 455.358Z" stroke="#575757" stroke-width="0.550559" stroke-miterlimit="10"/>
<path d="M0.5 1L661.499 661.999" stroke="#575757" stroke-width="0.550559" stroke-miterlimit="10"/>
<path d="M0.5 661.999L661.499 1" stroke="#575757" stroke-width="0.550559" stroke-miterlimit="10"/>
<path d="M505.57 345.996C513.545 249.614 441.877 165.016 345.494 157.041C249.112 149.066 164.513 220.734 156.538 317.117C148.564 413.499 220.232 498.098 316.615 506.073C412.997 514.048 497.595 442.379 505.57 345.996Z" stroke="#575757" stroke-width="0.550559" stroke-miterlimit="10"/>
<path d="M331.06 618.686C489.635 618.686 618.185 490.136 618.185 331.561C618.185 172.986 489.635 44.4355 331.06 44.4355C172.485 44.4355 43.9346 172.986 43.9346 331.561C43.9346 490.136 172.485 618.686 331.06 618.686Z" stroke="#575757" stroke-width="0.550559" stroke-miterlimit="10"/>
</g>
</svg>
