<svg width="372" height="738" viewBox="0 0 372 738" fill="none" xmlns="http://www.w3.org/2000/svg">
<g filter="url(#filter0_di_3654_5264)">
<path d="M347.008 713.5L215.154 713.5L192.232 695.652L20 695.652L20 20.0001L168.786 20L191.708 39.5429L347.008 39.5429L347.008 713.5Z" fill="#1B1B1B"/>
</g>
<mask id="mask0_3654_5264" style="mask-type:alpha" maskUnits="userSpaceOnUse" x="20" y="20" width="328" height="694">
<path d="M347.008 713.504L215.445 713.504L192.355 695.5L20 695.5L20.0001 19.9998L169.281 19.9997L192.371 39.7077L347.008 39.7077L347.008 713.504Z" fill="#1B1B1B"/>
</mask>
<g mask="url(#mask0_3654_5264)">
<g opacity="0.5">
<path d="M62.707 347.961V757.594" stroke="#575757" stroke-width="0.5" stroke-miterlimit="10"/>
<path d="M302.387 347.961V759.047" stroke="#575757" stroke-width="0.5" stroke-miterlimit="10"/>
<path d="M387.365 430.756L-19.3633 430.756" stroke="#575757" stroke-width="0.5" stroke-miterlimit="10"/>
<path d="M390.995 670.438L-22.9961 670.438" stroke="#575757" stroke-width="0.5" stroke-miterlimit="10"/>
<path d="M421.5 551.322L-53.5 551.322" stroke="#575757" stroke-width="0.5" stroke-miterlimit="10"/>
<path d="M183.273 790.999L183.273 316" stroke="#575757" stroke-width="0.5" stroke-miterlimit="10"/>
<path d="M16.9512 384.795L352.706 720.55" stroke="#575757" stroke-width="0.5" stroke-miterlimit="10"/>
<path d="M13.1583 719.095L349.435 382.818" stroke="#575757" stroke-width="0.5" stroke-miterlimit="10"/>
<path d="M352.106 564.805C359.832 471.428 290.398 389.467 197.021 381.741C103.643 374.014 21.6826 443.448 13.9564 536.826C6.23015 630.203 75.6641 712.164 169.041 719.89C262.419 727.616 344.379 658.182 352.106 564.805Z" stroke="#575757" stroke-width="0.5" stroke-miterlimit="10"/>
<path d="M184 791C315.168 791 421.5 684.668 421.5 553.5C421.5 422.332 315.168 316 184 316C52.8324 316 -53.5 422.332 -53.5 553.5C-53.5 684.668 52.8324 791 184 791Z" stroke="#575757" stroke-width="0.5" stroke-miterlimit="10"/>
</g>
<g opacity="0.2" filter="url(#filter1_f_3654_5264)">
<ellipse cx="108.705" cy="110.908" rx="108.705" ry="110.908" transform="matrix(-0.866476 -0.499219 -0.499219 0.866476 218.119 2.53516)" fill="url(#paint0_linear_3654_5264)"/>
</g>
<path d="M347.008 713.5L215.154 713.5L192.232 695.652L20 695.652L20 20.0008L168.786 20.0008L191.708 39.5437L347.008 39.5437L347.008 713.5Z" fill="url(#paint1_linear_3654_5264)"/>
</g>
<defs>
<filter id="filter0_di_3654_5264" x="-0.00803137" y="-0.00803137" width="371.032" height="737.524" filterUnits="userSpaceOnUse" color-interpolation-filters="sRGB">
<feFlood flood-opacity="0" result="BackgroundImageFix"/>
<feColorMatrix in="SourceAlpha" type="matrix" values="0 0 0 0 0 0 0 0 0 0 0 0 0 0 0 0 0 0 127 0" result="hardAlpha"/>
<feMorphology radius="16" operator="dilate" in="SourceAlpha" result="effect1_dropShadow_3654_5264"/>
<feOffset dx="2.00402" dy="2.00402"/>
<feGaussianBlur stdDeviation="3.00602"/>
<feComposite in2="hardAlpha" operator="out"/>
<feColorMatrix type="matrix" values="0 0 0 0 0 0 0 0 0 0 0 0 0 0 0 0 0 0 0.8 0"/>
<feBlend mode="normal" in2="BackgroundImageFix" result="effect1_dropShadow_3654_5264"/>
<feBlend mode="normal" in="SourceGraphic" in2="effect1_dropShadow_3654_5264" result="shape"/>
<feColorMatrix in="SourceAlpha" type="matrix" values="0 0 0 0 0 0 0 0 0 0 0 0 0 0 0 0 0 0 127 0" result="hardAlpha"/>
<feOffset dy="0.140281"/>
<feGaussianBlur stdDeviation="0.100201"/>
<feComposite in2="hardAlpha" operator="arithmetic" k2="-1" k3="1"/>
<feColorMatrix type="matrix" values="0 0 0 0 1 0 0 0 0 1 0 0 0 0 1 0 0 0 1 0"/>
<feBlend mode="normal" in2="shape" result="effect2_innerShadow_3654_5264"/>
</filter>
<filter id="filter1_f_3654_5264" x="-358.539" y="-383.84" width="854.201" height="856.412" filterUnits="userSpaceOnUse" color-interpolation-filters="sRGB">
<feFlood flood-opacity="0" result="BackgroundImageFix"/>
<feBlend mode="normal" in="SourceGraphic" in2="BackgroundImageFix" result="shape"/>
<feGaussianBlur stdDeviation="158.912" result="effect1_foregroundBlur_3654_5264"/>
</filter>
<linearGradient id="paint0_linear_3654_5264" x1="161.697" y1="116.203" x2="-10.7729" y2="223.635" gradientUnits="userSpaceOnUse">
<stop offset="0.19461" stop-color="#DCC4FF"/>
<stop offset="1" stop-color="#ECDFFF"/>
</linearGradient>
<linearGradient id="paint1_linear_3654_5264" x1="-32.3103" y1="-241.35" x2="277.247" y2="-133.279" gradientUnits="userSpaceOnUse">
<stop stop-color="white" stop-opacity="0.7"/>
<stop offset="1" stop-color="#202020" stop-opacity="0"/>
</linearGradient>
</defs>
</svg>
