<svg width="261" height="99" viewBox="0 0 261 99" fill="none" xmlns="http://www.w3.org/2000/svg">
<g filter="url(#filter0_i_2994_5300)">
<path d="M23.5 1.6145C37.8399 1.58882 45.4891 9.61513 45.5362 22.575C45.5833 35.535 37.9925 43.5885 23.6525 43.6142C23.2325 43.615 0.85252 43.655 0.85252 43.655L0.699996 1.65532C0.699996 1.65532 23.08 1.61525 23.5 1.6145ZM21.3802 29.2183C26.7202 29.2087 28.8704 26.5049 28.8562 22.6049C28.8421 18.7049 26.6722 16.0088 21.3323 16.0184C19.1123 16.0224 17.3123 16.0256 16.7723 16.0265L16.8202 29.2265C17.3602 29.2255 19.1602 29.2223 21.3802 29.2183ZM82.963 14.108L63.643 14.1426L63.6528 16.8426L81.2328 16.8111L81.2742 28.2111L63.6942 28.2425L63.704 30.9425L83.024 30.9079L83.0697 43.5078L47.7298 43.5711L47.5773 1.57139L82.9172 1.50812L82.963 14.108ZM105.871 44.607C90.0906 44.6353 84.5396 36.1252 84.515 29.3453C88.835 29.3375 99.635 29.3182 99.635 29.3182C99.6452 32.1382 102.289 33.0334 104.389 33.0297C106.608 33.0257 107.686 32.3038 107.681 30.9838C107.674 29.0038 105.033 28.6485 100.348 27.3369C90.4378 24.5946 86.1076 21.7824 86.0825 14.8824C86.0322 1.02254 98.5698 0.340091 105.41 0.327845C114.05 0.312375 123.782 3.65495 123.822 14.6949C118.902 14.7037 109.002 14.7214 109.002 14.7214C108.994 12.5614 107.37 11.4243 105.39 11.4279C103.53 11.4312 102.332 12.0934 102.338 13.7133C102.346 15.8133 106.789 16.7054 110.813 17.6582C114.836 18.611 125.1 19.6726 125.137 29.9325C125.181 41.9324 116.731 44.5876 105.871 44.607ZM127.152 1.42892L143.172 1.40023L143.325 43.4L127.305 43.4286L127.152 1.42892ZM170.176 28.5319L170.148 20.9119L191.388 20.8739L191.47 43.3138L181.21 43.3321L181.201 40.7521C178.209 43.0975 174.254 44.4846 169.154 44.4937C155.114 44.5189 145.42 35.2362 145.374 22.3963C145.327 9.55638 154.953 0.239141 168.993 0.214003C181.593 0.191444 190.562 8.21538 191.379 18.2939L175.359 18.3226C174.573 16.704 172.648 15.3275 169.528 15.333C165.508 15.3402 162.819 18.3451 162.834 22.365C162.848 26.385 164.843 30.4614 169.583 30.5729C171.564 30.6294 172.942 30.0269 173.778 29.1854L173.776 28.5254L170.176 28.5319ZM224.785 1.25411L240.805 1.22543L240.958 43.2252L220.918 43.261L210.822 22.3991L210.402 22.3999L210.478 43.2797L194.458 43.3084L194.305 1.30868L214.885 1.27184L224.441 22.1347L224.861 22.134L224.785 1.25411Z" fill="white"/>
<path d="M23.6961 55.6141C38.036 55.5885 45.6852 63.6148 45.7323 76.5747C45.7794 89.5346 38.1886 97.5882 23.8486 97.6139C23.4286 97.6146 1.04862 97.6547 1.04862 97.6547L0.896099 55.655C0.896099 55.655 23.2761 55.6149 23.6961 55.6141ZM21.5763 83.2179C26.9163 83.2084 29.0665 80.5045 29.0523 76.6045C29.0382 72.7046 26.8684 70.0085 21.5284 70.018C19.3084 70.022 17.5084 70.0252 16.9684 70.0262L17.0163 83.2261C17.5563 83.2251 19.3563 83.2219 21.5763 83.2179ZM47.7734 55.571L63.7933 55.5423L63.9459 97.5421L47.9259 97.5708L47.7734 55.571ZM90.7973 82.674L90.7696 75.054L112.01 75.016L112.091 97.4559L101.831 97.4742L101.822 94.8943C98.8302 97.2396 94.8753 98.6267 89.7753 98.6358C75.7353 98.661 66.0415 89.3783 65.9949 76.5384C65.9483 63.6985 75.5745 54.3813 89.6145 54.3561C102.214 54.3336 111.184 62.3575 112 72.436L95.9803 72.4647C95.1944 70.8461 93.2694 69.4696 90.1494 69.4752C86.1294 69.4824 83.4403 72.4872 83.4549 76.5071C83.4695 80.5271 85.4643 84.6035 90.2047 84.7151C92.1849 84.7715 93.5628 84.169 94.3997 83.3275L94.3973 82.6676L90.7973 82.674ZM114.926 55.4508L130.946 55.4221L131.099 97.4218L115.079 97.4505L114.926 55.4508ZM175.072 55.3431L175.123 69.623L162.103 69.6463L162.204 97.3662L146.244 97.3947L146.143 69.6749L133.124 69.6982L133.072 55.4183L175.072 55.3431ZM204.216 97.2909L202.632 90.6338L191.232 90.6542L189.696 97.3169L172.536 97.3477L184.983 55.3254L208.623 55.283L221.376 97.2602L204.216 97.2909ZM194.066 78.1091L199.706 78.099L197.695 69.5826L196.015 69.5856L194.066 78.1091ZM239.099 82.9485L260.699 82.9098L260.751 97.1897L223.191 97.257L223.039 55.2572L238.999 55.2287L239.099 82.9485Z" fill="url(#paint0_linear_2994_5300)"/>
</g>
<defs>
<filter id="filter0_i_2994_5300" x="0.695801" y="0.0507812" width="260.46" height="99.1441" filterUnits="userSpaceOnUse" color-interpolation-filters="sRGB">
<feFlood flood-opacity="0" result="BackgroundImageFix"/>
<feBlend mode="normal" in="SourceGraphic" in2="BackgroundImageFix" result="shape"/>
<feColorMatrix in="SourceAlpha" type="matrix" values="0 0 0 0 0 0 0 0 0 0 0 0 0 0 0 0 0 0 127 0" result="hardAlpha"/>
<feOffset dx="0.4" dy="0.4"/>
<feGaussianBlur stdDeviation="0.5"/>
<feComposite in2="hardAlpha" operator="arithmetic" k2="-1" k3="1"/>
<feColorMatrix type="matrix" values="0 0 0 0 1 0 0 0 0 1 0 0 0 0 1 0 0 0 1 0"/>
<feBlend mode="normal" in2="shape" result="effect1_innerShadow_2994_5300"/>
</filter>
<linearGradient id="paint0_linear_2994_5300" x1="132" y1="84" x2="132.152" y2="55.5008" gradientUnits="userSpaceOnUse">
<stop stop-color="#DCC4FF"/>
<stop offset="1" stop-color="#ECDFFF"/>
</linearGradient>
</defs>
</svg>
