<svg width="140" height="140" viewBox="0 0 140 140" fill="none" xmlns="http://www.w3.org/2000/svg">
<g filter="url(#filter0_i_3022_2907)">
<path d="M70 0C31.3386 0 0 31.4655 0 70.2835C0 79.537 1.77776 88.3715 5.02521 96.4522C5.57073 97.8505 6.18043 99.223 6.82222 100.583C9.40864 106.002 12.6625 111.041 16.4876 115.584C17.6556 116.97 18.8686 118.31 20.1394 119.605L7.00193 139.865H60.0972C60.4052 139.91 60.7133 139.961 61.0278 140C60.9315 139.961 60.8352 139.91 60.739 139.865H64.564C63.6591 139.62 62.7734 139.311 61.9199 138.956C54.3788 135.773 49.0777 128.298 49.0777 119.579C49.0777 114.276 51.0415 109.43 54.2633 105.738C56.869 102.754 60.2961 99.6355 65.9952 99.2102V48.9091L38.9566 90.6011C37.872 88.9386 36.9222 87.1794 36.1135 85.3429C34.079 80.742 32.9495 75.6384 32.9495 70.2835C32.9495 50.9132 47.6914 34.9968 66.5215 33.244C67.6703 33.1345 68.8255 33.0765 70.0064 33.0765C71.0461 33.0765 72.0858 33.1216 73.1063 33.2054C92.1225 34.7906 107.063 50.7779 107.063 70.2835C107.063 75.6384 105.934 80.7355 103.912 85.3429C103.104 87.1794 102.147 88.9322 101.063 90.5947L73.6325 48.3099V99.2488C79.5627 99.8223 83.2145 102.832 85.7431 105.731C88.9777 109.424 90.9352 114.263 90.9352 119.573C90.9352 128.298 85.6276 135.786 78.0673 138.956C77.2201 139.311 76.3537 139.613 75.4488 139.852H79.2674C79.1648 139.897 79.0621 139.948 78.9594 139.994C79.2867 139.955 79.6012 139.897 79.9285 139.852H133.005L119.861 119.592C121.125 118.303 122.344 116.963 123.512 115.578C127.697 110.609 131.195 105.042 133.884 99.0297C134.423 97.8569 134.911 96.6584 135.366 95.4534C138.357 87.6434 140 79.1503 140 70.2835C140 31.4655 108.661 0 70 0Z" fill="url(#paint0_linear_3022_2907)"/>
</g>
<defs>
<filter id="filter0_i_3022_2907" x="0" y="0" width="140.4" height="140.4" filterUnits="userSpaceOnUse" color-interpolation-filters="sRGB">
<feFlood flood-opacity="0" result="BackgroundImageFix"/>
<feBlend mode="normal" in="SourceGraphic" in2="BackgroundImageFix" result="shape"/>
<feColorMatrix in="SourceAlpha" type="matrix" values="0 0 0 0 0 0 0 0 0 0 0 0 0 0 0 0 0 0 127 0" result="hardAlpha"/>
<feOffset dx="0.4" dy="0.4"/>
<feGaussianBlur stdDeviation="0.5"/>
<feComposite in2="hardAlpha" operator="arithmetic" k2="-1" k3="1"/>
<feColorMatrix type="matrix" values="0 0 0 0 1 0 0 0 0 1 0 0 0 0 1 0 0 0 1 0"/>
<feBlend mode="normal" in2="shape" result="effect1_innerShadow_3022_2907"/>
</filter>
<linearGradient id="paint0_linear_3022_2907" x1="70" y1="97.1642" x2="65.8035" y2="-8.19105" gradientUnits="userSpaceOnUse">
<stop stop-color="#E1FF8B"/>
<stop offset="1" stop-color="#F0FFC4"/>
</linearGradient>
</defs>
</svg>
