<svg width="42" height="43" viewBox="0 0 42 43" fill="none" xmlns="http://www.w3.org/2000/svg">
<g filter="url(#filter0_di_2993_4395)">
<path d="M17 4.76367C9.81982 4.76367 4 10.5835 4 17.7637C4 24.9439 9.81982 30.7637 17 30.7637C24.1802 30.7637 30 24.9439 30 17.7637C30 10.5835 24.1773 4.76367 17 4.76367ZM15.3739 23.6037C15.114 23.8608 14.7645 24.0052 14.3977 24.011C14.0193 24.0167 13.6554 23.8694 13.3868 23.6037L9.59742 19.7652L11.6279 17.7694L14.4381 20.6144L23.1722 12.3569L25.1218 14.3931L15.371 23.6066L15.3739 23.6037Z" fill="url(#paint0_linear_2993_4395)"/>
</g>
<defs>
<filter id="filter0_di_2993_4395" x="0" y="0.763672" width="42" height="42" filterUnits="userSpaceOnUse" color-interpolation-filters="sRGB">
<feFlood flood-opacity="0" result="BackgroundImageFix"/>
<feColorMatrix in="SourceAlpha" type="matrix" values="0 0 0 0 0 0 0 0 0 0 0 0 0 0 0 0 0 0 127 0" result="hardAlpha"/>
<feOffset dx="4" dy="4"/>
<feGaussianBlur stdDeviation="4"/>
<feComposite in2="hardAlpha" operator="out"/>
<feColorMatrix type="matrix" values="0 0 0 0 0 0 0 0 0 0 0 0 0 0 0 0 0 0 1 0"/>
<feBlend mode="normal" in2="BackgroundImageFix" result="effect1_dropShadow_2993_4395"/>
<feBlend mode="normal" in="SourceGraphic" in2="effect1_dropShadow_2993_4395" result="shape"/>
<feColorMatrix in="SourceAlpha" type="matrix" values="0 0 0 0 0 0 0 0 0 0 0 0 0 0 0 0 0 0 127 0" result="hardAlpha"/>
<feOffset dy="0.35"/>
<feGaussianBlur stdDeviation="0.25"/>
<feComposite in2="hardAlpha" operator="arithmetic" k2="-1" k3="1"/>
<feColorMatrix type="matrix" values="0 0 0 0 1 0 0 0 0 1 0 0 0 0 1 0 0 0 1 0"/>
<feBlend mode="normal" in2="shape" result="effect2_innerShadow_2993_4395"/>
</filter>
<linearGradient id="paint0_linear_2993_4395" x1="23.5" y1="3.95843" x2="33.3178" y2="25.8094" gradientUnits="userSpaceOnUse">
<stop stop-color="#DCC4FF"/>
<stop offset="0.505" stop-color="#B0F5FF"/>
<stop offset="1" stop-color="#DFFE90"/>
</linearGradient>
</defs>
</svg>
