<svg width="134" height="33" viewBox="0 0 134 33" fill="none" xmlns="http://www.w3.org/2000/svg">
<path d="M0.0544484 4.77618C0.0544484 4.77618 0.201775 4.88611 0.267252 4.93322C2.65768 7.11663 5.45629 8.68627 8.49973 9.83104C10.6596 10.6465 12.9009 11.1945 15.1911 11.5066C17.2195 11.7875 19.264 11.8954 21.3084 11.8146C25.4952 11.6371 29.5176 10.7993 33.3264 9.03385C35.6477 7.96197 37.7723 6.62295 39.6348 4.89105C39.7002 4.82807 39.7656 4.79655 39.8799 4.70207C39.8638 4.84362 39.8638 4.90653 39.8475 4.96945C38.4296 9.24856 36.0623 12.9153 32.3365 15.7186C29.8526 17.5927 27.0244 18.7281 23.9011 19.2504C22.4294 19.4879 20.9412 19.6153 19.4528 19.5854C13.2703 19.4348 8.19738 17.0812 4.2994 12.4461C2.48145 10.2936 1.10479 7.87316 0.153128 5.24787C0.103916 5.12211 0.071059 4.99633 0.0218468 4.87058C0.0218286 4.85485 0.0381476 4.82338 0.0544484 4.77618Z" fill="white"/>
<path d="M0.0852891 17.2787C0.0852891 17.2787 0.21626 17.3886 0.281737 17.4357C2.86863 19.7919 5.91264 21.4242 9.23417 22.6001C11.034 23.2272 12.8827 23.6656 14.7639 23.9624C17.0214 24.3059 19.2785 24.4136 21.5518 24.3011C24.8718 24.1403 28.1095 23.5549 31.2321 22.4036C34.1748 21.3153 36.8717 19.8184 39.2245 17.7714C39.4206 17.5982 39.6166 17.4093 39.8617 17.1889C39.8619 17.3147 39.8783 17.3933 39.862 17.4719C38.3788 21.9241 35.8809 25.7168 31.9261 28.5361C29.5565 30.2214 26.8754 31.2622 23.9647 31.7371C22.4766 31.9903 20.9884 32.102 19.4673 32.0722C13.5792 31.9369 8.67005 29.7877 4.80519 25.4985C2.74176 23.2204 1.21768 20.6114 0.151258 17.7504C0.102027 17.6089 0.052815 17.4831 0.0199401 17.3416C0.0362774 17.3259 0.0689701 17.3101 0.0852891 17.2787Z" fill="white"/>
<path d="M133.384 4.36601L133.386 6.53626L131.375 6.53841C131.359 6.7586 131.326 6.94735 131.326 7.13607C131.329 9.43212 131.332 11.7439 131.334 14.04C131.334 14.2129 131.335 14.3859 131.335 14.6218C130.419 14.6385 129.536 14.6238 128.587 14.6248C128.57 13.9171 128.586 13.2566 128.585 12.5961C128.584 11.9356 128.583 11.2593 128.583 10.5988L128.58 8.60157C128.579 7.94106 128.579 7.28055 128.578 6.55713C127.417 6.55838 126.304 6.55957 125.143 6.56081C125.127 6.781 125.095 6.95403 125.095 7.14274C125.097 9.42307 125.1 11.7191 125.103 13.9995C125.103 14.1882 125.103 14.3769 125.103 14.5499C124.744 14.6603 123.01 14.6779 122.421 14.5842C122.421 14.4112 122.388 14.2383 122.388 14.0495C122.385 11.7849 122.383 9.53606 122.38 7.27146C122.38 7.05129 122.363 6.84687 122.346 6.56381L120.907 6.56535L120.905 4.37938C121.363 4.37889 121.837 4.36266 122.328 4.3464C122.327 4.11051 122.36 3.8903 122.376 3.68584C122.408 3.29265 122.375 2.89952 122.473 2.52198C122.782 1.29499 123.664 0.586358 124.858 0.191919C125.495 -0.013207 126.166 -0.0139253 126.82 0.00110032C126.984 0.000925119 127.147 0.0322027 127.148 0.22092C127.148 0.897155 127.149 1.57339 127.15 2.28108C127.003 2.26551 126.888 2.26563 126.79 2.25001C126.463 2.18746 126.136 2.18781 125.809 2.31397C125.449 2.45589 125.204 2.69205 125.123 3.05384C125.025 3.46284 125.075 3.8874 125.092 4.28054C125.484 4.3902 128.068 4.38743 128.559 4.27682C128.559 4.0252 128.558 3.75785 128.558 3.47478C128.59 3.11304 128.59 2.75133 128.688 2.40524C129.079 1.0838 130.075 0.375047 131.416 0.0905357C131.939 -0.0201097 132.496 -0.00497898 133.035 -0.00555712C133.33 -0.00587248 133.395 0.056963 133.395 0.324312C133.396 0.921915 133.397 1.50379 133.398 2.10139C133.398 2.14857 133.365 2.18006 133.349 2.24298C133.251 2.24309 133.152 2.2432 133.054 2.22757C132.858 2.22778 132.662 2.18082 132.465 2.19675C131.779 2.24467 131.354 2.65401 131.322 3.31455C131.322 3.5819 131.322 3.86498 131.323 4.13233C131.323 4.1795 131.356 4.24238 131.388 4.32097C132.043 4.32027 132.697 4.3353 133.367 4.3503L133.384 4.36601Z" fill="white"/>
<path d="M48.3146 14.6793C48.2318 13.8302 48.2799 12.9809 48.2789 12.1317C48.2779 11.2824 48.2769 10.4175 48.2759 9.56827L48.27 4.44146C49.2023 4.42473 50.0854 4.42379 51.0014 4.43853L51.003 5.86964C51.003 5.86964 51.0685 5.90102 51.1012 5.91671C51.1665 5.83801 51.2646 5.775 51.3136 5.69631C52.2278 4.2485 54.043 3.97921 55.4501 4.43377C56.1373 4.66893 56.6775 5.09296 57.0544 5.70589C57.1363 5.84734 57.2182 5.97306 57.3329 6.16166C57.4309 6.02001 57.5289 5.92555 57.5942 5.83112C58.6554 4.11581 60.9939 3.86168 62.4832 4.6464C63.5305 5.19571 64.055 6.09155 64.2198 7.19222C64.2692 7.45952 64.2695 7.7426 64.2698 8.00994C64.2722 10.0386 64.2745 12.0674 64.2768 14.0803C64.2771 14.2691 64.2609 14.4421 64.2448 14.6465L61.5952 14.6494C61.595 14.4606 61.5457 14.2877 61.5455 14.099C61.5433 12.2118 61.5411 10.3089 61.5389 8.42176C61.5385 8.0915 61.4891 7.74557 61.3742 7.44689C61.1281 6.77092 60.588 6.40979 59.8519 6.34768C58.4125 6.20768 57.6775 7.13633 57.6625 8.3001C57.6647 10.203 57.667 12.1216 57.6692 14.0245C57.6694 14.2289 57.6696 14.4177 57.6699 14.6536L54.9549 14.6565C54.9547 14.4992 54.9054 14.3263 54.9052 14.1533C54.9031 12.2818 54.9009 10.4261 54.8987 8.55468C54.8983 8.17725 54.8652 7.79985 54.7503 7.45399C54.5205 6.778 53.9803 6.40114 53.2279 6.35477C51.8867 6.26185 51.0534 7.00188 51.0386 8.30719C51.0408 10.2415 51.0431 12.1916 51.0453 14.126C51.0455 14.2989 51.0457 14.4719 51.0459 14.6764L48.3146 14.6793Z" fill="white"/>
<path d="M76.3356 32.2943L73.7187 32.2971C73.5874 31.9198 73.5765 22.5312 73.7069 22.1222L76.3074 22.1194C76.3243 22.6069 76.3412 23.0786 76.3582 23.5661C76.3909 23.5661 76.4236 23.5661 76.44 23.5818C76.6523 23.3142 76.8482 23.0309 77.0933 22.7948C77.371 22.5586 77.6815 22.3381 78.0085 22.1805C78.3191 22.0386 78.6951 21.9596 79.0385 21.912C79.3983 21.8644 79.7581 21.8641 80.118 21.9108C80.4615 21.9577 80.8215 22.0674 81.1324 22.2243C81.4597 22.3969 81.7544 22.6325 82.0164 22.8839C82.262 23.1352 82.4259 23.4338 82.6552 23.7481C82.7369 23.6537 82.8023 23.5907 82.8512 23.512C83.5696 22.3947 84.6157 21.8589 85.9732 21.8574C87.1835 21.8561 88.1816 22.2482 88.9024 23.2067C89.3447 23.8039 89.5744 24.4799 89.5753 25.2033C89.5943 27.4836 89.5806 29.7796 89.5832 32.06C89.5833 32.1072 89.5833 32.1386 89.567 32.1858C89.2401 32.312 87.3592 32.3297 86.8357 32.1887C86.8355 32.0315 86.8353 31.8585 86.8351 31.7012C86.8329 29.814 86.8307 27.9426 86.8286 26.0554C86.8283 25.8038 86.8116 25.5679 86.7623 25.3321C86.565 24.4202 85.7957 23.902 84.8144 23.9345C83.8004 23.9671 83.0979 24.6283 83.0008 25.5877C82.9847 25.7922 82.985 25.9966 82.9852 26.2011C82.9873 28.0411 82.9895 29.8811 82.9916 31.7053C82.9918 31.8783 82.9756 32.0513 82.9595 32.2558C82.06 32.3039 81.1931 32.2891 80.2772 32.2744C80.277 32.0699 80.2441 31.897 80.2439 31.7397C80.2417 29.884 80.2396 28.044 80.2375 26.1883C80.2372 25.9367 80.2205 25.6694 80.1711 25.4178C80.0066 24.5373 79.319 23.9561 78.3703 23.9572C77.389 23.9582 76.6699 24.4308 76.442 25.3274C76.3769 25.6106 76.3609 25.8937 76.3449 26.1925C76.347 28.0325 76.3491 29.8725 76.3512 31.6967C76.3514 31.8697 76.3516 32.0427 76.3519 32.2629L76.3356 32.2943Z" fill="white"/>
<path d="M100.27 23.6192L100.268 22.0937C101.2 22.0613 102.084 22.0918 102.934 22.0909C103.049 22.4839 103.06 31.904 102.946 32.2816L100.296 32.2844C100.296 31.7812 100.279 31.2937 100.262 30.7904C100.017 30.7907 99.9513 30.9637 99.837 31.074C99.2489 31.7036 98.5462 32.1605 97.6795 32.3658C95.2596 32.9188 93.0995 31.9619 92.0829 29.6826C91.3613 28.0636 91.3757 26.3651 92.0771 24.7445C92.6317 23.4544 93.5629 22.4783 95.0017 22.0993C96.8493 21.6099 98.5179 21.9226 99.8607 23.3523C99.9263 23.4308 100.008 23.4936 100.074 23.5722C100.09 23.5879 100.123 23.5879 100.254 23.6349L100.27 23.6192ZM100.29 27.1104C100.274 26.9689 100.257 26.7487 100.224 26.5443C100.01 25.1764 98.9459 24.2339 97.4901 24.1568C96.2307 24.0953 95.0702 24.7413 94.5975 26.1415C94.4183 26.7078 94.3862 27.274 94.5014 27.8558C94.8634 29.774 97.0072 30.8254 98.7398 29.8956C99.8349 29.3126 100.259 28.3528 100.29 27.1104Z" fill="white"/>
<path d="M74.8922 14.6508C74.8916 14.1319 74.8583 13.6287 74.8414 13.1412C74.8087 13.1412 74.7759 13.1098 74.7432 13.0941C74.6452 13.1885 74.5471 13.283 74.4655 13.3932C72.9465 15.1404 70.2152 15.2535 68.513 14.1702C67.6946 13.6521 67.0559 12.9451 66.6951 12.0648C65.9735 10.3356 65.9551 8.59002 66.7709 6.87496C67.3582 5.63195 68.3385 4.71876 69.761 4.37126C71.5923 3.94468 73.1793 4.32042 74.4729 5.70296C74.5384 5.76579 74.5876 5.82865 74.6531 5.89148C74.6694 5.90719 74.7022 5.92288 74.7513 5.93856C74.9309 5.71819 74.8325 5.45095 74.8485 5.19931C74.8483 4.96341 74.848 4.71179 74.8477 4.49162C75.2401 4.38112 77.0392 4.36346 77.4973 4.45733C77.6122 4.80319 77.6394 14.2076 77.5091 14.6323L74.8922 14.6351L74.8922 14.6508ZM71.9622 12.5624C73.0743 12.5612 73.9242 12.0727 74.4465 11.1286C75.0667 9.99563 75.0327 8.83192 74.3281 7.74755C73.2795 6.12885 70.7607 6.06864 69.6176 7.62678C68.8338 8.71274 68.7698 9.90802 69.3926 11.0711C69.9171 12.0456 70.7846 12.5636 71.9622 12.5624Z" fill="white"/>
<path d="M93.7399 5.90249L93.7383 4.47139C94.1797 4.36083 96.0116 4.35887 96.3878 4.45282C96.4864 4.78297 96.5135 14.1244 96.3996 14.6435C95.5492 14.6602 94.6823 14.6454 93.7501 14.6464C93.7331 14.1117 93.7161 13.6085 93.6991 13.0109C93.5357 13.1683 93.4377 13.2313 93.3724 13.3258C91.6248 15.435 87.6995 15.5021 85.8972 12.689C85.209 11.6046 85.0114 10.441 85.059 9.19861C85.1066 7.92472 85.4978 6.792 86.3308 5.80034C88.062 3.7226 91.5457 3.70314 93.298 5.65134C93.3963 5.76132 93.4945 5.85557 93.5928 5.96555C93.6419 5.9655 93.6745 5.93401 93.7236 5.91823L93.7399 5.90249ZM90.4111 12.5583C92.0793 12.5251 92.9782 11.958 93.4676 10.8566C93.8918 9.94402 93.858 8.98474 93.4153 8.07308C92.9726 7.12997 92.1869 6.58039 91.1074 6.48719C89.9133 6.39411 88.9488 6.81975 88.3285 7.82691C87.7571 8.77111 87.7092 9.77765 88.1357 10.7994C88.5457 11.774 89.5607 12.575 90.3947 12.5426L90.4111 12.5583Z" fill="white"/>
<path d="M48.3187 32.3558L48.3021 17.9976C49.2016 17.9495 50.0684 17.9643 51.0171 17.9947L51.0236 23.5933C51.0236 23.5933 51.089 23.6089 51.1217 23.6246C51.2034 23.5459 51.2851 23.4829 51.3504 23.3885C52.0853 22.4441 53.0662 22.0027 54.2928 21.9542C56.8605 21.8571 58.3183 23.727 58.3532 25.6928C58.3884 27.7843 58.3581 29.8917 58.3605 31.9833C58.3606 32.0777 58.3444 32.1878 58.3282 32.2664C57.9848 32.3926 56.2021 32.4103 55.6295 32.3008C55.6294 32.1435 55.5964 31.9706 55.5963 31.8133C55.5942 30.0362 55.5921 28.2591 55.5901 26.4821C55.5897 26.1675 55.5566 25.8373 55.4745 25.5386C55.1954 24.6425 54.4587 24.0142 53.3138 24.0312C52.1363 24.0482 51.4173 24.6623 51.1404 25.5904C51.0589 25.8579 51.0429 26.1252 51.0432 26.4083C51.0453 28.2011 51.0473 29.9939 51.0494 31.7867C51.0496 31.9597 51.0498 32.1327 51.0501 32.3529C50.1179 32.4011 49.251 32.3705 48.3351 32.3558L48.3187 32.3558Z" fill="white"/>
<path d="M101.889 9.79391C101.857 10.3601 101.891 10.8948 101.875 11.4137C101.876 11.9327 101.876 12.4517 101.877 12.9707L101.879 14.6062L99.2127 14.6091C99.2125 14.4203 99.1632 14.2317 99.163 14.043C99.16 11.4481 99.157 8.86898 99.154 6.27412C99.1519 4.44986 99.1498 2.6256 99.1477 0.801337C99.1475 0.61262 99.1636 0.439612 99.1797 0.219425L101.829 0.216587C101.829 0.389577 101.862 0.546806 101.863 0.719797C101.865 3.22029 101.868 5.72079 101.871 8.22129C101.871 8.39428 101.872 8.55154 101.888 8.72452C101.921 8.72448 101.954 8.7559 101.986 8.77159C102.101 8.66138 102.215 8.5669 102.313 8.45671C103.424 7.21313 104.535 5.96956 105.629 4.726C105.858 4.47413 106.087 4.34807 106.43 4.36343C107.15 4.39411 107.869 4.36189 108.589 4.36112C108.736 4.36096 108.883 4.3608 109.129 4.39199C107.642 6.06059 106.172 7.61908 104.702 9.24047C106.16 11.0317 107.666 12.7757 109.173 14.6298C108.928 14.6301 108.764 14.6303 108.601 14.6305C107.848 14.6313 107.096 14.6321 106.344 14.6329C106.049 14.6332 105.869 14.5548 105.706 14.3348C104.592 12.9363 103.462 11.5536 102.331 10.1551C102.233 10.0294 102.151 9.85654 101.889 9.77818L101.889 9.79391Z" fill="white"/>
<path d="M114.702 14.8126C113.491 14.8139 112.346 14.5478 111.331 13.8884C109.613 12.7579 108.858 11.1704 108.971 9.20445C109.099 7.00261 110.242 5.42875 112.367 4.6087C113.986 3.97791 115.638 4.00759 117.241 4.66638C119.401 5.56047 120.614 7.52498 120.437 9.96276C120.292 11.9287 119.279 13.3609 117.449 14.2593C116.599 14.6848 115.667 14.8431 114.702 14.8284L114.702 14.8126ZM114.708 6.46191C113.465 6.41606 112.534 7.14047 112.126 7.97441C111.669 8.93421 111.654 9.90926 112.08 10.8681C112.49 11.7955 113.472 12.5808 114.944 12.5006C116.04 12.4365 117.037 11.712 117.428 10.6422C117.607 10.1545 117.656 9.65121 117.623 9.148C117.473 7.37108 116.098 6.38178 114.692 6.4462L114.708 6.46191Z" fill="white"/>
<path d="M60.8352 22.1517L63.4684 22.1489C63.4686 22.3376 63.5179 22.5105 63.5181 22.6992C63.5201 24.4449 63.5222 26.2062 63.5242 27.9518C63.5247 28.4079 63.5743 28.8482 63.771 29.2569C64.1481 30.0113 64.77 30.3881 65.6206 30.4501C67.1091 30.5586 68.122 29.5825 68.1366 28.0727C68.1345 26.2799 68.1324 24.4871 68.1303 22.6943C68.1301 22.5213 68.1299 22.3483 68.1297 22.1124C69.0456 22.0957 69.9288 22.1105 70.7956 22.1096C70.927 22.534 70.9215 31.9384 70.8074 32.3003L68.1578 32.3031L68.1561 30.8405C67.9927 30.9665 67.911 31.0138 67.862 31.0925C66.8333 32.5247 64.8874 32.857 63.3821 32.3554C62.0568 31.9165 61.287 30.9423 60.9584 29.653C60.8762 29.3229 60.8431 28.9612 60.8427 28.6152C60.8403 26.6022 60.838 24.5893 60.8357 22.5763C60.8355 22.4347 60.8517 22.2932 60.8679 22.1359L60.8352 22.1517Z" fill="white"/>
<path d="M108.495 22.0849C108.512 22.5724 108.529 23.0127 108.562 23.5631C108.709 23.4057 108.807 23.3427 108.873 23.264C109.607 22.3511 110.572 21.9097 111.749 21.8927C112.24 21.8922 112.747 21.8916 113.222 22.0484C114.792 22.5499 115.579 23.6657 115.809 25.1909C115.859 25.4582 115.859 25.7413 115.859 26.0086C115.862 27.8958 115.864 29.7987 115.866 31.6858C115.866 31.7802 115.866 31.8903 115.866 31.9846C115.867 32.1734 115.785 32.2835 115.572 32.2838C114.82 32.2846 114.068 32.2854 113.315 32.2705C113.283 32.2705 113.266 32.2548 113.184 32.2077C113.184 32.0661 113.168 31.8932 113.167 31.7359C113.165 29.9746 113.163 28.2132 113.161 26.4361C113.161 26.1216 113.128 25.7914 113.046 25.4927C112.734 24.4393 111.85 23.9056 110.771 23.9382C109.642 23.9708 108.792 24.7109 108.63 25.7647C108.581 26.0321 108.582 26.3152 108.582 26.5826C108.584 28.2653 108.586 29.9323 108.588 31.615C108.588 31.7408 108.588 31.8824 108.588 32.0082C108.588 32.1812 108.507 32.2913 108.311 32.2915C107.542 32.2924 106.773 32.2932 106.004 32.2783C105.972 32.2783 105.955 32.2469 105.923 32.2469C105.824 31.9325 105.781 22.6697 105.894 22.1034C106.745 22.071 107.612 22.0858 108.544 22.1006L108.495 22.0849Z" fill="white"/>
<path d="M126.184 29.2372C126.741 30.5262 128.165 31.0122 129.39 30.3661C129.603 30.2557 129.799 30.0668 129.946 29.8779C130.24 29.4373 130.125 28.9499 129.683 28.6673C129.405 28.4946 129.094 28.3691 128.783 28.2751C128.145 28.1028 127.49 27.9777 126.852 27.8211C126.214 27.6645 125.593 27.4293 125.036 27.0682C123.367 26.032 123.561 24.0031 124.639 23.0112C125.374 22.3342 126.257 22.003 127.222 21.8918C128.088 21.7966 128.972 21.7956 129.822 22.0463C130.591 22.2657 131.279 22.6109 131.803 23.1922C132.261 23.695 132.524 24.2766 132.508 25.0157C132.083 25.0634 131.69 25.0323 131.282 25.0328C130.889 25.0332 130.496 25.0336 130.12 25.034C130.088 24.9869 130.038 24.9555 130.022 24.9083C129.678 24.0123 128.99 23.5884 128.009 23.6524C127.649 23.6842 127.289 23.7632 126.995 23.968C126.309 24.4248 126.326 25.274 127.063 25.6664C127.619 25.9646 128.241 26.0897 128.862 26.1991C129.827 26.3711 130.76 26.6217 131.611 27.124C132.233 27.4851 132.626 28.0036 132.791 28.6954C133.021 29.7331 132.711 30.6141 131.91 31.3227C131.224 31.9367 130.39 32.2522 129.475 32.379C128.346 32.5374 127.218 32.5072 126.138 32.1466C125.418 31.9115 124.78 31.5348 124.272 30.9691C123.846 30.4978 123.617 29.9476 123.616 29.2557C124.482 29.1761 125.333 29.2224 126.183 29.2215L126.184 29.2372Z" fill="white"/>
<path d="M80.3055 0.255369L82.9551 0.252531L82.9717 14.5793C82.6774 14.674 80.9929 14.7072 80.3385 14.6136C80.3384 14.472 80.2891 14.3148 80.289 14.1733C80.2838 9.69124 80.2786 5.19349 80.2734 0.71147C80.2732 0.569932 80.2894 0.428377 80.3055 0.239643L80.3055 0.255369Z" fill="white"/>
<path d="M118.505 22.0742L121.138 22.0714C121.269 22.4172 121.296 31.7587 121.166 32.2306C121.084 32.2307 120.97 32.278 120.872 32.2781C120.217 32.2788 119.579 32.2795 118.925 32.2802C118.549 32.2806 118.5 32.2492 118.5 31.8875C118.499 31.2741 118.498 30.6765 118.497 30.0632C118.495 27.6256 118.492 25.1723 118.489 22.7347C118.489 22.5303 118.488 22.3415 118.488 22.0899L118.505 22.0742Z" fill="white"/>
<path d="M119.909 20.6416C119.697 20.6103 119.468 20.5791 119.255 20.5165C118.552 20.3128 118.109 19.6842 118.19 18.9921C118.271 18.2844 118.794 17.7491 119.546 17.7011C119.89 17.685 120.282 17.7003 120.609 17.7943C121.297 17.998 121.657 18.6424 121.56 19.2873C121.43 20.0423 120.858 20.5776 120.106 20.5942C120.04 20.5942 119.991 20.5943 119.926 20.5944C119.926 20.5944 119.926 20.6101 119.926 20.6258L119.909 20.6416Z" fill="white"/>
</svg>
