<svg width="134" height="26" viewBox="0 0 134 26" fill="none" xmlns="http://www.w3.org/2000/svg">
<path d="M26.3201 1.00858L26.0373 1.00888C19.3937 1.01599 12.7643 1.0231 6.12067 1.03021C4.08518 1.03239 2.03556 1.03459 6.97538e-05 1.03677L0.0289499 25.9639C0.170303 25.9637 0.311641 25.95 0.438859 25.9499C8.94833 25.9407 17.4719 25.9316 25.9814 25.9225C26.2264 25.9222 26.3488 25.7998 26.3485 25.5551C26.3437 21.4097 26.3389 17.2778 26.3341 13.1323C26.3295 9.16357 26.3249 5.2084 26.3203 1.23963L26.3201 1.00858ZM21.6423 14.1432L4.70821 14.1613L4.70664 12.8021L21.6408 12.784L21.6423 14.1432Z" fill="white"/>
<path d="M94.4904 21.5813C96.0732 21.267 97.104 20.3145 97.286 18.86C97.4542 17.555 97.0147 16.441 95.8123 15.6811C95.1191 15.2333 94.3274 15.1119 93.5076 15.1127C91.3025 15.1151 89.0973 15.1175 86.8922 15.1198C86.7933 15.1199 86.6943 15.12 86.5954 15.1201L86.6074 25.4634L88.7277 25.4611L88.7233 21.6826C88.8646 21.6825 88.9636 21.6688 89.0767 21.6687C89.8682 21.6678 90.6598 21.667 91.4514 21.6661C91.7341 21.6658 91.9038 21.7472 92.0737 21.9645C92.824 22.9151 93.6166 23.8385 94.3245 24.8163C94.7209 25.3596 95.1594 25.6173 95.852 25.535C96.3466 25.4801 96.8556 25.534 97.4351 25.5333C96.3311 24.2161 95.2694 22.9532 94.1937 21.6632C94.3208 21.6359 94.4198 21.6222 94.5045 21.5949L94.4904 21.5813ZM88.9616 19.9562C88.9616 19.9562 88.8344 19.9564 88.7495 19.9429L88.746 16.8712C88.8308 16.8711 88.9297 16.8438 89.0287 16.8437C90.5129 16.8421 92.0112 16.8405 93.4954 16.8389C93.9902 16.8384 94.4567 16.8922 94.8387 17.218C95.334 17.6388 95.4053 18.196 95.2929 18.7806C95.1804 19.338 94.7709 19.6646 94.2198 19.8283C94.0078 19.8965 93.7676 19.9375 93.5414 19.9377C92.0148 19.9394 90.4882 19.941 88.9616 19.9426L88.9616 19.9562Z" fill="white"/>
<path d="M90.5049 9.92392L82.2498 9.93277L82.2466 7.14647L88.3389 7.13995L88.3369 5.41381L82.2446 5.42033L82.2418 3.00102C82.3549 3.0009 82.4397 3.00081 82.5245 3.00071C83.7401 2.99941 84.9416 2.99812 86.1573 2.99682C87.4012 2.99549 88.6451 2.99416 89.889 2.99283C90.0021 2.9927 90.1576 3.03331 90.1574 2.84303C90.1568 2.32655 90.1562 1.82365 90.1556 1.27999L80.0912 1.29077L80.1032 11.6204L90.5209 11.6093L90.519 9.91032L90.5049 9.92392Z" fill="white"/>
<path d="M125.181 23.7231L125.177 20.9368L131.27 20.9303L131.268 19.2177L125.176 19.2243L125.173 16.7914L133.088 16.7829C133.088 16.2936 133.073 15.8451 133.087 15.3965C133.087 15.1383 133.016 15.0704 132.747 15.0707C129.595 15.0741 126.443 15.0775 123.305 15.0808L123.008 15.0811L123.02 25.438L133.424 25.4268L133.422 23.7143L125.167 23.7231L125.181 23.7231Z" fill="white"/>
<path d="M58.1793 23.7949C57.628 23.7955 57.0626 23.7961 56.5113 23.7967C54.4899 23.7988 52.4544 23.801 50.4331 23.8032C50.2776 23.8033 50.1504 23.8035 50.1501 23.586C50.1492 22.7705 50.1483 21.9686 50.1473 21.1531C50.1473 21.1123 50.1614 21.0715 50.1895 20.99L56.2536 20.9835L56.2516 19.2709L50.1593 19.2774L50.1565 16.8581L58.044 16.8497L58.042 15.1507L48.0059 15.1615L48.0179 25.4911L58.4498 25.48C58.4492 24.9907 58.4486 24.5014 58.4481 24.0257C58.4479 23.8218 58.3771 23.7675 58.1792 23.7813L58.1793 23.7949Z" fill="white"/>
<path d="M69.3594 22.9674C68.5385 22.0576 67.7175 21.1479 66.8967 20.2517C65.4105 18.6087 63.9244 16.9657 62.4383 15.3227C62.3676 15.2548 62.2685 15.1598 62.1696 15.1599C61.5476 15.147 60.9115 15.1612 60.2613 15.1619L60.2733 25.5052L62.0826 25.5033L62.0735 17.6609C62.1867 17.7695 62.2433 17.8102 62.2999 17.8509C62.682 18.2718 63.05 18.6792 63.4322 19.1001C65.3146 21.1776 67.197 23.2551 69.0794 25.3327C69.1502 25.4141 69.2634 25.5092 69.3623 25.509C70.0267 25.5219 70.691 25.5076 71.3837 25.5069L71.3717 15.1636L69.1948 15.166C69.2544 17.7755 69.2998 20.3715 69.3594 22.981L69.3594 22.9674Z" fill="white"/>
<path d="M56.7403 1.84586C54.7459 0.747067 52.6538 0.68135 50.5061 1.44478C48.302 2.24906 46.8765 4.19419 46.865 6.45042C46.8671 8.2853 47.7313 9.90178 49.3297 10.9194C50.8433 11.8828 52.5116 12.1665 54.2924 11.9199C55.7623 11.7281 57.0338 11.1558 58.0645 10.1082C60.267 7.87679 60.0501 3.6636 56.7403 1.83227L56.7403 1.84586ZM57.2417 7.62178C56.8616 8.94059 55.8872 9.74354 54.5306 10.0848C53.1457 10.4261 51.8027 10.3188 50.5862 9.54534C49.3555 8.75834 48.8594 7.60358 48.9426 6.21714C49.0816 4.16465 50.7482 2.96679 52.5714 2.77456C52.7976 2.74713 53.0096 2.7469 53.1509 2.73316C54.4231 2.75898 55.5119 3.05683 56.361 3.89861C57.4365 4.95761 57.6359 6.2486 57.2276 7.63539L57.2417 7.62178Z" fill="white"/>
<path d="M42.4725 9.56762C42.1194 9.78547 41.7097 9.9626 41.2998 10.031C39.3496 10.3865 37.4693 10.1302 35.6732 9.33026C35.3903 9.19464 35.1074 9.05903 34.8104 8.92343C34.5425 9.46739 34.2887 9.99773 34.0348 10.5145C34.0773 10.5416 34.1056 10.5688 34.148 10.5823C36.114 11.6404 38.2348 12.0458 40.4822 11.9075C41.5705 11.8384 42.6304 11.6606 43.591 11.1023C44.5374 10.5576 45.0878 9.78229 45.1007 8.70853C45.0994 7.60761 44.5614 6.79268 43.5572 6.30446C42.9914 6.03323 42.3834 5.80282 41.7754 5.66756C40.6019 5.41057 39.386 5.24878 38.2125 5.00538C37.7459 4.91074 37.251 4.76176 36.8408 4.54473C36.2468 4.23276 36.2743 3.59392 36.8394 3.25353C37.0936 3.10375 37.3903 2.99469 37.6871 2.94001C38.9449 2.69401 40.2171 2.74702 41.4472 3.05831C42.1542 3.23424 42.8471 3.46456 43.5683 3.68125C43.808 3.1781 44.0477 2.66136 44.2874 2.14462C44.2167 2.10392 44.1742 2.07678 44.1318 2.06324C42.9014 1.48011 41.6147 1.1417 40.2434 1.03444C38.8863 0.940748 37.5435 0.982961 36.2578 1.48723C35.4948 1.78706 34.8451 2.24988 34.5067 2.99778C33.9004 4.30323 34.5381 5.70249 35.9948 6.32615C37.0979 6.80068 38.2713 6.97611 39.4448 7.17873C40.2507 7.31379 41.0424 7.46245 41.8342 7.66547C42.1736 7.74666 42.5131 7.93658 42.7678 8.16737C43.1781 8.5339 43.0517 9.21362 42.5008 9.54041L42.4725 9.56762Z" fill="white"/>
<path d="M108.982 11.6303C110.664 11.6285 112.36 11.6267 114.042 11.6249C114.254 11.6246 114.339 11.5702 114.325 11.3527C114.31 10.877 114.323 10.4149 114.323 9.89841L106.054 9.90727L106.051 7.13457L112.129 7.12806L112.127 5.40192L106.034 5.40844L106.032 2.97553L113.933 2.96707L113.931 1.26811L104.234 1.2785L104.246 11.6218C104.359 11.6216 104.458 11.6215 104.557 11.6214C106.027 11.6198 107.498 11.6183 108.953 11.6167L108.982 11.6303Z" fill="white"/>
<path d="M84.0893 23.7671C81.545 23.7699 79.0006 23.7726 76.4562 23.7753C76.2018 23.7756 76.1028 23.7213 76.1166 23.4495C76.1299 22.7427 76.115 22.0495 76.1142 21.3428L76.1137 20.9758L82.2343 20.9692L82.2324 19.2567L76.1259 19.2632L76.1231 16.8303L84.0106 16.8219L84.0086 15.1093L83.7118 15.1096C80.6868 15.1129 77.676 15.1161 74.651 15.1193C74.3683 15.1196 74.2977 15.2013 74.298 15.4595C74.3018 18.6943 74.3055 21.9291 74.3093 25.1775L74.3096 25.4766L84.4164 25.4657C84.4158 24.99 84.4012 24.5279 84.4148 24.0658C84.4145 23.8076 84.3296 23.7533 84.0893 23.7535L84.0893 23.7671Z" fill="white"/>
<path d="M45.4393 20.3698L43.3049 20.3721L43.3053 20.6847C43.3062 21.5138 43.3072 22.3565 43.3082 23.1856C43.3084 23.4167 43.2238 23.5391 43.0118 23.5937C42.6444 23.7028 42.2912 23.8255 41.9237 23.9074C40.7508 24.1533 39.5776 24.1954 38.4181 23.816C36.8767 23.3148 35.9707 22.1061 35.8981 20.4616C35.8257 18.9938 36.7005 17.6201 38.1417 17.0477C39.6393 16.4481 41.1519 16.5688 42.6368 17.0972C43.1741 17.2869 43.6692 17.599 44.2067 17.8567C44.5454 17.3806 44.884 16.891 45.251 16.3877C45.1802 16.3334 45.1519 16.3062 45.1095 16.2791C43.228 14.9763 41.1355 14.6252 38.8884 14.9538C37.5034 15.1591 36.2884 15.7177 35.3283 16.7109C32.787 19.3368 33.5834 23.5222 36.9212 25.136C38.18 25.7463 39.5231 25.9352 40.9082 25.8385C42.4489 25.7417 43.9043 25.3324 45.2605 24.5834C45.43 24.4881 45.5005 24.3793 45.5003 24.189C45.4989 22.993 45.4975 21.8105 45.4962 20.6144C45.4961 20.5329 45.496 20.4377 45.4817 20.3562L45.4393 20.3698Z" fill="white"/>
<path d="M105.636 15.3036C105.565 15.1542 105.48 15.0999 105.296 15.1001C104.745 15.1007 104.208 15.1149 103.657 15.1019C103.459 15.1021 103.374 15.1701 103.289 15.3333C101.752 18.3659 100.201 21.3985 98.6495 24.4175C98.4802 24.7575 98.311 25.0975 98.1277 25.4646C98.8344 25.4639 99.4988 25.4632 100.177 25.4624C100.262 25.4624 100.361 25.3671 100.403 25.2855C100.756 24.6191 101.108 23.9528 101.447 23.2864C101.532 23.1232 101.616 23.0552 101.828 23.0549C103.609 23.053 105.39 23.0511 107.172 23.0492C107.369 23.049 107.468 23.1169 107.553 23.2799C107.893 23.9455 108.248 24.6111 108.602 25.2767C108.644 25.3582 108.743 25.4669 108.828 25.4668C109.478 25.4797 110.143 25.4654 110.849 25.4646C110.736 25.2201 110.637 25.0299 110.538 24.8397C108.909 21.661 107.279 18.4823 105.65 15.3036L105.636 15.3036ZM102.406 21.301C103.097 19.9003 103.774 18.5268 104.479 17.099C105.187 18.5253 105.867 19.8974 106.562 21.2966L102.392 21.301L102.406 21.301Z" fill="white"/>
<path d="M70.39 9.70082C68.9064 10.2461 67.3799 10.37 65.8668 9.80081C64.4385 9.27226 63.5323 7.95484 63.5448 6.47333C63.5429 4.8967 64.4178 3.60455 65.8873 3.0729C67.6676 2.43219 69.3924 2.64781 71.0472 3.5159C71.3018 3.65154 71.5423 3.81439 71.811 3.9772C72.1638 3.47393 72.5167 2.98425 72.8836 2.45378C70.3798 0.852646 67.7501 0.434121 64.9666 1.47007C63.2711 2.0971 62.1275 3.28081 61.6348 4.98029C60.8182 7.79465 62.3197 10.5657 65.1762 11.5413C67.1559 12.2187 69.1489 12.1079 71.0988 11.4262C71.777 11.1944 72.3844 10.854 72.9635 10.4048C72.5953 9.90233 72.2414 9.39982 71.9157 8.95164C71.3789 9.21046 70.9128 9.49638 70.4041 9.68721L70.39 9.70082Z" fill="white"/>
<path d="M102.397 1.29406L91.6116 1.30561C91.6121 1.8085 91.6127 2.28421 91.6132 2.75992C91.6135 2.9502 91.6701 3.00451 91.868 3.0043C92.8009 3.0033 93.7338 3.0023 94.6668 3.0013C95.0767 3.00086 95.4866 3.00042 95.9389 2.99994L95.9394 3.3805C95.9424 6.01729 95.9455 8.64048 95.9485 11.2773C95.9486 11.3588 95.9346 11.4404 95.9488 11.5219C95.963 11.5763 96.0338 11.6441 96.0762 11.6441C96.7405 11.6434 97.4049 11.6427 98.0975 11.6419L98.0875 2.98404L102.385 2.97944L102.383 1.29407L102.397 1.29406Z" fill="white"/>
<path d="M114.735 23.7479C114.339 23.7483 114.339 23.7483 114.338 23.3542L114.329 15.1176L112.548 15.1195L112.56 25.4492L121.536 25.4396L121.534 23.7542C121.407 23.7543 121.308 23.7409 121.195 23.741C119.046 23.7433 116.883 23.7456 114.735 23.7479Z" fill="white"/>
<path d="M77.1511 1.3211L75.0308 1.32337L75.0428 11.653L77.1631 11.6508L77.1511 1.3211Z" fill="white"/>
</svg>
