<svg width="134" height="17" viewBox="0 0 134 17" fill="none" xmlns="http://www.w3.org/2000/svg">
<path d="M51.0945 0.795159C53.3894 0.986903 55.6841 1.06536 57.9624 1.38659C60.7265 1.77204 61.8342 3.66432 60.9495 6.25463C60.4153 7.84118 59.5123 9.12065 57.8382 9.78597C57.4364 9.94823 57.0514 10.1428 56.6831 10.3536C56.1475 10.6455 56.0642 11.034 56.3328 11.5839C56.8533 12.6515 57.3068 13.7515 57.8272 14.819C58.1463 15.4822 57.8953 15.6929 57.2253 15.6936C55.7848 15.6951 54.3276 15.6643 52.8872 15.6983C51.9325 15.7316 51.4295 15.2629 51.1103 14.4864C50.7576 13.6452 50.4551 12.7878 50.002 11.9953C49.2635 10.7014 47.2703 10.6712 46.5013 11.9505C45.9998 12.7926 45.5653 13.6832 45.1476 14.5737C44.78 15.3671 44.2948 15.7722 43.3232 15.7247C41.9497 15.6452 40.5763 15.6953 39.2028 15.7129C38.4156 15.7138 38.4152 15.3577 38.6825 14.791C40.2198 11.5688 41.7402 8.33051 43.2607 5.10836C43.645 4.28259 44.0125 3.45684 44.3633 2.61492C44.998 1.12536 45.1486 1.01191 46.9576 0.993793C48.331 0.992321 49.7045 0.99085 51.0779 0.989379C51.0779 0.924645 51.0778 0.876094 51.0777 0.81136L51.0945 0.795159ZM49.5126 8.88861C49.5126 8.88861 49.5631 9.05039 49.5799 9.1151C50.7185 8.77403 51.9241 8.5138 53.0123 8.04332C54.1507 7.55659 54.719 6.55261 54.7009 5.35505C54.7004 4.93427 54.482 4.38427 54.1467 4.09333C53.2748 3.34982 52.136 3.48051 51.0641 3.5302C50.143 3.57974 49.9763 4.34054 49.6588 4.93967C49.124 5.92744 48.6561 6.93132 48.1213 7.91909C47.8205 8.50202 47.9046 8.84178 48.6416 8.87336C48.9264 8.87305 49.2111 8.87275 49.5126 8.87242L49.5126 8.88861Z" fill="white"/>
<path d="M123.201 0.701737C125.496 0.893481 127.774 1.05288 130.069 1.29317C131.208 1.42142 132.063 2.08403 132.717 2.97342C133.422 3.94367 133.641 4.963 133.089 6.11262C132.221 7.97465 130.882 9.36787 128.923 10.163C128.086 10.5037 127.819 10.941 128.372 11.6848C128.406 11.7495 128.44 11.798 128.473 11.8627C128.977 13.0436 129.481 14.2406 130.002 15.4214C128.645 15.4714 127.288 15.5376 125.932 15.5876C125.496 15.5881 125.061 15.5886 124.625 15.589C123.989 15.6059 123.57 15.4122 123.334 14.7489C122.982 13.7621 122.445 12.8402 122.075 11.8696C121.806 11.1254 121.253 10.948 120.566 10.9973C119.813 11.0466 118.941 10.7239 118.49 11.6792C118.039 12.6345 117.454 13.5252 117.087 14.4966C116.803 15.2576 116.435 15.6464 115.547 15.6149C114.106 15.5679 112.666 15.618 111.209 15.5872C110.522 15.588 110.354 15.2321 110.638 14.6168C111.34 13.1596 111.992 11.7023 112.693 10.2451C113.963 7.58962 115.317 4.96645 116.52 2.29488C117.038 1.12911 117.824 0.788413 119.064 0.85182C120.438 0.931266 121.811 0.865061 123.184 0.86359C123.184 0.798856 123.184 0.734122 123.184 0.685571L123.201 0.701737ZM121.636 8.79517C121.636 8.79517 121.67 8.94078 121.703 9.02167C122.791 8.71301 123.897 8.46908 124.951 8.06336C125.939 7.6739 126.959 5.82788 126.79 5.00271C126.571 3.91865 125.666 3.43411 123.874 3.45221C123.723 3.45237 123.589 3.4687 123.439 3.45268C122.601 3.34029 122.099 3.74542 121.798 4.45781C121.264 5.67215 120.679 6.85417 120.195 8.08464C120.128 8.24654 120.396 8.69939 120.597 8.7801C120.899 8.89306 121.301 8.81171 121.653 8.81133L121.636 8.79517Z" fill="white"/>
<path d="M32.084 0.977358C33.9932 0.781111 35.7857 1.03813 37.4786 2.03969C39.272 3.0897 40.1956 5.17638 39.8295 7.19971C39.4134 9.46585 38.1089 11.1665 36.4189 12.6248C32.4365 16.0762 27.7475 16.8095 22.6879 15.7306C19.2869 15.006 18.1109 11.9809 18.878 9.06707C19.495 6.73599 20.9502 4.93806 22.925 3.54416C25.6362 1.66397 28.6667 0.673532 32.084 0.977358ZM27.0732 13.1527C28.3799 13.297 29.6355 12.7778 30.5054 11.8706C32.078 10.2343 33.1979 8.25874 33.7816 6.07334C34.2152 4.4869 33.0246 3.25822 31.3668 3.59985C29.9602 3.87648 28.5538 4.37968 27.8016 5.69135C26.8655 7.32688 25.9127 8.96244 25.1945 10.6948C24.4428 12.492 25.013 13.1387 27.0732 13.1365L27.0732 13.1527Z" fill="white"/>
<path d="M96.2348 15.6356C95.95 15.6359 95.6486 15.6363 95.3638 15.6366C93.2199 15.6389 93.1864 15.6389 92.9663 13.6162C92.8817 12.888 92.5297 12.6618 91.8597 12.6787C90.4193 12.6803 88.962 12.6171 87.5217 12.7158C87.036 12.7486 86.5339 13.1376 86.1156 13.4617C85.7809 13.7048 85.5803 14.1096 85.3127 14.4336C84.5935 15.3082 83.7231 15.8271 82.5002 15.6503C82.1484 15.6022 81.78 15.6673 81.4115 15.6515C80.574 15.5877 79.7531 15.4915 78.9155 15.3952C79.4005 14.715 79.8184 13.9863 80.3704 13.3546C81.7421 11.8318 83.1641 10.3576 84.5525 8.83489C86.7607 6.43737 88.9353 4.02369 91.1602 1.65852C91.5115 1.28592 92.1142 0.961605 92.6166 0.944884C94.5595 0.861885 96.5192 0.859786 98.4789 0.92242C99.6347 0.953549 99.9701 1.34159 99.9045 2.53924C99.8389 3.78544 99.5724 5.01568 99.5403 6.26184C99.476 8.55997 99.5122 10.8742 99.5148 13.1722C99.5179 15.8101 99.6852 15.6158 96.8712 15.6188C96.6535 15.619 96.4358 15.6192 96.218 15.6195L96.2348 15.6356ZM90.9691 10.1389C90.9691 10.1389 90.9691 10.1227 90.969 10.1065C91.4045 10.106 91.8569 10.1865 92.2587 10.0728C92.5266 9.99156 92.878 9.6837 92.9279 9.42471C93.1278 8.42112 93.2438 7.38525 93.3599 6.36556C93.3764 6.18753 93.2422 5.99347 93.1918 5.8155C93.0076 5.9128 92.79 5.97777 92.6561 6.10738C91.6524 7.19275 90.6654 8.2781 89.6952 9.37962C89.5614 9.52542 89.4779 9.71971 89.3776 9.89783C89.6289 9.97848 89.8636 10.0915 90.1148 10.1236C90.3996 10.1557 90.6843 10.123 90.9691 10.1227L90.9691 10.1389Z" fill="white"/>
<path d="M75.2474 0.931122C76.6208 0.929651 77.9942 0.879629 79.3678 0.942892C80.0713 0.974505 80.775 1.20032 81.4787 1.34522C81.6127 1.37744 81.8306 1.50668 81.8306 1.53904C81.6137 2.26753 81.4136 2.99601 81.0794 3.67607C80.9791 3.87038 80.4935 4.01655 80.2088 3.98449C78.8519 3.87266 77.4949 3.58281 76.1382 3.58426C74.8652 3.58563 73.5589 3.74886 72.3199 4.07386C71.1645 4.38258 71.0987 5.4184 72.1212 6.08083C72.5905 6.38781 73.1602 6.54904 73.6797 6.79123C74.9198 7.35633 76.2101 7.84045 77.3833 8.50272C79.4616 9.68189 79.7324 12.0282 77.9419 13.5514C77.1555 14.2157 76.168 14.8318 75.1801 15.1079C73.4722 15.5791 71.6804 15.9209 69.905 16.0199C67.108 16.1685 64.2941 16.1715 61.4964 15.6567C60.1059 15.3992 59.9885 15.3346 60.5063 14.1041C61.1578 12.5498 61.2249 12.6306 62.8665 12.8069C64.9437 13.0151 67.0374 13.0128 69.1144 13.0591C69.4494 13.0588 69.8177 12.9127 70.1357 12.7667C71.0062 12.3289 71.089 11.471 70.2509 10.9864C69.2621 10.4211 68.1896 9.98526 67.1672 9.4523C66.4131 9.06471 65.6254 8.67715 64.9381 8.17619C62.5912 6.46326 63.0071 4.00292 65.367 2.54387C67.091 1.4901 69.0837 1.03483 71.1102 0.91937C72.4836 0.853165 73.8572 0.916428 75.2306 0.914957L75.2474 0.931122Z" fill="white"/>
<path d="M13.4583 0.77074C14.9325 1.01191 16.4235 1.18834 17.8978 1.51043C18.4339 1.62314 18.9368 1.99482 19.3894 2.318C19.8923 2.68969 20.2111 3.15867 19.4244 3.61265C19.1733 3.75857 18.9726 3.95298 18.755 4.13124C17.5837 5.11968 17.6005 5.10348 16.1089 4.39301C13.7962 3.31119 12.0379 3.60438 10.1973 5.2247C8.77508 6.48853 7.72153 7.93 7.25464 9.74305C7.12127 10.2772 7.02141 10.8276 7.0053 11.3779C7.00668 12.5754 7.3925 13.0767 8.61525 13.1078C9.60349 13.1229 10.6082 12.9114 11.5794 12.7C12.199 12.5537 12.7681 12.2132 13.354 11.9537C14.8105 11.3048 16.4361 12.1122 16.6892 13.6655C16.7229 13.8759 16.3716 14.297 16.1205 14.3944C14.6472 14.9462 13.1908 15.676 11.6669 15.8881C9.54002 16.1655 7.32922 16.2811 5.21844 15.9921C2.63861 15.6388 0.693912 14.1196 0.121412 11.5147C-0.282657 9.71876 0.485906 8.06721 1.4389 6.57731C3.72944 2.9983 7.21138 1.31149 11.4821 0.983242C12.1353 0.933992 12.7886 0.981843 13.4251 0.981161C13.425 0.916427 13.4417 0.851675 13.4583 0.77074Z" fill="white"/>
<path d="M103.923 15.6274C103.203 15.6282 102.482 15.6613 101.762 15.6297C100.874 15.5821 100.757 15.388 101.124 14.5785C101.826 13.0565 102.545 11.5344 103.263 10.0124C104.349 7.74557 105.418 5.44637 106.555 3.21183C107.842 0.685822 107.373 0.929077 110.237 0.909825C111.175 0.908821 112.113 0.907816 113.051 0.939178C113.587 0.954788 113.822 1.22966 113.605 1.78013C113.421 2.23346 113.304 2.70291 113.087 3.15628C111.316 6.89657 109.511 10.6045 107.774 14.3448C107.339 15.2839 106.754 15.8024 105.648 15.6579C105.078 15.5938 104.492 15.6592 103.923 15.6598L103.923 15.6274Z" fill="white"/>
</svg>
