<svg width="70" height="29" viewBox="0 0 70 29" fill="none" xmlns="http://www.w3.org/2000/svg">
<path d="M0.0037081 12.921C0.107434 12.7571 0.225984 12.604 0.311187 12.433C0.433435 12.1908 0.526033 11.9307 0.644577 11.685C0.829801 11.3038 1.09653 11.0082 1.55218 10.9227C1.68184 10.8977 1.8115 10.8443 1.88188 11.0295C1.92263 11.1364 2.14118 11.1079 2.21527 11.0153C2.43754 10.7375 2.54869 10.4276 2.5524 10.0714C2.70428 10.0785 2.84134 10.0785 2.98211 10.0927C3.08954 10.1034 3.12288 10.0678 3.12659 9.9645C3.1377 9.61186 3.15623 9.25566 3.18216 8.90303C3.20068 8.66081 3.26364 8.42572 3.41552 8.22625C3.4748 8.14788 3.5526 8.0802 3.65262 7.98047C3.74893 8.16569 3.84154 8.31173 3.90452 8.47202C4.39722 9.69022 5.09367 10.7873 6.04572 11.7206C6.2754 11.945 6.54212 12.1551 6.83107 12.3012C7.17188 12.4757 7.54603 12.6039 7.91648 12.7037C8.32027 12.8105 8.73888 12.7535 9.15008 12.7037C9.75762 12.636 10.3652 12.5398 10.9764 12.5149C11.7654 12.4864 12.21 12.8889 12.3248 13.6405C12.3434 13.7545 12.3804 13.8685 12.4211 13.9789C12.5434 14.3137 12.4915 14.6343 12.3396 14.9442C12.1507 15.3253 11.8729 15.6459 11.5506 15.9273C11.3209 16.1303 11.069 16.3156 10.8282 16.5079C10.3022 16.9247 9.67983 17.1099 9.01673 17.1989C8.60923 17.2559 8.20913 17.3735 7.79794 17.4091C7.32006 17.4483 6.83476 17.4625 6.35689 17.4198C5.39742 17.3379 4.48613 17.0671 3.61558 16.6718C2.4783 16.1553 1.45587 15.4892 0.677927 14.5203C0.374159 14.1427 0.144477 13.7295 0.0481601 13.2522C0.0333422 13.1774 0.0148179 13.0991 0 13.0243C0 12.9886 0 12.953 0 12.9174L0.0037081 12.921Z" fill="white"/>
<path d="M69.9962 12.7625C69.222 12.7518 68.4477 12.7375 67.6735 12.7304C66.9178 12.7233 66.1621 12.7304 65.4064 12.7304C65.3767 12.7304 65.3434 12.734 65.3026 12.7375V15.2096H69.4628V17.4287H65.31V22.6328H61.9501V10.4365C61.9797 10.4365 62.0205 10.4258 62.0575 10.4258C64.6877 10.4258 67.3142 10.4258 69.9444 10.4258C69.9629 10.4258 69.9814 10.4258 69.9999 10.4258V12.766L69.9962 12.7625Z" fill="white"/>
<path d="M45.7577 19.0794C46.1948 19.8131 46.6245 20.5362 47.0691 21.2807C46.8246 21.4303 46.5875 21.5835 46.343 21.7188C45.4502 22.2139 44.4833 22.5096 43.4683 22.6663C42.6756 22.791 41.8754 22.8444 41.0715 22.823C39.9935 22.791 38.9748 22.5523 38.0672 21.961C37.2188 21.4054 36.6409 20.6467 36.2557 19.7419C35.9075 18.9226 35.7519 18.0642 35.7074 17.1844C35.6556 16.1942 35.7185 15.2146 35.963 14.2493C36.2112 13.2769 36.641 12.3935 37.3781 11.6668C38.1413 10.9153 39.0822 10.4771 40.1454 10.2812C41.3456 10.0604 42.5422 10.1067 43.7091 10.4522C45.1316 10.8761 46.0652 11.7951 46.5875 13.1237C46.9061 13.9358 47.0431 14.78 47.0802 15.642C47.1024 16.1265 47.0987 16.6145 47.1061 17.0989C47.1061 17.1452 47.1061 17.1915 47.1061 17.2699C46.8727 17.2699 46.6579 17.2699 46.4393 17.2699C45.0057 17.2806 43.5683 17.2877 42.1347 17.3055C41.2419 17.3162 40.3491 17.3411 39.4564 17.3554C39.3526 17.3554 39.3267 17.391 39.3267 17.4872C39.3119 18.9333 40.3417 20.0447 41.8383 20.1515C43.2201 20.2513 44.4907 19.9129 45.6354 19.1577C45.6725 19.1328 45.7095 19.1114 45.7614 19.0758L45.7577 19.0794ZM43.5239 15.2217C43.5239 14.6839 43.5091 14.1745 43.2979 13.6901C43.0756 13.1807 42.683 12.8565 42.1236 12.7461C41.8532 12.6927 41.5716 12.6749 41.2975 12.6891C40.6047 12.7283 40.0528 13.024 39.7268 13.6259C39.5786 13.8967 39.4897 14.203 39.4082 14.4986C39.3452 14.723 39.3415 14.9617 39.3045 15.2182H43.5239V15.2217Z" fill="white"/>
<path d="M49.0029 10.4272C49.0585 10.4272 49.0956 10.4201 49.1363 10.4201C50.9774 10.4201 52.8186 10.4058 54.656 10.4308C55.9377 10.4486 57.1269 10.7834 58.1567 11.5492C59.1051 12.2545 59.683 13.1913 60.0053 14.2884C60.2646 15.1753 60.3238 16.0801 60.2683 16.9955C60.2201 17.7899 60.0756 18.5664 59.7608 19.3073C59.1125 20.8389 57.9159 21.79 56.2971 22.2744C55.3932 22.5451 54.4633 22.6342 53.5224 22.6378C52.0591 22.6413 50.5959 22.6378 49.1363 22.6378C49.0956 22.6378 49.0548 22.6377 49.0029 22.6306V10.4236V10.4272ZM52.3184 20.3581C53.0112 20.3224 53.678 20.3296 54.3337 20.2476C55.4413 20.1087 56.2193 19.5246 56.5712 18.4916C56.9713 17.3197 57.0083 16.1228 56.7046 14.9296C56.3638 13.6045 55.4154 12.828 53.9966 12.6819C53.5002 12.6321 52.9964 12.6463 52.4963 12.6356C52.3222 12.6321 52.3184 12.6356 52.3184 12.8066C52.3184 15.2537 52.3184 17.7044 52.3184 20.1515C52.3184 20.2013 52.3184 20.2548 52.3184 20.3545V20.3581Z" fill="white"/>
<path d="M16.1516 10.4664C16.0553 10.4877 15.9034 10.5376 15.7478 10.5554C15.244 10.6088 14.7402 10.5946 14.2512 10.445C14.1253 10.4058 14.0252 10.3417 13.9586 10.2277C13.8252 9.99618 13.6437 9.80739 13.4251 9.64354C13.1954 9.47256 13.0176 9.24459 12.7916 9.06293C12.5842 8.89908 12.4249 8.70318 12.2767 8.49302C11.8878 7.93735 11.4877 7.3888 11.1024 6.83312C11.0542 6.76544 11.0394 6.66214 11.0468 6.58021C11.0543 6.45198 11.095 6.32375 11.1098 6.19196C11.1172 6.13496 11.1209 6.06372 11.095 6.01386C10.8468 5.58641 10.8431 5.13048 10.9394 4.67455C11.0913 3.93721 11.4284 3.27112 11.9433 2.70476C12.3545 2.25595 12.7768 1.8107 13.2288 1.40107C13.6326 1.03418 14.1253 0.806209 14.6809 0.720721C14.7402 0.710035 14.8069 0.713593 14.8662 0.727841C15.1218 0.791957 15.3774 0.848952 15.6256 0.930878C15.859 1.00568 16.0775 0.952252 16.2961 0.898821C17.1704 0.677977 18.0409 0.446446 18.9115 0.218477C19.2152 0.140113 19.519 0.065305 19.8376 0.100925C19.9191 0.111611 20.008 0.140111 20.0784 0.182855C20.2525 0.300401 20.2525 0.52837 20.071 0.628106C19.9117 0.717156 19.7302 0.770584 19.5635 0.848948C19.3856 0.927312 19.2004 0.994991 19.0448 1.10541C18.9152 1.19803 18.8188 1.34051 18.7188 1.46518C18.6373 1.56848 18.5855 1.68959 18.5003 1.78932C18.2372 2.1099 18.1224 2.48748 18.0779 2.88286C18.0187 3.3851 17.989 3.89446 17.9557 4.40027C17.9557 4.44301 18.0039 4.49645 18.0446 4.5285C18.3373 4.74579 18.5781 5.00581 18.7003 5.34776C18.7262 5.41544 18.7151 5.51161 18.6818 5.57929C18.504 5.92837 18.4262 6.30594 18.3447 6.68351C18.178 7.45647 18.0631 8.24011 17.7964 8.9917C17.6667 9.35858 17.5038 9.70766 17.2407 10.0069C16.9703 10.3132 16.6295 10.4664 16.1553 10.4699L16.1516 10.4664Z" fill="white"/>
<path d="M3.86743 22.897C3.9267 22.929 3.95634 22.9433 3.98598 22.9611C4.54165 23.3707 5.17512 23.5773 5.86415 23.6272C7.49783 23.7518 8.97593 23.3244 10.3132 22.4232C10.8245 22.0777 11.1986 21.6075 11.5542 21.1231C11.7432 20.8631 11.9284 20.5959 12.1062 20.3252C12.1988 20.1863 12.3174 20.0865 12.4692 20.0153C12.7248 19.8942 12.9767 19.766 13.2324 19.6449C13.2842 19.6199 13.3472 19.6164 13.4065 19.6164C13.5917 19.6092 13.7806 19.5914 13.9659 19.6092C14.2289 19.6342 14.4326 19.7695 14.5697 19.9904C14.7883 20.3395 14.8957 20.7277 14.9809 21.1231C15.155 21.9424 15.2106 22.7723 15.1365 23.6022C15.0994 24.0368 15.0105 24.4678 14.9105 24.8917C14.7845 25.4189 14.4549 25.8534 14.1066 26.2666C13.814 26.6121 13.5028 26.9434 13.1657 27.2533C13.0138 27.3922 12.7989 27.4813 12.5989 27.5454C12.284 27.6451 11.9914 27.7662 11.7135 27.9443C11.3468 28.1759 10.9541 28.3611 10.517 28.4323C10.2577 28.4751 10.0021 28.4608 9.74274 28.4323C9.53529 28.4074 9.31673 28.4252 9.10558 28.4323C8.93147 28.4394 8.76106 28.4644 8.59065 28.4715C8.52397 28.4715 8.45357 28.4573 8.3943 28.4323C8.18315 28.3504 7.97569 28.2613 7.76824 28.1687C7.52004 28.0548 7.26444 28.1545 7.01624 28.1474C6.99772 28.1474 6.97919 28.1545 6.96067 28.1545C6.59763 28.1972 6.59393 28.2008 6.47909 27.8695C6.44945 27.7876 6.41241 27.7591 6.32351 27.7662C6.13458 27.7805 5.94193 27.784 5.753 27.8018C5.64557 27.8125 5.5752 27.7734 5.53074 27.6879C5.45665 27.5489 5.38256 27.4065 5.31958 27.264C5.22697 27.0503 5.0788 26.9007 4.86023 26.8009C4.62314 26.6941 4.53423 26.5124 4.57869 26.2702C4.63425 25.9745 4.56757 25.686 4.50459 25.4011C4.36012 24.7741 4.20453 24.1508 4.04524 23.5274C3.99708 23.328 3.93411 23.1356 3.86743 22.9005V22.897Z" fill="white"/>
<path d="M28.1281 16.539C28.1022 16.4428 28.0725 16.3573 28.0614 16.2683C27.9947 15.8266 27.728 15.4989 27.3872 15.2211C26.9315 14.8506 26.3907 14.6476 25.8276 14.498C25.1978 14.3306 24.557 14.2308 23.905 14.2059C23.2271 14.1774 22.5491 14.1525 21.8712 14.1596C21.2674 14.1667 20.6636 14.2166 20.056 14.2415C20.0005 14.2415 19.9338 14.2166 19.8893 14.1774C19.6226 13.953 19.5189 13.6467 19.4485 13.3261C19.3114 12.6849 19.63 12.2397 20.1153 11.8656C20.8266 11.3171 21.6304 10.936 22.4899 10.6474C23.3456 10.3589 24.231 10.1737 25.1312 10.0918C25.7609 10.0348 26.3944 9.98491 27.0242 9.99559C28.28 10.0098 29.5062 10.1986 30.6434 10.7507C32.0548 11.4347 32.8809 12.5282 33.1291 14.0278C33.1403 14.0919 33.1477 14.156 33.1551 14.2237C33.1662 14.3306 33.1403 14.4196 33.0847 14.5193C32.9884 14.6939 32.9069 14.8862 32.8772 15.0786C32.8217 15.4419 32.6031 15.6271 32.2512 15.6948C31.9956 15.7447 31.7548 15.8693 31.4806 15.8408C31.4584 15.8408 31.4103 15.8978 31.4066 15.9335C31.3917 16.0474 31.4695 16.1864 31.3251 16.2647C31.2176 16.3217 31.0991 16.3787 30.9806 16.4072C30.6842 16.4784 30.3841 16.5319 30.0878 16.5889C29.7803 16.6494 29.4802 16.5924 29.1839 16.5354C28.6541 16.4321 28.6541 16.4321 28.1281 16.5354V16.539Z" fill="white"/>
<path d="M26.3389 28.6682C26.1055 28.7252 25.9129 28.6005 25.698 28.4081C24.9423 27.7207 24.1125 27.1187 23.1901 26.645C23.0456 26.5702 22.8678 26.563 22.7159 26.4989C22.5233 26.417 22.3307 26.3244 22.1566 26.214C22.0936 26.1748 22.0899 26.0572 22.0491 25.9789C21.9862 25.8684 22.101 25.8293 22.1343 25.7545C22.2047 25.587 22.2825 25.4161 22.3158 25.2415C22.3529 25.0634 22.3825 24.864 22.3381 24.693C22.2529 24.3617 22.2973 24.0233 22.238 23.6956C22.2269 23.6244 22.164 23.5638 22.1232 23.4961C22.0713 23.4107 22.0121 23.3252 21.9713 23.2361C21.8972 23.0758 21.838 22.9084 21.7713 22.7481C21.6898 22.5593 21.5861 22.3919 21.4157 22.2494C21.2193 22.0785 21.06 21.8612 20.9081 21.651C20.7155 21.3803 20.4821 21.1666 20.1969 20.9921C19.9376 20.8353 19.6745 20.6857 19.4412 20.4969C19.23 20.3295 19.0485 20.1229 18.867 19.9235C18.7744 19.8237 18.7781 19.7097 18.8559 19.5851C18.9929 19.3713 19.1559 19.1932 19.3893 19.0686C19.5745 18.9688 19.7486 18.8477 19.9376 18.7516C20.0043 18.7159 20.0932 18.7124 20.171 18.7159C20.8452 18.7622 21.5083 18.8691 22.1528 19.0579C24.5126 19.7489 26.539 20.9457 28.1689 22.7339C28.9246 23.5638 29.51 24.4935 29.7767 25.5799C29.8582 25.9183 29.8804 26.2709 29.9286 26.6165C29.9323 26.6521 29.9286 26.6984 29.9137 26.7304C29.8248 26.9299 29.7248 27.1258 29.6396 27.3289C29.5359 27.5818 29.3618 27.7171 29.0728 27.7171C28.7802 27.7171 28.532 27.8596 28.2838 27.9914C28.1319 28.0733 27.9874 28.1624 27.8429 28.255C27.3132 28.5898 27.028 28.6717 26.3352 28.6646L26.3389 28.6682Z" fill="white"/>
</svg>
