<svg width="134" height="20" viewBox="0 0 134 20" fill="none" xmlns="http://www.w3.org/2000/svg">
<path d="M60.8584 1.6286C58.2583 0.77801 55.6116 0.750368 52.9339 1.30183C51.3178 1.63882 49.8604 2.26517 48.6573 3.37889C45.9501 5.88094 45.4941 9.00538 46.1002 12.342C46.6265 15.1911 48.3088 17.2465 51.0995 18.4169C52.7326 19.1009 54.4445 19.3429 56.2195 19.3105C56.4731 19.3103 56.7425 19.31 56.9961 19.3097C60.3874 19.1537 63.4134 18.2361 65.3118 15.293C66.9571 12.7464 67.0806 9.95754 66.3008 7.12396C65.5369 4.36656 63.6646 2.52468 60.8584 1.61336L60.8584 1.6286ZM61.4423 13.1028C60.6367 15.4047 58.5145 16.7175 55.9469 16.5678C53.411 16.4182 51.5233 14.8963 50.9659 12.5349C50.7907 11.7884 50.7422 11.0265 50.6303 10.1275C50.7403 9.36549 50.7868 8.46635 51.0077 7.61274C51.6705 5.15859 53.6499 3.72403 56.249 3.72124C58.9115 3.71839 60.8624 5.08779 61.5468 7.5405C62.0719 9.38383 62.0741 11.2734 61.4264 13.1028L61.4423 13.1028Z" fill="white"/>
<path d="M83.4684 10.4581C84.9254 9.61841 86.2556 8.67218 86.9511 7.11708C87.5202 5.83641 87.392 4.66317 86.3923 3.59752C85.472 2.60799 84.2828 2.07591 82.9829 1.84872C79.0517 1.15194 75.09 1.4762 71.128 1.51092C71.1122 1.51094 71.0805 1.54145 71.0488 1.55673L71.0688 18.7765L75.9025 18.7713L75.8855 4.09642C77.4229 4.1862 78.881 4.26084 80.3392 4.36595C80.6086 4.3809 80.894 4.48726 81.1635 4.57841C82.4953 5.04938 82.8928 6.10043 82.0858 7.22896C81.7219 7.71699 81.2311 8.17468 80.7085 8.49526C79.9483 8.95323 79.1087 9.27415 78.3009 9.65598C78.1267 9.7476 77.889 9.80881 77.7941 9.9613C77.5093 10.4188 77.8442 12.1404 78.2408 12.5209C80.3668 14.4997 82.4927 16.4632 84.6345 18.4267C84.7932 18.5789 85.0152 18.7463 85.2054 18.7461C87.1073 18.7746 88.9932 18.7421 91.0376 18.7399C88.1818 16.0609 85.4212 13.4885 82.5972 10.8552C82.9456 10.672 83.1991 10.5651 83.4366 10.4277L83.4684 10.4581Z" fill="white"/>
<path d="M109.893 1.40845C108.593 1.22697 107.309 0.938811 106.009 0.833532C102.475 0.547781 99.0521 0.947656 95.9638 2.76438C93.3347 4.32155 91.8001 6.57853 91.7243 9.58065C91.6181 13.6648 94.1417 16.8927 98.3589 18.2292C102.338 19.4897 106.364 19.2416 110.452 18.521L110.441 9.51488L105.718 9.51994L105.726 16.4688C104.3 16.318 102.937 16.2889 101.637 15.9856C98.8627 15.318 97.2282 13.4759 96.7813 10.8096C96.3504 8.18896 97.4574 6.11531 99.7378 4.64994C101.67 3.41353 103.857 3.31976 106.06 3.63741C107.503 3.84921 108.914 4.22867 110.451 4.56227C110.45 3.72414 110.433 2.88603 110.448 2.04788C110.448 1.65167 110.321 1.46894 109.909 1.40843L109.893 1.40845Z" fill="white"/>
<path d="M133.336 18.4508C130.62 12.9068 127.888 7.36277 125.139 1.83404C125.028 1.62081 124.648 1.42312 124.378 1.40817C123.633 1.34801 122.889 1.44024 122.144 1.38008C121.525 1.33503 121.24 1.57915 121.003 2.09753C119.201 5.89391 117.351 9.6751 115.517 13.4715C114.679 15.1944 113.857 16.9173 112.956 18.7774C114.351 18.7759 115.555 18.7593 116.759 18.7733C117.219 18.7728 117.457 18.6354 117.63 18.2238C118.136 17.0651 118.705 15.9216 119.227 14.7628C119.401 14.3817 119.623 14.1986 120.082 14.1981C122.143 14.2264 124.203 14.1937 126.263 14.222C126.533 14.2217 126.913 14.4803 127.04 14.724C127.644 15.8663 128.168 17.0543 128.74 18.2119C128.835 18.4099 129.058 18.6839 129.232 18.699C130.611 18.7432 131.99 18.7113 133.416 18.7097C133.368 18.5422 133.368 18.4812 133.336 18.4203L133.336 18.4508ZM120.333 11.6834C121.234 9.67095 122.103 7.71945 123.02 5.67648C123.91 7.71752 124.768 9.65192 125.658 11.6777L120.333 11.6834Z" fill="white"/>
<path d="M0.0208444 18.8526L4.83873 18.8475L4.83015 11.4414L14.561 11.431C14.5602 10.6995 14.5277 10.0595 14.5587 9.41949C14.6055 8.84036 14.4152 8.6577 13.7971 8.65836C11.3565 8.69145 8.89995 8.66361 6.45931 8.66622C5.34993 8.66741 4.79462 8.13465 4.79338 7.06794C4.79231 6.13837 4.79123 5.20881 4.79006 4.20305L15.6303 4.19144L15.6272 1.55514L0.00082323 1.57188L0.0208444 18.8526Z" fill="white"/>
<path d="M37.3076 15.1401C37.3037 11.7724 37.2998 8.40461 37.2959 5.05208C37.2948 4.06156 37.3095 3.07103 37.2925 2.08052C37.2923 1.88242 37.1175 1.51688 37.0224 1.50174C35.5168 1.47288 34.0112 1.47449 32.4898 1.47612L32.5098 18.7873L44.9824 18.774L44.9793 16.0767L37.3087 16.0849L37.3076 15.1401Z" fill="white"/>
<path d="M20.4334 18.8155L25.2355 18.8104L25.2155 1.5601L20.4134 1.56525L20.4334 18.8155Z" fill="white"/>
</svg>
