<svg width="156" height="35" viewBox="0 0 156 35" fill="none" xmlns="http://www.w3.org/2000/svg">
<path d="M7.24533 17.3254C7.5316 16.4418 8.00478 15.7075 8.82299 15.2038C9.95698 14.496 11.1635 14.3995 12.3851 14.9554C13.6212 15.5112 14.2974 16.4754 14.4282 17.7662C14.4283 17.8749 14.4284 17.9836 14.4286 18.0787C14.4346 23.2563 14.4405 28.4202 14.4465 33.5977C14.4467 33.72 14.4468 33.8423 14.4471 34.0733C13.8437 33.9924 13.269 33.9523 12.7087 33.8306C9.51886 33.1002 7.26044 30.3711 7.2425 27.2864C7.24077 25.7916 7.23902 24.2832 7.23729 22.7883C7.23715 22.666 7.23699 22.5302 7.23685 22.4078C6.93713 24.0797 6.16309 25.5074 4.81413 26.6503C3.46515 27.7797 1.8857 28.3521 0.0326695 28.3677C0.0324806 28.2046 0.0323231 28.0687 0.0321814 27.9464C0.0240888 20.9615 0.016012 13.9902 0.0079194 7.00533C0.0179229 3.24108 3.16036 0.275251 6.99561 0.162428C7.05307 0.162367 7.11053 0.162305 7.21108 0.162198C7.2144 3.02954 7.21771 5.88328 7.22101 8.73703C7.22432 11.5908 7.22764 14.4581 7.23096 17.3255L7.24533 17.3254Z" fill="white"/>
<path d="M21.6299 28.251C19.9796 28.2392 18.5297 27.7934 17.2945 26.8728C16.763 26.4667 16.3033 25.9656 15.8435 25.4916C15.7142 25.3562 15.6421 25.1122 15.6419 24.9224C15.6393 22.672 15.6224 20.4216 15.6341 18.1576C15.6328 17.0188 15.3015 16.0024 14.5543 15.1085C14.4681 15.0137 14.4248 14.8646 14.4247 14.7426C14.4192 9.9706 14.4136 5.19862 14.4081 0.426644C14.408 0.345303 14.4079 0.263963 14.4221 0.155493C15.2114 0.141091 15.9578 0.262303 16.6899 0.491984C19.6615 1.43777 21.6161 3.99791 21.6196 6.96684C21.6276 13.9215 21.6357 20.8896 21.6438 27.8443C21.6439 27.9663 21.6441 28.0883 21.6442 28.251L21.6299 28.251Z" fill="white"/>
<path d="M107.297 23.4441C106.104 22.3097 106.121 21.6108 107.349 20.0021C107.33 19.9672 107.312 19.9148 107.293 19.8973C105.677 18.8332 105.455 16.8766 105.912 15.3561C106.278 14.1676 107.194 13.5027 108.386 13.117C109.707 12.6963 111.083 12.6599 112.441 12.8855C113.542 13.0765 114.625 13.0055 115.726 12.9869C116.313 12.9862 116.882 12.9856 117.505 12.9849L117.508 15.2738C116.939 15.2394 116.37 15.2051 115.691 15.1709C116.206 15.8692 116.244 16.5855 116.189 17.3369C116.081 18.8046 115.33 19.7314 113.862 20.1873C112.707 20.538 111.514 20.5917 110.303 20.5056C109.771 20.4712 109.753 20.7857 109.698 21.0828C109.589 21.5547 109.718 21.8516 110.14 21.9035C110.782 21.9902 111.443 21.9895 112.103 22.0587C113.241 22.1623 114.379 22.1785 115.498 22.4045C116.874 22.6826 117.573 23.5903 117.556 24.9357C117.557 25.5647 117.466 26.2113 117.246 26.8055C116.899 27.7494 116.055 28.257 115.102 28.59C113.653 29.0807 112.148 29.1697 110.625 29.084C109.634 29.0326 108.625 28.8939 107.689 28.6503C105.101 27.9542 105.135 25.3334 106.619 24.0564C106.858 23.8464 107.114 23.6365 107.353 23.444L107.297 23.4441ZM110.961 18.3209C112.337 18.3194 112.997 17.6198 112.812 16.3446C112.701 15.5759 112.15 15.1572 111.178 15.0884C110.077 15.0196 109.325 15.3874 109.105 16.1389C108.74 17.4497 109.475 18.34 110.943 18.3384L110.961 18.3209ZM111.356 26.7245C111.356 26.7245 111.356 26.6721 111.356 26.6371C111.686 26.6368 112.017 26.6714 112.329 26.6361C112.751 26.5657 113.172 26.4779 113.558 26.3203C113.979 26.1451 114.144 25.7256 114.07 25.3413C113.996 24.9395 113.684 24.7826 113.299 24.7655C112.18 24.6794 111.06 24.6107 109.941 24.542C109.39 24.5077 108.969 24.875 108.841 25.4867C108.75 25.976 108.952 26.3427 109.539 26.4818C110.127 26.621 110.732 26.6727 111.338 26.742L111.356 26.7245Z" fill="white"/>
<path d="M35.7138 17.9472L35.7209 24.0974L32.2897 24.101L32.2724 9.16253L35.6852 9.15887L35.6923 15.2216L42.0041 15.2149L41.9971 9.15211L45.4283 9.14844L45.4456 24.1044L42.0511 24.108L42.044 17.9579L35.7138 17.9647L35.7138 17.9472Z" fill="white"/>
<path d="M144.289 8.5708L147.629 8.56722L147.634 13.2672C148.019 13.1445 148.331 13.0568 148.643 12.9691C149.798 12.6184 150.973 12.5997 152.147 12.8605C153.689 13.1908 154.626 14.1333 155.031 15.5655C155.529 17.3646 155.567 19.1991 155.111 20.9992C154.654 22.8867 153.389 23.9538 151.206 24.1309C149.482 24.255 147.738 24.1346 146.014 24.1365C145.463 24.137 144.913 24.0503 144.307 23.9985L144.289 8.5708ZM147.644 21.5489C148.488 21.548 149.277 21.5995 150.047 21.5463C151.075 21.4578 151.606 20.968 151.825 20.0069C152.081 18.9408 152.061 17.875 151.785 16.827C151.545 15.8838 150.884 15.3603 149.857 15.3789C149.251 15.3795 148.646 15.52 148.04 15.573C147.728 15.6083 147.618 15.7482 147.637 16.0452C147.639 17.5303 147.641 19.0329 147.642 20.518C147.643 20.8325 147.643 21.1645 147.644 21.5663L147.644 21.5489Z" fill="white"/>
<path d="M58.3448 24.3352C57.4641 24.3711 56.6199 24.2147 55.8488 23.7962C55.6101 23.6567 55.4267 23.6744 55.1699 23.762C53.7026 24.3052 52.18 24.5689 50.6017 24.2736C49.1886 24.013 48.3069 23.1928 48.0851 21.8302C47.9743 21.1839 47.9919 20.5025 48.0645 19.8559C48.1918 18.8424 48.8332 18.1603 49.8236 17.8448C50.4472 17.6344 51.1076 17.4939 51.7681 17.4234C52.8321 17.2999 53.8963 17.2638 55.0522 17.1752C55.0149 16.7385 54.9961 16.3366 54.9223 15.9523C54.8301 15.5331 54.4446 15.3763 54.0409 15.3592C53.0501 15.3603 52.0776 15.3613 51.0868 15.3973C50.3713 15.4156 49.6374 15.4688 48.8301 15.5046L48.8276 13.3905C49.5798 13.2499 50.3869 13.0394 51.2125 12.9861C52.4967 12.8799 53.7994 12.7911 55.0839 12.8771C57.1941 13.0146 58.2779 14.0967 58.3353 16.1583C58.4118 18.8315 58.3599 21.5047 58.363 24.1779C58.363 24.2129 58.3447 24.2478 58.3265 24.3177L58.3448 24.3352ZM55.0362 19.2719C54.4124 19.325 53.8437 19.3605 53.2749 19.4135C52.9264 19.4489 52.5594 19.4667 52.2292 19.5544C51.5689 19.7299 51.276 20.3242 51.387 21.0579C51.4794 21.6693 51.8835 22.0183 52.5807 21.9652C53.3329 21.912 54.0667 21.7714 54.8188 21.6483C54.9105 21.6482 55.0388 21.4733 55.0387 21.386C55.0562 20.7046 55.0371 20.0406 55.0363 19.2893L55.0362 19.2719Z" fill="white"/>
<path d="M137.804 17.0691L137.84 16.9992C137.949 15.5664 137.618 15.2173 136.113 15.2538C134.664 15.2903 133.214 15.3618 131.692 15.4158C131.654 14.7869 131.617 14.1579 131.598 13.529C131.598 13.4591 131.708 13.3366 131.799 13.3191C133.927 12.8276 136.074 12.5108 138.276 12.8404C140.166 13.1179 141.158 14.1826 141.178 15.9997C141.218 18.6729 141.185 21.3461 141.188 24.0193C141.188 24.0892 141.188 24.1416 141.151 24.2465C140.252 24.2649 139.426 24.1086 138.637 23.7076C138.472 23.6204 138.196 23.6032 138.013 23.6733C136.527 24.199 135.023 24.4802 133.445 24.1849C131.958 23.9069 131.113 23.1216 130.892 21.7066C130.781 21.0952 130.798 20.4312 130.889 19.8021C131.017 18.7886 131.658 18.0716 132.667 17.756C133.29 17.5457 133.951 17.4227 134.611 17.3346C135.602 17.2112 136.593 17.1927 137.583 17.1043C137.657 17.1042 137.73 17.0692 137.785 17.0517L137.804 17.0691ZM137.861 19.1482C136.889 19.2541 135.971 19.29 135.091 19.4482C134.412 19.5712 134.101 20.1656 134.212 20.9168C134.304 21.5631 134.69 21.9122 135.424 21.859C136.176 21.8058 136.91 21.6652 137.662 21.5421C137.754 21.542 137.864 21.3846 137.864 21.2973C137.863 20.6159 137.862 19.917 137.861 19.1307L137.861 19.1482Z" fill="white"/>
<path d="M89.4454 24.3019C88.5464 24.3378 87.7205 24.1989 86.9678 23.7804C86.7107 23.6409 86.5272 23.6411 86.2521 23.7287C84.7849 24.2719 83.2623 24.5356 81.684 24.2403C80.2708 23.9623 79.3891 23.1595 79.1857 21.7969C79.0932 21.1505 79.0925 20.4691 79.1834 19.8226C79.3107 18.7916 79.9704 18.092 80.9976 17.8114C81.823 17.5833 82.6853 17.4601 83.5475 17.3544C84.3914 17.2486 85.2538 17.2302 86.1161 17.1769C86.1157 16.8275 86.152 16.5129 86.115 16.2159C86.0593 15.6744 85.747 15.3777 85.1415 15.3609C84.1507 15.3444 83.1415 15.363 82.1508 15.399C81.4352 15.3998 80.738 15.4704 79.9674 15.5062C79.93 14.8598 79.8926 14.2308 79.8735 13.5844C79.8734 13.5145 80.0017 13.4095 80.0751 13.392C82.2213 12.9004 84.386 12.5836 86.5882 12.9132C88.4234 13.1908 89.4155 14.273 89.4358 16.0377C89.4756 18.7108 89.442 21.3841 89.4635 24.0573C89.4636 24.1271 89.4637 24.2145 89.4454 24.3194L89.4454 24.3019ZM86.1185 19.2211C85.1828 19.3095 84.3021 19.3628 83.4399 19.5035C82.7061 19.6266 82.3582 20.2036 82.4691 20.9547C82.5617 21.6535 82.929 21.9851 83.718 21.9493C84.4519 21.8961 85.1856 21.7555 85.9011 21.6325C85.9928 21.6324 86.1027 21.475 86.1026 21.3876C86.1018 20.7062 86.101 20.0074 86.1001 19.2211L86.1185 19.2211Z" fill="white"/>
<path d="M95.9405 24.0328L92.6011 24.0364L92.5883 13.0291L95.8543 13.0256C95.8729 13.2003 95.8914 13.3575 95.9284 13.5846C96.1484 13.497 96.3318 13.4095 96.5152 13.3394C97.8356 12.7265 99.2116 12.6027 100.643 12.9156C102.02 13.2112 102.828 14.1014 103.123 15.3765C103.289 16.0927 103.437 16.8438 103.456 17.5776C103.495 19.6393 103.461 21.701 103.463 23.7627C103.463 23.8326 103.463 23.9025 103.445 23.9899L100.087 23.9935C100.087 23.8362 100.087 23.679 100.087 23.5392C100.084 21.6522 100.082 19.7653 100.08 17.8783C100.08 17.4415 100.024 16.9873 99.9134 16.5506C99.7291 15.7995 99.2699 15.3981 98.4626 15.4165C97.692 15.4348 96.9215 15.5928 96.151 15.7334C96.0593 15.7335 95.9495 15.9957 95.9497 16.1355C95.9519 18.0574 95.9541 19.9619 95.9563 21.8838C95.9571 22.5827 95.9579 23.2815 95.9588 24.0154L95.9405 24.0328Z" fill="white"/>
<path d="M74.9922 13.0654L78.0013 13.0622L78.0042 15.5782L74.9951 15.5814L75.0049 24.0727L71.6472 24.0763L71.6374 15.6199L70.2979 15.6214L70.295 13.0705C70.5152 13.0702 70.7537 13.07 70.9922 13.0697C71.7078 13.0689 71.5978 13.1215 71.6337 12.4925C71.6515 11.9683 71.6692 11.4266 71.7604 10.9198C71.9787 9.3646 72.7485 8.57754 74.3813 8.45349C75.6106 8.36481 76.8767 8.48576 78.1061 8.51938L78.109 11.0179C77.5769 11.0184 77.0815 11.0364 76.5861 11.0195C75.4851 10.9508 75.1002 11.2482 75.0096 12.2792C74.9915 12.5238 75.0102 12.7684 75.0105 13.0829L74.9922 13.0654Z" fill="white"/>
<path d="M119.666 9.05144L123.079 9.04779L123.093 21.3306L129.295 21.3239L129.298 23.9971L119.683 24.0074L119.666 9.05144Z" fill="white"/>
<path d="M64.8088 13.0938L64.8101 14.1771C65.5069 13.8793 66.1305 13.5816 66.7724 13.3538C67.4143 13.126 68.093 12.9505 68.79 12.7401L68.7935 15.7278C67.7112 15.9736 66.6289 16.2368 65.5467 16.4826C65.4366 16.5002 65.3266 16.5527 65.2165 16.5703C64.923 16.623 64.8131 16.7804 64.8134 17.0774C64.8159 19.2439 64.8184 21.4104 64.821 23.5944C64.8211 23.7342 64.8213 23.8915 64.8215 24.0662L61.4821 24.0698L61.4694 13.0974L64.8088 13.0938Z" fill="white"/>
</svg>
