<svg width="143" height="17" viewBox="0 0 143 17" fill="none" xmlns="http://www.w3.org/2000/svg">
<path d="M52.2083 16.8015C56.0516 17.0485 59.0784 15.2874 60.3936 12.0213C60.5721 11.5502 60.6856 11.0636 60.864 10.514C60.0173 10.5149 59.2846 10.5471 58.5517 10.5165C58.0795 10.4856 57.8679 10.6271 57.7056 11.0667C57.2188 12.5113 56.2429 13.5325 54.6965 13.9894C51.0502 15.0763 47.6604 12.7412 47.4933 9.03725C47.3762 6.33774 49.0508 4.06008 51.623 3.50798C54.3092 2.94006 56.9483 3.95745 57.7983 6.76605C57.831 6.87588 57.9941 7.04836 58.0918 7.04826C58.9711 7.06301 59.8504 7.04637 60.8112 7.04534C60.1893 4.36206 58.7703 2.40163 56.1799 1.33711C55.4794 1.05534 54.7139 0.930591 53.9809 0.727333L51.9617 0.729496C51.9617 0.729496 51.8153 0.808131 51.7501 0.808201C46.9145 1.42551 43.614 5.80812 44.8574 10.8608C45.6591 14.1246 48.7233 16.5855 52.1921 16.8172L52.2083 16.8015Z" fill="white"/>
<path d="M140.367 0.933015C139.471 0.839801 138.967 1.12286 138.512 1.90813C137.325 3.96552 136.009 5.96028 134.741 7.97067C134.643 8.12773 134.53 8.26911 134.4 8.4733C134.269 8.26939 134.155 8.11256 134.057 7.95571C132.687 5.77549 131.316 3.59527 129.962 1.41503C129.75 1.08565 129.538 0.944614 129.131 0.94505C123.774 0.950789 118.4 0.956545 113.043 0.962284C112.847 0.962493 112.668 0.978381 112.489 0.994268L112.492 3.48987L118.077 3.48388L118.092 16.37L120.958 16.3669L120.943 3.48081L126.496 3.47486L126.494 1.2304C126.494 1.2304 126.575 1.19892 126.624 1.18317C126.738 1.34 126.836 1.49685 126.95 1.65369C128.663 4.36719 130.343 7.09643 132.105 9.77849C132.758 10.7666 133.101 11.7394 133.021 12.9166C132.94 14.0625 133.007 15.2239 133.008 16.4011L135.891 16.398C135.889 14.8284 135.887 13.2903 135.885 11.7521C135.885 11.4382 135.998 11.0771 136.161 10.7944C138.079 7.71597 139.997 4.63757 141.931 1.55916C142.045 1.38639 142.142 1.21363 142.289 0.962348C141.605 0.96308 140.986 1.01083 140.383 0.964388L140.367 0.933015Z" fill="white"/>
<path d="M25.1061 11.6981C24.8941 11.4629 24.78 11.3374 24.6658 11.212C21.845 7.98173 19.0404 4.73575 16.2196 1.50548C16.0728 1.33298 15.8772 1.12915 15.6817 1.11366C15.0466 1.06726 14.3953 1.09934 13.7439 1.10004L13.7618 16.5131L16.5952 16.5101L16.5832 6.18237C16.8115 6.43326 16.9419 6.59008 17.0724 6.7312C19.828 9.85167 22.5673 12.9722 25.3228 16.0769C25.4696 16.2494 25.6653 16.4847 25.8444 16.5002C26.5284 16.5465 27.2123 16.5144 27.9125 16.5136L27.8946 1.10058L25.0938 1.10358L25.1061 11.6981Z" fill="white"/>
<path d="M109.732 10.4774C112.889 8.73177 113.193 4.35237 110.292 2.23657C109.168 1.42161 107.865 1.03061 106.48 1.0164C104.266 0.987381 102.051 1.02114 99.8366 1.02352C99.7063 1.02366 99.5761 1.05519 99.4459 1.08672L99.4637 16.4527L102.281 16.4497L102.275 11.3957C103.301 11.3946 104.262 11.4093 105.222 11.3925C105.662 11.3921 105.939 11.5016 106.2 11.8467C107.129 13.1013 108.173 14.2774 109.07 15.5634C109.576 16.2849 110.146 16.6139 111.058 16.5031C111.742 16.4238 112.442 16.5016 113.272 16.5007C111.756 14.5717 110.337 12.7683 108.902 10.9491C109.211 10.7918 109.488 10.666 109.732 10.5245L109.732 10.4774ZM107.369 8.59642C105.692 8.80226 103.998 8.81977 102.272 8.93149L102.266 3.50082C102.803 3.50024 103.324 3.49969 103.845 3.49913C104.904 3.52939 105.995 3.46543 107.037 3.63697C108.878 3.93321 109.873 5.45462 109.321 6.9463C108.996 7.85699 108.28 8.46988 107.352 8.58075L107.369 8.59642Z" fill="white"/>
<path d="M76.7475 16.3044C80.6386 15.6253 83.3707 12.5774 83.4478 8.82609C83.5249 5.12185 80.9485 2.06396 77.0558 1.25196C76.4205 1.12708 75.7691 1.0336 75.1177 1.0343C73.1636 1.005 71.2096 1.03849 69.223 1.04061L69.2409 16.4851C71.3252 16.4828 73.3607 16.4807 75.3962 16.4785C75.8521 16.478 76.308 16.4147 76.7476 16.3358L76.7475 16.3044ZM72.0713 13.9237L72.0594 3.65874C73.4761 3.65722 74.8438 3.5145 76.1792 3.68572C78.8665 4.04384 80.7906 6.33334 80.6795 8.82906C80.5524 11.5602 78.4381 13.7442 75.6537 13.9198C74.4814 13.9995 73.2926 13.9223 72.0713 13.9237Z" fill="white"/>
<path d="M41.3594 13.5014C41.7187 14.3799 42.1105 15.2585 42.5186 16.1213C42.5839 16.2782 42.7633 16.482 42.8773 16.4976C43.773 16.528 44.6848 16.5114 45.6782 16.5103C43.2946 11.2705 40.9764 6.12485 38.6255 0.96352C37.909 0.964287 37.2251 0.996411 36.5249 0.96577C36.1178 0.950511 35.9062 1.0763 35.7438 1.45317C33.5674 6.28975 31.3584 11.1264 29.1657 15.963C29.0845 16.1357 29.0195 16.3084 28.9221 16.5439C29.8991 16.5429 30.811 16.5419 31.7229 16.5253C31.8532 16.5251 32.0483 16.3209 32.1133 16.1795C32.5031 15.3316 32.8767 14.4679 33.2176 13.6043C33.3638 13.2431 33.5427 13.086 33.9824 13.0855C36.197 13.1145 38.4116 13.0964 40.6262 13.0784C40.9844 13.078 41.1962 13.1562 41.3269 13.5171L41.3594 13.5014ZM34.5982 10.5421C35.5077 8.45366 36.3847 6.42799 37.3267 4.29238C38.2573 6.41029 39.139 8.43408 40.0696 10.5363L34.5982 10.5421Z" fill="white"/>
<path d="M92.8203 2.78894C92.5428 2.16141 92.3952 1.31401 91.89 1.00064C91.3849 0.687267 90.5059 0.939338 89.8056 0.893001C89.431 0.877707 89.2684 1.00345 89.1222 1.33321C87.7578 4.36392 86.3772 7.39465 85.0129 10.4254C84.1196 12.404 83.21 14.3826 82.2679 16.4711C83.2124 16.4701 84.0429 16.4535 84.8733 16.4683C85.2316 16.4679 85.3943 16.3422 85.5242 16.0438C85.8814 15.1645 86.2875 14.3008 86.6447 13.4058C86.7584 13.1074 86.9211 13.0131 87.2631 13.0127C89.5428 13.0103 91.8225 13.0078 94.086 13.0054C94.428 13.0051 94.5746 13.1148 94.6889 13.3972C95.0645 14.2914 95.4726 15.1856 95.8645 16.0642C95.9298 16.2053 96.0766 16.4092 96.1906 16.4091C97.1025 16.4395 98.0307 16.4228 99.024 16.4218C98.9097 16.1394 98.828 15.9511 98.7464 15.7629C96.7873 11.433 94.8282 7.08738 92.8528 2.75751L92.8203 2.78894ZM87.9115 10.485C88.821 8.39655 89.698 6.37088 90.6399 4.23527C91.5706 6.35318 92.4523 8.37697 93.3829 10.4792L87.9115 10.485Z" fill="white"/>
<path d="M0.0182392 16.5278L2.80278 16.5248L2.7959 10.5919L10.3842 10.5838L10.3812 8.0568L2.85811 8.06485L2.85293 3.59161L12.7535 3.58101L12.7506 1.1168L0.000400063 1.13046L0.0182392 16.5278Z" fill="white"/>
</svg>
