<svg width="762" height="540" viewBox="0 0 762 540" fill="none" xmlns="http://www.w3.org/2000/svg">
<g clip-path="url(#clip0_390_3846)">
<path d="M867.004 -9.87695L867.004 549.123L12.7265 549.123C4.04313 549.123 -2.99612 542.084 -2.99612 533.4L-2.99609 5.84561C-2.99609 -2.83774 4.04315 -9.87699 12.7265 -9.87699L867.004 -9.87695Z" fill="url(#paint0_linear_390_3846)"/>
<path d="M547.004 0.123047L547.004 539.123L16.0039 539.123C7.71964 539.123 1.00388 532.407 1.00388 524.123L1.00391 15.123C1.00391 6.83874 7.71967 0.123023 16.0039 0.123024L547.004 0.123047Z" fill="url(#paint1_linear_390_3846)"/>
<g filter="url(#filter0_f_390_3846)">
<path d="M-194.906 -413.377C-100.656 -482.824 -53.645 -323.37 65.9041 -154.189C185.453 14.9914 332.27 129.834 238.019 199.281C143.769 268.728 -29.5504 187.877 -149.1 18.6968C-268.649 -150.484 -289.157 -343.93 -194.906 -413.377Z" fill="url(#paint2_linear_390_3846)"/>
</g>
<g filter="url(#filter1_f_390_3846)">
<ellipse cx="689.134" cy="27.1274" rx="689.134" ry="27.1274" transform="matrix(0.636097 0.735055 -0.745069 0.709226 -703.121 -819.787)" fill="url(#paint3_radial_390_3846)" fill-opacity="0.8"/>
</g>
<g filter="url(#filter2_f_390_3846)">
<ellipse cx="747.867" cy="22.8703" rx="747.867" ry="22.8703" transform="matrix(0.691556 0.688802 -0.6951 0.752827 -671.285 -725.75)" fill="url(#paint4_radial_390_3846)"/>
</g>
</g>
<defs>
<filter id="filter0_f_390_3846" x="-581.4" y="-757.342" width="1176.78" height="1308.81" filterUnits="userSpaceOnUse" color-interpolation-filters="sRGB">
<feFlood flood-opacity="0" result="BackgroundImageFix"/>
<feBlend mode="normal" in="SourceGraphic" in2="BackgroundImageFix" result="shape"/>
<feGaussianBlur stdDeviation="163.65" result="effect1_foregroundBlur_390_3846"/>
</filter>
<filter id="filter1_f_390_3846" x="-743.319" y="-820.432" width="916.685" height="1052.87" filterUnits="userSpaceOnUse" color-interpolation-filters="sRGB">
<feFlood flood-opacity="0" result="BackgroundImageFix"/>
<feBlend mode="normal" in="SourceGraphic" in2="BackgroundImageFix" result="shape"/>
<feGaussianBlur stdDeviation="9.7561" result="effect1_foregroundBlur_390_3846"/>
</filter>
<filter id="filter2_f_390_3846" x="-722.554" y="-743.948" width="1105.13" height="1101.1" filterUnits="userSpaceOnUse" color-interpolation-filters="sRGB">
<feFlood flood-opacity="0" result="BackgroundImageFix"/>
<feBlend mode="normal" in="SourceGraphic" in2="BackgroundImageFix" result="shape"/>
<feGaussianBlur stdDeviation="17.561" result="effect1_foregroundBlur_390_3846"/>
</filter>
<linearGradient id="paint0_linear_390_3846" x1="768.047" y1="270.128" x2="-2.99607" y2="270.128" gradientUnits="userSpaceOnUse">
<stop stop-color="#101010" stop-opacity="0"/>
<stop offset="0.677672" stop-color="#101010" stop-opacity="0.9"/>
</linearGradient>
<linearGradient id="paint1_linear_390_3846" x1="547.004" y1="269.623" x2="55.5039" y2="269.623" gradientUnits="userSpaceOnUse">
<stop stop-opacity="0"/>
<stop offset="1"/>
</linearGradient>
<linearGradient id="paint2_linear_390_3846" x1="-174.631" y1="-295.394" x2="239.056" y2="129.457" gradientUnits="userSpaceOnUse">
<stop offset="0.115385" stop-color="#B481FF" stop-opacity="0.6"/>
<stop offset="0.990398" stop-color="#B0F5FF" stop-opacity="0.8"/>
</linearGradient>
<radialGradient id="paint3_radial_390_3846" cx="0" cy="0" r="1" gradientUnits="userSpaceOnUse" gradientTransform="translate(689.134 27.1274) scale(689.134 27.1274)">
<stop stop-color="white"/>
<stop offset="1" stop-color="white" stop-opacity="0"/>
</radialGradient>
<radialGradient id="paint4_radial_390_3846" cx="0" cy="0" r="1" gradientUnits="userSpaceOnUse" gradientTransform="translate(747.867 22.8703) scale(747.867 22.8703)">
<stop stop-color="white"/>
<stop offset="1" stop-color="white" stop-opacity="0"/>
</radialGradient>
<clipPath id="clip0_390_3846">
<rect width="769" height="556" fill="white" transform="translate(-7.5 -10.377)"/>
</clipPath>
</defs>
</svg>
