<svg width="3840" height="3806" viewBox="0 0 3840 3806" fill="none" xmlns="http://www.w3.org/2000/svg">
<path d="M195.668 1348.82C195.668 1197.68 318.596 1074.75 469.733 1074.75C620.87 1074.75 743.797 1197.68 743.797 1348.82C743.797 1499.95 620.87 1622.88 469.733 1622.88C318.596 1622.88 195.668 1499.95 195.668 1348.82Z" stroke="#202020" stroke-opacity="0.3" stroke-width="1.50008" stroke-miterlimit="10"/>
<path d="M3134.75 3011.55V3024.23" stroke="#202020" stroke-opacity="0.3" stroke-width="1.50008" stroke-miterlimit="10"/>
<path d="M-371.394 1370.16C-371.394 915.267 -1.24433 545.118 453.649 545.118C908.542 545.118 1278.69 915.267 1278.69 1370.16C1278.69 1825.05 908.542 2195.2 453.649 2195.2C-1.24433 2195.2 -371.394 1825.05 -371.394 1370.16Z" stroke="#202020" stroke-opacity="0.3" stroke-width="1.50008" stroke-miterlimit="10" stroke-dasharray="15 15"/>
<path d="M-514.338 1370.3C-514.338 838.086 -79.95 405.121 454.075 405.121C988.099 405.121 1422.49 838.086 1422.49 1370.3C1422.49 1902.51 988.099 2335.48 454.075 2335.48C-79.95 2335.48 -514.338 1902.51 -514.338 1370.3Z" stroke="#202020" stroke-opacity="0.3" stroke-width="1.50008" stroke-miterlimit="10"/>
<path d="M-633.128 1370.3C-633.128 770.802 -145.428 283.102 454.072 283.102C1053.57 283.102 1541.27 770.802 1541.27 1370.3C1541.27 1969.8 1053.57 2457.5 454.072 2457.5C-145.428 2457.5 -633.128 1969.8 -633.128 1370.3Z" stroke="#202020" stroke-opacity="0.3" stroke-width="1.50008" stroke-miterlimit="10" stroke-dasharray="15.33 15.33"/>
<path d="M1253.62 591.719L1401.26 444.076" stroke="#202020" stroke-opacity="0.3" stroke-width="1.50008" stroke-miterlimit="10"/>
<path d="M391.963 2329.58C391.963 2285.72 427.677 2250.13 471.414 2250.13C515.15 2250.13 550.864 2285.85 550.864 2329.58C550.864 2373.32 515.15 2409.03 471.414 2409.03C427.677 2409.03 391.963 2373.32 391.963 2329.58Z" stroke="#202020" stroke-opacity="0.3" stroke-width="1.50008" stroke-miterlimit="10"/>
<path d="M417.324 2329.58C417.324 2299.82 441.651 2275.49 471.413 2275.49C501.174 2275.49 525.501 2299.82 525.501 2329.58C525.501 2359.34 501.174 2383.67 471.413 2383.67C441.651 2383.67 417.324 2359.34 417.324 2329.58Z" stroke="#202020" stroke-opacity="0.3" stroke-width="1.50008" stroke-miterlimit="10"/>
<path d="M1231 1818.45C1231 1774.58 1266.71 1739 1310.45 1739C1354.19 1739 1389.9 1774.71 1389.9 1818.45C1389.9 1862.19 1354.19 1897.9 1310.45 1897.9C1266.71 1897.9 1231 1862.19 1231 1818.45Z" stroke="#202020" stroke-opacity="0.3" stroke-width="1.50008" stroke-miterlimit="10"/>
<path d="M1256.36 1818.45C1256.36 1788.69 1280.69 1764.36 1310.45 1764.36C1340.21 1764.36 1364.54 1788.69 1364.54 1818.45C1364.54 1848.21 1340.21 1872.54 1310.45 1872.54C1280.69 1872.54 1256.36 1848.21 1256.36 1818.45Z" stroke="#202020" stroke-opacity="0.3" stroke-width="1.50008" stroke-miterlimit="10"/>
<path d="M471.649 161.098L471.65 2846.24" stroke="#202020" stroke-opacity="0.3" stroke-width="1.50008" stroke-miterlimit="10"/>
<path d="M983.735 836.133L-38.3784 1858.12" stroke="#202020" stroke-opacity="0.3" stroke-width="1.50008" stroke-miterlimit="10"/>
<path d="M982.173 839.134L981.949 838.29L981.106 838.067L955.993 831.429L1012.59 807.645L988.81 864.247L982.173 839.134Z" stroke="#202020" stroke-opacity="0.3" stroke-width="3.00016"/>
<path d="M-38.3784 836.133L797.5 1672.01" stroke="#202020" stroke-opacity="0.3" stroke-width="1.50008" stroke-miterlimit="10"/>
<path d="M829.052 1704.05L765 1677.14L794.373 1669.37L802.137 1640L829.052 1704.05Z" stroke="#202020" stroke-opacity="0.3" stroke-width="1.50008" stroke-miterlimit="10"/>
<path d="M1879.13 1349.16H-932.425" stroke="#202020" stroke-opacity="0.3" stroke-width="1.50008" stroke-miterlimit="10"/>
<path d="M2261.71 3702.77L2373.77 3590.71" stroke="#202020" stroke-opacity="0.3" stroke-width="1.50008" stroke-miterlimit="10"/>
<path d="M1980 3640.92C1980 3611.68 2003.81 3588 2032.92 3588C2062.04 3588 2085.85 3611.81 2085.85 3640.92C2085.85 3670.04 2062.04 3693.85 2032.92 3693.85C2003.81 3693.85 1980 3670.04 1980 3640.92Z" stroke="#202020" stroke-opacity="0.3" stroke-width="1.50008" stroke-miterlimit="10"/>
<path d="M1996.82 3640.97C1996.82 3621.05 2013 3605 2032.79 3605C2052.59 3605 2068.77 3621.17 2068.77 3640.97C2068.77 3660.77 2052.59 3676.95 2032.79 3676.95C2013 3676.95 1996.82 3660.77 1996.82 3640.97Z" stroke="#202020" stroke-opacity="0.3" stroke-width="1.50008" stroke-miterlimit="10"/>
<path d="M2570.71 3640.92C2570.71 3611.68 2594.52 3588 2623.63 3588C2652.75 3588 2676.56 3611.81 2676.56 3640.92C2676.56 3670.04 2652.75 3693.85 2623.63 3693.85C2594.52 3693.85 2570.71 3670.04 2570.71 3640.92Z" stroke="#202020" stroke-opacity="0.3" stroke-width="1.50008" stroke-miterlimit="10"/>
<path d="M2587.66 3640.92C2587.66 3620.99 2603.84 3604.95 2623.63 3604.95C2643.43 3604.95 2659.61 3621.12 2659.61 3640.92C2659.61 3660.72 2643.43 3676.89 2623.63 3676.89C2603.84 3676.89 2587.66 3660.72 2587.66 3640.92Z" stroke="#202020" stroke-opacity="0.3" stroke-width="1.50008" stroke-miterlimit="10"/>
<path d="M2271.8 3640.92C2271.8 3611.68 2295.61 3588 2324.73 3588C2353.84 3588 2377.65 3611.81 2377.65 3640.92C2377.65 3670.04 2353.84 3693.85 2324.73 3693.85C2295.61 3693.85 2271.8 3670.04 2271.8 3640.92Z" stroke="#202020" stroke-opacity="0.3" stroke-width="1.50008" stroke-miterlimit="10"/>
<path d="M2288.62 3640.97C2288.62 3621.05 2304.8 3605 2324.6 3605C2344.39 3605 2360.57 3621.17 2360.57 3640.97C2360.57 3660.77 2344.39 3676.95 2324.6 3676.95C2304.8 3676.95 2288.62 3660.77 2288.62 3640.97Z" stroke="#202020" stroke-opacity="0.3" stroke-width="1.50008" stroke-miterlimit="10"/>
<path d="M3374.34 1220.32L3374.48 1219.45L3373.8 1218.9L3353.61 1202.54L3415.09 1204.17L3369.97 1245.96L3374.34 1220.32Z" stroke="#202020" stroke-opacity="0.3" stroke-width="3.00016"/>
<path d="M3447.81 2359.04C3447.81 2282.57 3510.05 2220.2 3586.65 2220.2C3663.25 2220.2 3725.49 2282.44 3725.49 2359.04C3725.49 2435.65 3663.25 2497.89 3586.65 2497.89C3510.05 2497.89 3447.81 2435.65 3447.81 2359.04Z" stroke="#202020" stroke-opacity="0.3" stroke-width="1.50008" stroke-miterlimit="10"/>
<path d="M3963.75 1986.01C4167.03 2189.29 4167.03 2520.03 3963.75 2723.32C3760.47 2926.6 3429.73 2926.6 3226.44 2723.32C3023.16 2520.03 3023.16 2189.29 3226.44 1986.01C3429.73 1782.72 3760.47 1782.72 3963.75 1986.01Z" stroke="#202020" stroke-opacity="0.3" stroke-width="1.50008" stroke-miterlimit="10" stroke-dasharray="9.06 9.06"/>
<path d="M4104.92 1844.84C4390.37 2130.3 4390.37 2594.83 4104.92 2880.29C3819.47 3165.74 3354.93 3165.74 3069.48 2880.29C2784.03 2594.83 2784.03 2130.3 3069.48 1844.84C3354.93 1559.39 3819.47 1559.39 4104.92 1844.84Z" stroke="#202020" stroke-opacity="0.3" stroke-width="1.50008" stroke-miterlimit="10"/>
<path d="M3579.83 1552.79V1696.55" stroke="#202020" stroke-opacity="0.3" stroke-width="1.50008" stroke-miterlimit="10"/>
<path d="M3586.17 3028.83V3155" stroke="#202020" stroke-opacity="0.3" stroke-width="1.50008" stroke-miterlimit="10"/>
<path d="M3104.16 1810.81C3122.92 1829.57 3122.92 1859.98 3104.16 1878.74C3085.4 1897.51 3054.99 1897.51 3036.23 1878.74C3017.47 1859.98 3017.47 1829.57 3036.23 1810.81C3054.99 1792.05 3085.4 1792.05 3104.16 1810.81Z" stroke="#202020" stroke-opacity="0.3" stroke-width="1.50008" stroke-miterlimit="10"/>
<path d="M3093.29 1821.55C3105.97 1834.23 3105.97 1855.07 3093.29 1867.75C3080.61 1880.43 3059.78 1880.43 3047.1 1867.75C3034.42 1855.07 3034.42 1834.23 3047.1 1821.55C3059.78 1808.87 3080.61 1808.87 3093.29 1821.55Z" stroke="#202020" stroke-opacity="0.3" stroke-width="1.50008" stroke-miterlimit="10"/>
<path d="M3613.08 1598.98C3631.85 1617.75 3631.85 1648.16 3613.08 1666.92C3594.32 1685.68 3563.91 1685.68 3545.15 1666.92C3526.39 1648.16 3526.39 1617.75 3545.15 1598.98C3563.91 1580.22 3594.32 1580.22 3613.08 1598.98Z" stroke="#202020" stroke-opacity="0.3" stroke-width="1.50008" stroke-miterlimit="10"/>
<path d="M3602.21 1609.72C3614.89 1622.4 3614.89 1643.24 3602.21 1655.92C3589.53 1668.6 3568.7 1668.6 3556.02 1655.92C3543.34 1643.24 3543.34 1622.4 3556.02 1609.72C3568.7 1597.04 3589.53 1597.04 3602.21 1609.72Z" stroke="#202020" stroke-opacity="0.3" stroke-width="1.50008" stroke-miterlimit="10"/>
<path d="M4195.55 2971.44L2973.78 1746.17" stroke="#202020" stroke-opacity="0.3" stroke-width="1.50008" stroke-miterlimit="10"/>
<path d="M3585.81 2778.26V1941.18" stroke="#202020" stroke-opacity="0.3" stroke-width="1.50008" stroke-miterlimit="10"/>
<path d="M3585.08 2827.67L3611.48 2763.23L3585.08 2778.5L3558.81 2763.23L3585.08 2827.67Z" stroke="#202020" stroke-opacity="0.3" stroke-width="1.50008" stroke-miterlimit="10"/>
<path d="M3584.78 1892.72L3611.17 1957.03L3584.78 1941.76L3558.51 1957.03L3584.78 1892.72Z" stroke="#202020" stroke-opacity="0.3" stroke-width="1.50008" stroke-miterlimit="10"/>
<path d="M3003.78 2938.09L4166.68 1782.18" stroke="#202020" stroke-opacity="0.3" stroke-width="1.50008" stroke-miterlimit="10"/>
<path d="M3345.93 1342.58C3195.02 1400.97 3060.29 1483.27 2945.03 1587.32C2820.31 1700 2719.94 1836.44 2646.23 1993.84" stroke="#202020" stroke-opacity="0.3" stroke-width="1.50008" stroke-miterlimit="10"/>
<path d="M2627.45 2035.54L2630.4 1966.03L2647.96 1990.91L2678.3 1988.07L2627.45 2035.54Z" stroke="#202020" stroke-opacity="0.3" stroke-width="1.50008" stroke-miterlimit="10"/>
<path d="M3066.98 4181.13V4193.81M3066.98 4073.34V4149.43M3066.98 4029.09V4041.77M3066.98 3921.3V3997.38M3066.98 3876.92V3889.6M3066.98 3769.26V3845.34M3066.98 3724.87V3737.55M3066.98 3617.21V3693.3M3066.98 3572.83V3585.51M3066.98 3465.17V3541.26M3066.98 3420.79V3433.47M3066.98 3313V3389.09M3185.22 3312L3278.22 3416M2826.22 3312L2932.22 3416M3185.22 3353L3278.22 3457M2821.22 3353L2932.22 3457M3185.22 3394L3278.22 3498M2817.22 3394L2932.22 3498M3185.22 3435L3278.22 3539M2814.22 3435L2932.22 3539M3185.22 3476L3278.22 3580M2813.22 3476L2932.22 3580M3185.22 3517L3278.22 3621M2814.22 3517L2932.22 3621M3185.22 3558L3278.22 3662M2814.22 3558L2932.22 3662M3185.22 3599L3278.22 3703M2817.22 3599L2932.22 3703M3185.22 3640L3344.86 3812.63M2821.22 3640L2932.22 3744M3185.23 3681L3345.91 3849.13M3185.23 3720.13L3345.91 3888.27M3185.23 3759.27L3345.91 3927.4M3185.23 3798.4L3345.91 3966.54M3185.23 3837.54L3345.91 4005.67M3185.23 3876.67L3345.91 4044.8M3185.23 3915.8L3345.91 4083.94M3185.23 3954.94L3345.91 4123.07M3185.23 3994.07L3345.91 4162.2M2826.22 3681L2932.22 3785M3219.22 3312L3276.22 3371M2865.22 3312L2930.22 3371M2932.4 4295.02V3312.76H3185.38V4295.02H2932.4ZM2813.13 3497.28C2813.13 3436.47 2817.27 3374.87 2825.55 3314.32L2826.33 3312.24H3223.71C3253.21 3312.24 3277.15 3336.18 3277.15 3365.69V3715.06C3277.15 3748.83 3304.71 3776.27 3338.48 3776.27H3344.82L3345.34 3782.61V4295.28H2858.29L2860.23 4287.39C2873.04 4235.24 2881.06 4185.03 2884.69 4134.05C2886.11 4113.73 2886.89 4093.42 2886.89 4073.88C2886.89 3982.91 2871.23 3910.06 2854.54 3832.81C2841.47 3771.87 2827.88 3708.85 2819.73 3630.05C2815.33 3586.44 2813 3541.8 2813 3497.28H2813.13Z" stroke="#202020" stroke-opacity="0.3" stroke-width="1.50008" stroke-miterlimit="10"/>
</svg>
