<svg width="552" height="247" viewBox="0 0 552 247" fill="none" xmlns="http://www.w3.org/2000/svg">
<g filter="url(#filter0_d_2993_4489)">
<path d="M129.357 20.2315H526.894V87.7685H129.357V20.2315Z" stroke="white" stroke-width="0.462984"/>
<g filter="url(#filter1_di_2993_4489)">
<rect x="522.126" y="14" width="9.45475" height="9.45475" fill="url(#paint0_linear_2993_4489)"/>
</g>
<g filter="url(#filter2_di_2993_4489)">
<rect x="124.126" y="15" width="9.45475" height="9.45475" fill="url(#paint1_linear_2993_4489)"/>
</g>
<g filter="url(#filter3_di_2993_4489)">
<rect x="522.126" y="83" width="9.45475" height="9.45475" fill="url(#paint2_linear_2993_4489)"/>
</g>
<g filter="url(#filter4_di_2993_4489)">
<rect x="124.126" y="83" width="9.45475" height="9.45475" fill="url(#paint3_linear_2993_4489)"/>
</g>
<g filter="url(#filter5_bd_2993_4489)">
<mask id="path-6-inside-1_2993_4489" fill="white">
<path d="M49.7946 29.9599C66.5246 29.9172 75.4385 39.2745 75.477 54.3945C75.5156 69.5144 66.6495 78.9171 49.9196 78.9597C49.4296 78.961 23.3197 79.0276 23.3197 79.0276L23.1947 30.0277C23.1947 30.0277 49.3046 29.9611 49.7946 29.9599ZM47.2868 62.1664C53.5167 62.1505 56.0287 58.9941 56.0171 54.4441C56.0055 49.8941 53.4775 46.7505 47.2475 46.7664C44.6575 46.773 42.5575 46.7784 41.9275 46.78L41.9668 62.1799C42.5968 62.1783 44.6968 62.173 47.2868 62.1664ZM119.152 44.4831L96.6122 44.5405L96.6202 47.6905L117.13 47.6382L117.164 60.9382L96.6541 60.9905L96.6622 64.1405L119.202 64.083L119.24 78.783L78.0097 78.8881L77.8848 29.8883L119.115 29.7831L119.152 44.4831ZM97.4387 11.7783L114.729 11.7342L104.756 26.3197L92.0858 26.352L97.4387 11.7783ZM180.31 29.6271L209.99 29.5514L210.115 78.5512L191.425 78.5989L191.342 46.259L190.922 46.2601L184.425 78.6167L164.615 78.6673L157.882 46.3443L157.462 46.3454L157.545 78.6853L138.855 78.7329L138.73 29.7331L168.48 29.6572L174.222 57.9927L174.712 57.9914L180.31 29.6271ZM249.202 78.4516L247.363 70.6862L234.063 70.7201L232.262 78.4948L212.242 78.5458L226.818 29.5085L254.397 29.4382L269.222 78.4005L249.202 78.4516ZM237.385 56.0816L243.965 56.0649L241.63 46.1308L239.67 46.1358L237.385 56.0816ZM300.39 78.321L294.057 65.2472C292.867 65.2502 291.327 65.2541 289.997 65.2575L290.03 78.3475L271.34 78.3951L271.215 29.3953C271.215 29.3953 295.925 29.3323 296.205 29.3316C310.415 29.2953 317.36 35.2276 317.391 47.2676C317.408 53.7776 315.39 58.4727 311.337 61.4231L320.41 78.27L300.39 78.321ZM294.421 43.3362C293.371 43.3388 291.551 43.3435 289.941 43.3476L289.961 51.2575C291.571 51.2534 293.391 51.2488 294.441 51.2461C297.521 51.2383 299.199 50.184 299.191 47.314C299.184 44.374 297.501 43.3283 294.421 43.3362ZM375.156 53.6303C375.176 61.4003 372.183 68.1279 367.014 72.6911L374.605 84.7818L354.585 84.8329L351.491 79.3107C350.232 79.454 348.972 79.5272 347.642 79.5306C331.262 79.5723 320.034 68.7509 319.996 53.771C319.958 38.791 331.13 27.9125 347.51 27.8707C363.89 27.829 375.118 38.6504 375.156 53.6303ZM339.526 53.7212C339.538 58.2712 343.187 61.9719 347.597 61.9606C352.007 61.9494 355.638 58.2301 355.626 53.6801C355.614 49.1301 352.455 45.4282 347.555 45.4407C342.655 45.4532 339.514 49.1712 339.526 53.7212ZM406.009 29.0516L424.629 29.0041L424.697 55.534C424.737 71.354 418.038 79.3511 401.238 79.3939C384.438 79.4367 377.627 71.4741 377.587 55.6541L377.519 29.1242L396.209 29.0766L396.277 55.6065C396.288 59.9465 398.043 61.972 401.193 61.964C404.343 61.9559 406.088 59.9215 406.077 55.5815L406.009 29.0516ZM469.375 43.59L446.835 43.6475L446.843 46.7975L467.353 46.7452L467.387 60.0452L446.877 60.0975L446.885 63.2474L469.425 63.19L469.463 77.8899L428.233 77.9951L428.108 28.9952L469.338 28.8901L469.375 43.59ZM516.876 61.109L516.919 77.7689L471.909 77.8837L471.861 59.1937L490.798 46.0554L490.797 45.6354L473.157 45.6804L473.114 28.8805L514.764 28.7743L514.813 48.2342L495.175 60.6743L495.176 61.1643L516.876 61.109ZM163.169 224.671L161.329 216.906L148.029 216.94L146.229 224.715L126.209 224.766L140.784 175.728L168.364 175.658L183.189 224.62L163.169 224.671ZM151.352 202.301L157.932 202.285L155.596 192.351L153.636 192.356L151.352 202.301ZM211.552 175.548L230.172 175.5L230.24 202.03C230.28 217.85 223.581 225.847 206.781 225.89C189.981 225.933 183.171 217.97 183.13 202.15L183.063 175.621L201.753 175.573L201.82 202.103C201.831 206.443 203.586 208.468 206.736 208.46C209.886 208.452 211.631 206.418 211.62 202.078L211.552 175.548ZM277.07 175.381C293.8 175.338 302.714 184.695 302.752 199.815C302.791 214.935 293.925 224.338 277.195 224.381C276.705 224.382 250.595 224.448 250.595 224.448L250.47 175.449C250.47 175.449 276.58 175.382 277.07 175.381ZM274.562 207.587C280.792 207.571 283.304 204.415 283.293 199.865C283.281 195.315 280.753 192.171 274.523 192.187C271.933 192.194 269.833 192.199 269.203 192.201L269.242 207.601C269.872 207.599 271.972 207.594 274.562 207.587ZM346.428 189.904L323.888 189.961L323.896 193.111L344.406 193.059L344.44 206.359L323.93 206.411L323.938 209.561L346.478 209.504L346.515 224.204L305.285 224.309L305.16 175.309L346.39 175.204L346.428 189.904ZM373.115 225.466C354.705 225.513 348.239 215.589 348.219 207.68C353.259 207.667 365.859 207.635 365.859 207.635C365.867 210.925 368.95 211.967 371.4 211.96C373.99 211.954 375.248 211.111 375.244 209.571C375.238 207.261 372.157 206.848 366.693 205.322C355.135 202.132 350.087 198.855 350.066 190.805C350.025 174.635 364.653 173.827 372.633 173.807C382.713 173.781 394.063 177.673 394.096 190.552C388.356 190.567 376.806 190.597 376.806 190.597C376.799 188.077 374.906 186.751 372.596 186.757C370.426 186.763 369.028 187.536 369.033 189.426C369.039 191.876 374.222 192.913 378.914 194.021C383.607 195.129 395.58 196.359 395.611 208.329C395.647 222.329 385.784 225.434 373.115 225.466ZM397.997 175.072L416.687 175.025L416.812 224.025L398.122 224.072L397.997 175.072ZM448.158 206.655L448.135 197.765L472.915 197.702L472.982 223.881L461.012 223.912L461.004 220.902C457.511 223.641 452.895 225.263 446.945 225.278C430.565 225.32 419.268 214.498 419.229 199.518C419.191 184.538 430.433 173.66 446.813 173.618C461.513 173.581 471.967 182.934 472.907 194.692L454.217 194.739C453.302 192.852 451.058 191.247 447.418 191.257C442.728 191.268 439.587 194.776 439.599 199.466C439.611 204.156 441.933 208.911 447.464 209.036C449.774 209.101 451.382 208.396 452.36 207.414L452.358 206.644L448.158 206.655ZM511.902 174.782L530.592 174.734L530.717 223.734L507.337 223.794L495.585 199.464L495.095 199.465L495.157 223.825L476.467 223.873L476.342 174.873L500.352 174.811L511.474 199.143L511.964 199.142L511.902 174.782Z"/>
<path d="M12.1935 126.226L46.5634 126.138L46.5957 138.808L12.2258 138.896L12.1935 126.226ZM81.8017 102.879L102.872 102.825L87.5966 151.864L60.6467 151.933L45.1218 102.972L66.2617 102.918L73.4842 135.24L74.7442 135.237L81.8017 102.879ZM128.012 101.431C144.392 101.389 155.619 112.21 155.658 127.19C155.696 142.17 144.523 153.049 128.144 153.09C111.764 153.132 100.536 142.311 100.498 127.331C100.46 112.351 111.632 101.472 128.012 101.431ZM128.099 135.521C132.509 135.509 136.139 131.79 136.128 127.24C136.116 122.69 132.957 118.988 128.057 119.001C123.157 119.013 120.016 122.731 120.028 127.281C120.039 131.831 123.689 135.532 128.099 135.521ZM186.511 102.612L205.131 102.564L205.199 129.094C205.239 144.914 198.539 152.911 181.739 152.954C164.939 152.997 158.129 145.034 158.089 129.214L158.021 102.684L176.711 102.636L176.779 129.166C176.79 133.506 178.545 135.532 181.695 135.524C184.845 135.516 186.59 133.481 186.579 129.141L186.511 102.612ZM232.538 152.824C214.128 152.871 207.663 142.948 207.642 135.038C212.682 135.025 225.282 134.993 225.282 134.993C225.291 138.283 228.373 139.325 230.823 139.319C233.413 139.312 234.671 138.469 234.667 136.929C234.661 134.619 231.58 134.207 226.116 132.681C214.558 129.49 209.51 126.213 209.489 118.163C209.448 101.993 224.076 101.186 232.056 101.165C242.136 101.14 253.486 105.031 253.519 117.911C247.779 117.925 236.229 117.955 236.229 117.955C236.222 115.435 234.329 114.11 232.019 114.115C229.849 114.121 228.451 114.895 228.456 116.785C228.462 119.235 233.645 120.271 238.338 121.379C243.03 122.487 255.004 123.717 255.034 135.687C255.07 149.687 245.208 152.792 232.538 152.824ZM302.181 134.027L302.158 125.137L326.938 125.074L327.005 151.253L315.035 151.284L315.027 148.274C311.534 151.013 306.918 152.635 300.968 152.65C284.588 152.692 273.29 141.87 273.252 126.89C273.214 111.91 284.456 101.032 300.836 100.99C315.536 100.952 325.99 110.306 326.93 122.064L308.24 122.111C307.325 120.223 305.081 118.619 301.441 118.628C296.751 118.64 293.61 122.148 293.622 126.838C293.634 131.528 295.956 136.283 301.487 136.408C303.797 136.473 305.405 135.768 306.383 134.786L306.381 134.016L302.181 134.027ZM359.54 151.17L353.207 138.097C352.017 138.1 350.477 138.104 349.147 138.107L349.18 151.197L330.49 151.245L330.365 102.245C330.365 102.245 355.075 102.182 355.355 102.181C369.565 102.145 376.51 108.077 376.541 120.117C376.558 126.627 374.54 131.322 370.487 134.272L379.56 151.119L359.54 151.17ZM353.571 116.186C352.521 116.188 350.701 116.193 349.091 116.197L349.111 124.107C350.721 124.103 352.541 124.098 353.591 124.096C356.671 124.088 358.349 123.033 358.341 120.163C358.334 117.223 356.651 116.178 353.571 116.186ZM413.699 151.032L411.859 143.267L398.56 143.301L396.759 151.076L376.739 151.127L391.314 102.089L418.894 102.019L433.719 150.981L413.699 151.032ZM401.882 128.662L408.462 128.646L406.127 118.712L404.167 118.717L401.882 128.662ZM408.455 98.5456L405.565 90.6429L404.585 90.6454L401.665 98.5629L384.306 98.6071L394.278 84.0217L415.768 83.9669L425.815 98.5013L408.455 98.5456ZM459.399 134.606C463.459 134.595 465.274 132.351 466.247 129.688L484.937 129.641C483.99 142.593 473.584 152.21 458.884 152.247C442.504 152.289 431.277 141.468 431.238 126.488C431.2 111.508 442.373 100.629 458.753 100.587C473.452 100.55 483.907 110.113 484.92 123.061L466.23 123.108C465.243 120.451 463.417 118.215 459.357 118.226C454.668 118.238 451.596 121.746 451.608 126.436C451.62 131.126 454.709 134.618 459.399 134.606ZM528.594 116.439L506.054 116.497L506.062 119.647L526.572 119.594L526.606 132.894L506.096 132.947L506.104 136.097L528.644 136.039L528.681 150.739L487.451 150.844L487.326 101.844L528.556 101.739L528.594 116.439Z"/>
</mask>
<path d="M49.7946 29.9599C66.5246 29.9172 75.4385 39.2745 75.477 54.3945C75.5156 69.5144 66.6495 78.9171 49.9196 78.9597C49.4296 78.961 23.3197 79.0276 23.3197 79.0276L23.1947 30.0277C23.1947 30.0277 49.3046 29.9611 49.7946 29.9599ZM47.2868 62.1664C53.5167 62.1505 56.0287 58.9941 56.0171 54.4441C56.0055 49.8941 53.4775 46.7505 47.2475 46.7664C44.6575 46.773 42.5575 46.7784 41.9275 46.78L41.9668 62.1799C42.5968 62.1783 44.6968 62.173 47.2868 62.1664ZM119.152 44.4831L96.6122 44.5405L96.6202 47.6905L117.13 47.6382L117.164 60.9382L96.6541 60.9905L96.6622 64.1405L119.202 64.083L119.24 78.783L78.0097 78.8881L77.8848 29.8883L119.115 29.7831L119.152 44.4831ZM97.4387 11.7783L114.729 11.7342L104.756 26.3197L92.0858 26.352L97.4387 11.7783ZM180.31 29.6271L209.99 29.5514L210.115 78.5512L191.425 78.5989L191.342 46.259L190.922 46.2601L184.425 78.6167L164.615 78.6673L157.882 46.3443L157.462 46.3454L157.545 78.6853L138.855 78.7329L138.73 29.7331L168.48 29.6572L174.222 57.9927L174.712 57.9914L180.31 29.6271ZM249.202 78.4516L247.363 70.6862L234.063 70.7201L232.262 78.4948L212.242 78.5458L226.818 29.5085L254.397 29.4382L269.222 78.4005L249.202 78.4516ZM237.385 56.0816L243.965 56.0649L241.63 46.1308L239.67 46.1358L237.385 56.0816ZM300.39 78.321L294.057 65.2472C292.867 65.2502 291.327 65.2541 289.997 65.2575L290.03 78.3475L271.34 78.3951L271.215 29.3953C271.215 29.3953 295.925 29.3323 296.205 29.3316C310.415 29.2953 317.36 35.2276 317.391 47.2676C317.408 53.7776 315.39 58.4727 311.337 61.4231L320.41 78.27L300.39 78.321ZM294.421 43.3362C293.371 43.3388 291.551 43.3435 289.941 43.3476L289.961 51.2575C291.571 51.2534 293.391 51.2488 294.441 51.2461C297.521 51.2383 299.199 50.184 299.191 47.314C299.184 44.374 297.501 43.3283 294.421 43.3362ZM375.156 53.6303C375.176 61.4003 372.183 68.1279 367.014 72.6911L374.605 84.7818L354.585 84.8329L351.491 79.3107C350.232 79.454 348.972 79.5272 347.642 79.5306C331.262 79.5723 320.034 68.7509 319.996 53.771C319.958 38.791 331.13 27.9125 347.51 27.8707C363.89 27.829 375.118 38.6504 375.156 53.6303ZM339.526 53.7212C339.538 58.2712 343.187 61.9719 347.597 61.9606C352.007 61.9494 355.638 58.2301 355.626 53.6801C355.614 49.1301 352.455 45.4282 347.555 45.4407C342.655 45.4532 339.514 49.1712 339.526 53.7212ZM406.009 29.0516L424.629 29.0041L424.697 55.534C424.737 71.354 418.038 79.3511 401.238 79.3939C384.438 79.4367 377.627 71.4741 377.587 55.6541L377.519 29.1242L396.209 29.0766L396.277 55.6065C396.288 59.9465 398.043 61.972 401.193 61.964C404.343 61.9559 406.088 59.9215 406.077 55.5815L406.009 29.0516ZM469.375 43.59L446.835 43.6475L446.843 46.7975L467.353 46.7452L467.387 60.0452L446.877 60.0975L446.885 63.2474L469.425 63.19L469.463 77.8899L428.233 77.9951L428.108 28.9952L469.338 28.8901L469.375 43.59ZM516.876 61.109L516.919 77.7689L471.909 77.8837L471.861 59.1937L490.798 46.0554L490.797 45.6354L473.157 45.6804L473.114 28.8805L514.764 28.7743L514.813 48.2342L495.175 60.6743L495.176 61.1643L516.876 61.109ZM163.169 224.671L161.329 216.906L148.029 216.94L146.229 224.715L126.209 224.766L140.784 175.728L168.364 175.658L183.189 224.62L163.169 224.671ZM151.352 202.301L157.932 202.285L155.596 192.351L153.636 192.356L151.352 202.301ZM211.552 175.548L230.172 175.5L230.24 202.03C230.28 217.85 223.581 225.847 206.781 225.89C189.981 225.933 183.171 217.97 183.13 202.15L183.063 175.621L201.753 175.573L201.82 202.103C201.831 206.443 203.586 208.468 206.736 208.46C209.886 208.452 211.631 206.418 211.62 202.078L211.552 175.548ZM277.07 175.381C293.8 175.338 302.714 184.695 302.752 199.815C302.791 214.935 293.925 224.338 277.195 224.381C276.705 224.382 250.595 224.448 250.595 224.448L250.47 175.449C250.47 175.449 276.58 175.382 277.07 175.381ZM274.562 207.587C280.792 207.571 283.304 204.415 283.293 199.865C283.281 195.315 280.753 192.171 274.523 192.187C271.933 192.194 269.833 192.199 269.203 192.201L269.242 207.601C269.872 207.599 271.972 207.594 274.562 207.587ZM346.428 189.904L323.888 189.961L323.896 193.111L344.406 193.059L344.44 206.359L323.93 206.411L323.938 209.561L346.478 209.504L346.515 224.204L305.285 224.309L305.16 175.309L346.39 175.204L346.428 189.904ZM373.115 225.466C354.705 225.513 348.239 215.589 348.219 207.68C353.259 207.667 365.859 207.635 365.859 207.635C365.867 210.925 368.95 211.967 371.4 211.96C373.99 211.954 375.248 211.111 375.244 209.571C375.238 207.261 372.157 206.848 366.693 205.322C355.135 202.132 350.087 198.855 350.066 190.805C350.025 174.635 364.653 173.827 372.633 173.807C382.713 173.781 394.063 177.673 394.096 190.552C388.356 190.567 376.806 190.597 376.806 190.597C376.799 188.077 374.906 186.751 372.596 186.757C370.426 186.763 369.028 187.536 369.033 189.426C369.039 191.876 374.222 192.913 378.914 194.021C383.607 195.129 395.58 196.359 395.611 208.329C395.647 222.329 385.784 225.434 373.115 225.466ZM397.997 175.072L416.687 175.025L416.812 224.025L398.122 224.072L397.997 175.072ZM448.158 206.655L448.135 197.765L472.915 197.702L472.982 223.881L461.012 223.912L461.004 220.902C457.511 223.641 452.895 225.263 446.945 225.278C430.565 225.32 419.268 214.498 419.229 199.518C419.191 184.538 430.433 173.66 446.813 173.618C461.513 173.581 471.967 182.934 472.907 194.692L454.217 194.739C453.302 192.852 451.058 191.247 447.418 191.257C442.728 191.268 439.587 194.776 439.599 199.466C439.611 204.156 441.933 208.911 447.464 209.036C449.774 209.101 451.382 208.396 452.36 207.414L452.358 206.644L448.158 206.655ZM511.902 174.782L530.592 174.734L530.717 223.734L507.337 223.794L495.585 199.464L495.095 199.465L495.157 223.825L476.467 223.873L476.342 174.873L500.352 174.811L511.474 199.143L511.964 199.142L511.902 174.782Z" fill="url(#paint4_linear_2993_4489)"/>
<path d="M12.1935 126.226L46.5634 126.138L46.5957 138.808L12.2258 138.896L12.1935 126.226ZM81.8017 102.879L102.872 102.825L87.5966 151.864L60.6467 151.933L45.1218 102.972L66.2617 102.918L73.4842 135.24L74.7442 135.237L81.8017 102.879ZM128.012 101.431C144.392 101.389 155.619 112.21 155.658 127.19C155.696 142.17 144.523 153.049 128.144 153.09C111.764 153.132 100.536 142.311 100.498 127.331C100.46 112.351 111.632 101.472 128.012 101.431ZM128.099 135.521C132.509 135.509 136.139 131.79 136.128 127.24C136.116 122.69 132.957 118.988 128.057 119.001C123.157 119.013 120.016 122.731 120.028 127.281C120.039 131.831 123.689 135.532 128.099 135.521ZM186.511 102.612L205.131 102.564L205.199 129.094C205.239 144.914 198.539 152.911 181.739 152.954C164.939 152.997 158.129 145.034 158.089 129.214L158.021 102.684L176.711 102.636L176.779 129.166C176.79 133.506 178.545 135.532 181.695 135.524C184.845 135.516 186.59 133.481 186.579 129.141L186.511 102.612ZM232.538 152.824C214.128 152.871 207.663 142.948 207.642 135.038C212.682 135.025 225.282 134.993 225.282 134.993C225.291 138.283 228.373 139.325 230.823 139.319C233.413 139.312 234.671 138.469 234.667 136.929C234.661 134.619 231.58 134.207 226.116 132.681C214.558 129.49 209.51 126.213 209.489 118.163C209.448 101.993 224.076 101.186 232.056 101.165C242.136 101.14 253.486 105.031 253.519 117.911C247.779 117.925 236.229 117.955 236.229 117.955C236.222 115.435 234.329 114.11 232.019 114.115C229.849 114.121 228.451 114.895 228.456 116.785C228.462 119.235 233.645 120.271 238.338 121.379C243.03 122.487 255.004 123.717 255.034 135.687C255.07 149.687 245.208 152.792 232.538 152.824ZM302.181 134.027L302.158 125.137L326.938 125.074L327.005 151.253L315.035 151.284L315.027 148.274C311.534 151.013 306.918 152.635 300.968 152.65C284.588 152.692 273.29 141.87 273.252 126.89C273.214 111.91 284.456 101.032 300.836 100.99C315.536 100.952 325.99 110.306 326.93 122.064L308.24 122.111C307.325 120.223 305.081 118.619 301.441 118.628C296.751 118.64 293.61 122.148 293.622 126.838C293.634 131.528 295.956 136.283 301.487 136.408C303.797 136.473 305.405 135.768 306.383 134.786L306.381 134.016L302.181 134.027ZM359.54 151.17L353.207 138.097C352.017 138.1 350.477 138.104 349.147 138.107L349.18 151.197L330.49 151.245L330.365 102.245C330.365 102.245 355.075 102.182 355.355 102.181C369.565 102.145 376.51 108.077 376.541 120.117C376.558 126.627 374.54 131.322 370.487 134.272L379.56 151.119L359.54 151.17ZM353.571 116.186C352.521 116.188 350.701 116.193 349.091 116.197L349.111 124.107C350.721 124.103 352.541 124.098 353.591 124.096C356.671 124.088 358.349 123.033 358.341 120.163C358.334 117.223 356.651 116.178 353.571 116.186ZM413.699 151.032L411.859 143.267L398.56 143.301L396.759 151.076L376.739 151.127L391.314 102.089L418.894 102.019L433.719 150.981L413.699 151.032ZM401.882 128.662L408.462 128.646L406.127 118.712L404.167 118.717L401.882 128.662ZM408.455 98.5456L405.565 90.6429L404.585 90.6454L401.665 98.5629L384.306 98.6071L394.278 84.0217L415.768 83.9669L425.815 98.5013L408.455 98.5456ZM459.399 134.606C463.459 134.595 465.274 132.351 466.247 129.688L484.937 129.641C483.99 142.593 473.584 152.21 458.884 152.247C442.504 152.289 431.277 141.468 431.238 126.488C431.2 111.508 442.373 100.629 458.753 100.587C473.452 100.55 483.907 110.113 484.92 123.061L466.23 123.108C465.243 120.451 463.417 118.215 459.357 118.226C454.668 118.238 451.596 121.746 451.608 126.436C451.62 131.126 454.709 134.618 459.399 134.606ZM528.594 116.439L506.054 116.497L506.062 119.647L526.572 119.594L526.606 132.894L506.096 132.947L506.104 136.097L528.644 136.039L528.681 150.739L487.451 150.844L487.326 101.844L528.556 101.739L528.594 116.439Z" fill="white"/>
</g>
<g filter="url(#filter6_di_2993_4489)">
<path d="M84.6571 223.652C84.7041 223.697 86.1461 224.046 87.8612 224.426C89.5765 224.806 90.9985 225.059 91.0213 224.988C91.044 224.917 91.2215 223.77 91.4155 222.437C91.8054 219.762 92.7493 216.638 93.7579 214.685C96.9016 208.597 102.542 204.565 109.383 203.518L111.125 203.251V200.561V197.871L109.547 197.616C99.2017 195.943 92.4574 188.485 91.1958 177.325C91.1135 176.596 91.015 176 90.9771 176C90.6282 176 84.8472 177.343 84.7379 177.45C84.6588 177.527 84.7176 178.21 84.8688 178.968C86.5416 187.359 91.3315 194.187 97.5472 197.042L99.0382 197.727C83.1049 197.748 35.272 197.76 19.3388 197.781L11.1255 197.815V203.258L19.3886 203.292L99.0157 203.346L97.1334 204.265C92.2501 206.651 88.3839 211.33 86.1071 217.61C85.4583 219.4 84.4794 223.479 84.6571 223.652Z" fill="white"/>
</g>
</g>
<defs>
<filter id="filter0_d_2993_4489" x="1.12549" y="0.675781" width="550.455" height="245.711" filterUnits="userSpaceOnUse" color-interpolation-filters="sRGB">
<feFlood flood-opacity="0" result="BackgroundImageFix"/>
<feColorMatrix in="SourceAlpha" type="matrix" values="0 0 0 0 0 0 0 0 0 0 0 0 0 0 0 0 0 0 127 0" result="hardAlpha"/>
<feOffset dx="5" dy="5"/>
<feGaussianBlur stdDeviation="7.5"/>
<feComposite in2="hardAlpha" operator="out"/>
<feColorMatrix type="matrix" values="0 0 0 0 0 0 0 0 0 0 0 0 0 0 0 0 0 0 0.8 0"/>
<feBlend mode="normal" in2="BackgroundImageFix" result="effect1_dropShadow_2993_4489"/>
<feBlend mode="normal" in="SourceGraphic" in2="effect1_dropShadow_2993_4489" result="shape"/>
</filter>
<filter id="filter1_di_2993_4489" x="518.126" y="10" width="25.4548" height="25.4551" filterUnits="userSpaceOnUse" color-interpolation-filters="sRGB">
<feFlood flood-opacity="0" result="BackgroundImageFix"/>
<feColorMatrix in="SourceAlpha" type="matrix" values="0 0 0 0 0 0 0 0 0 0 0 0 0 0 0 0 0 0 127 0" result="hardAlpha"/>
<feOffset dx="4" dy="4"/>
<feGaussianBlur stdDeviation="4"/>
<feComposite in2="hardAlpha" operator="out"/>
<feColorMatrix type="matrix" values="0 0 0 0 0 0 0 0 0 0 0 0 0 0 0 0 0 0 1 0"/>
<feBlend mode="normal" in2="BackgroundImageFix" result="effect1_dropShadow_2993_4489"/>
<feBlend mode="normal" in="SourceGraphic" in2="effect1_dropShadow_2993_4489" result="shape"/>
<feColorMatrix in="SourceAlpha" type="matrix" values="0 0 0 0 0 0 0 0 0 0 0 0 0 0 0 0 0 0 127 0" result="hardAlpha"/>
<feOffset dy="0.35"/>
<feGaussianBlur stdDeviation="0.25"/>
<feComposite in2="hardAlpha" operator="arithmetic" k2="-1" k3="1"/>
<feColorMatrix type="matrix" values="0 0 0 0 1 0 0 0 0 1 0 0 0 0 1 0 0 0 1 0"/>
<feBlend mode="normal" in2="shape" result="effect2_innerShadow_2993_4489"/>
</filter>
<filter id="filter2_di_2993_4489" x="120.126" y="11" width="25.4548" height="25.4551" filterUnits="userSpaceOnUse" color-interpolation-filters="sRGB">
<feFlood flood-opacity="0" result="BackgroundImageFix"/>
<feColorMatrix in="SourceAlpha" type="matrix" values="0 0 0 0 0 0 0 0 0 0 0 0 0 0 0 0 0 0 127 0" result="hardAlpha"/>
<feOffset dx="4" dy="4"/>
<feGaussianBlur stdDeviation="4"/>
<feComposite in2="hardAlpha" operator="out"/>
<feColorMatrix type="matrix" values="0 0 0 0 0 0 0 0 0 0 0 0 0 0 0 0 0 0 1 0"/>
<feBlend mode="normal" in2="BackgroundImageFix" result="effect1_dropShadow_2993_4489"/>
<feBlend mode="normal" in="SourceGraphic" in2="effect1_dropShadow_2993_4489" result="shape"/>
<feColorMatrix in="SourceAlpha" type="matrix" values="0 0 0 0 0 0 0 0 0 0 0 0 0 0 0 0 0 0 127 0" result="hardAlpha"/>
<feOffset dy="0.35"/>
<feGaussianBlur stdDeviation="0.25"/>
<feComposite in2="hardAlpha" operator="arithmetic" k2="-1" k3="1"/>
<feColorMatrix type="matrix" values="0 0 0 0 1 0 0 0 0 1 0 0 0 0 1 0 0 0 1 0"/>
<feBlend mode="normal" in2="shape" result="effect2_innerShadow_2993_4489"/>
</filter>
<filter id="filter3_di_2993_4489" x="518.126" y="79" width="25.4548" height="25.4551" filterUnits="userSpaceOnUse" color-interpolation-filters="sRGB">
<feFlood flood-opacity="0" result="BackgroundImageFix"/>
<feColorMatrix in="SourceAlpha" type="matrix" values="0 0 0 0 0 0 0 0 0 0 0 0 0 0 0 0 0 0 127 0" result="hardAlpha"/>
<feOffset dx="4" dy="4"/>
<feGaussianBlur stdDeviation="4"/>
<feComposite in2="hardAlpha" operator="out"/>
<feColorMatrix type="matrix" values="0 0 0 0 0 0 0 0 0 0 0 0 0 0 0 0 0 0 1 0"/>
<feBlend mode="normal" in2="BackgroundImageFix" result="effect1_dropShadow_2993_4489"/>
<feBlend mode="normal" in="SourceGraphic" in2="effect1_dropShadow_2993_4489" result="shape"/>
<feColorMatrix in="SourceAlpha" type="matrix" values="0 0 0 0 0 0 0 0 0 0 0 0 0 0 0 0 0 0 127 0" result="hardAlpha"/>
<feOffset dy="0.35"/>
<feGaussianBlur stdDeviation="0.25"/>
<feComposite in2="hardAlpha" operator="arithmetic" k2="-1" k3="1"/>
<feColorMatrix type="matrix" values="0 0 0 0 1 0 0 0 0 1 0 0 0 0 1 0 0 0 1 0"/>
<feBlend mode="normal" in2="shape" result="effect2_innerShadow_2993_4489"/>
</filter>
<filter id="filter4_di_2993_4489" x="120.126" y="79" width="25.4548" height="25.4551" filterUnits="userSpaceOnUse" color-interpolation-filters="sRGB">
<feFlood flood-opacity="0" result="BackgroundImageFix"/>
<feColorMatrix in="SourceAlpha" type="matrix" values="0 0 0 0 0 0 0 0 0 0 0 0 0 0 0 0 0 0 127 0" result="hardAlpha"/>
<feOffset dx="4" dy="4"/>
<feGaussianBlur stdDeviation="4"/>
<feComposite in2="hardAlpha" operator="out"/>
<feColorMatrix type="matrix" values="0 0 0 0 0 0 0 0 0 0 0 0 0 0 0 0 0 0 1 0"/>
<feBlend mode="normal" in2="BackgroundImageFix" result="effect1_dropShadow_2993_4489"/>
<feBlend mode="normal" in="SourceGraphic" in2="effect1_dropShadow_2993_4489" result="shape"/>
<feColorMatrix in="SourceAlpha" type="matrix" values="0 0 0 0 0 0 0 0 0 0 0 0 0 0 0 0 0 0 127 0" result="hardAlpha"/>
<feOffset dy="0.35"/>
<feGaussianBlur stdDeviation="0.25"/>
<feComposite in2="hardAlpha" operator="arithmetic" k2="-1" k3="1"/>
<feColorMatrix type="matrix" values="0 0 0 0 1 0 0 0 0 1 0 0 0 0 1 0 0 0 1 0"/>
<feBlend mode="normal" in2="shape" result="effect2_innerShadow_2993_4489"/>
</filter>
<filter id="filter5_bd_2993_4489" x="-8.09766" y="-9.32422" width="558.818" height="255.711" filterUnits="userSpaceOnUse" color-interpolation-filters="sRGB">
<feFlood flood-opacity="0" result="BackgroundImageFix"/>
<feGaussianBlur in="BackgroundImageFix" stdDeviation="10"/>
<feComposite in2="SourceAlpha" operator="in" result="effect1_backgroundBlur_2993_4489"/>
<feColorMatrix in="SourceAlpha" type="matrix" values="0 0 0 0 0 0 0 0 0 0 0 0 0 0 0 0 0 0 127 0" result="hardAlpha"/>
<feOffset dy="4"/>
<feGaussianBlur stdDeviation="5.5"/>
<feComposite in2="hardAlpha" operator="out"/>
<feColorMatrix type="matrix" values="0 0 0 0 0 0 0 0 0 0 0 0 0 0 0 0 0 0 0.5 0"/>
<feBlend mode="normal" in2="effect1_backgroundBlur_2993_4489" result="effect2_dropShadow_2993_4489"/>
<feBlend mode="normal" in="SourceGraphic" in2="effect2_dropShadow_2993_4489" result="shape"/>
</filter>
<filter id="filter6_di_2993_4489" x="7.12549" y="172" width="116" height="65" filterUnits="userSpaceOnUse" color-interpolation-filters="sRGB">
<feFlood flood-opacity="0" result="BackgroundImageFix"/>
<feColorMatrix in="SourceAlpha" type="matrix" values="0 0 0 0 0 0 0 0 0 0 0 0 0 0 0 0 0 0 127 0" result="hardAlpha"/>
<feOffset dx="4" dy="4"/>
<feGaussianBlur stdDeviation="4"/>
<feComposite in2="hardAlpha" operator="out"/>
<feColorMatrix type="matrix" values="0 0 0 0 0 0 0 0 0 0 0 0 0 0 0 0 0 0 1 0"/>
<feBlend mode="normal" in2="BackgroundImageFix" result="effect1_dropShadow_2993_4489"/>
<feBlend mode="normal" in="SourceGraphic" in2="effect1_dropShadow_2993_4489" result="shape"/>
<feColorMatrix in="SourceAlpha" type="matrix" values="0 0 0 0 0 0 0 0 0 0 0 0 0 0 0 0 0 0 127 0" result="hardAlpha"/>
<feOffset dy="0.35"/>
<feGaussianBlur stdDeviation="0.25"/>
<feComposite in2="hardAlpha" operator="arithmetic" k2="-1" k3="1"/>
<feColorMatrix type="matrix" values="0 0 0 0 1 0 0 0 0 1 0 0 0 0 1 0 0 0 1 0"/>
<feBlend mode="normal" in2="shape" result="effect2_innerShadow_2993_4489"/>
</filter>
<linearGradient id="paint0_linear_2993_4489" x1="529.217" y1="13.7072" x2="532.787" y2="21.6531" gradientUnits="userSpaceOnUse">
<stop stop-color="white"/>
<stop offset="0.505" stop-color="#B7B7B7"/>
<stop offset="1" stop-color="#666666"/>
</linearGradient>
<linearGradient id="paint1_linear_2993_4489" x1="131.217" y1="14.7072" x2="134.787" y2="22.6531" gradientUnits="userSpaceOnUse">
<stop stop-color="white"/>
<stop offset="0.505" stop-color="#B7B7B7"/>
<stop offset="1" stop-color="#666666"/>
</linearGradient>
<linearGradient id="paint2_linear_2993_4489" x1="529.217" y1="82.7072" x2="532.787" y2="90.6531" gradientUnits="userSpaceOnUse">
<stop stop-color="white"/>
<stop offset="0.505" stop-color="#B7B7B7"/>
<stop offset="1" stop-color="#666666"/>
</linearGradient>
<linearGradient id="paint3_linear_2993_4489" x1="131.217" y1="82.7072" x2="134.787" y2="90.6531" gradientUnits="userSpaceOnUse">
<stop stop-color="white"/>
<stop offset="0.505" stop-color="#B7B7B7"/>
<stop offset="1" stop-color="#666666"/>
</linearGradient>
<linearGradient id="paint4_linear_2993_4489" x1="25" y1="80" x2="523" y2="29" gradientUnits="userSpaceOnUse">
<stop stop-color="#DCC4FF"/>
<stop offset="0.5" stop-color="#B0F5FF"/>
<stop offset="1" stop-color="#E1FF8B"/>
</linearGradient>
</defs>
</svg>
