<svg width="194" height="67" viewBox="0 0 194 67" fill="none" xmlns="http://www.w3.org/2000/svg">
<g filter="url(#filter0_i_3654_5141)">
<path d="M13.1709 9.63219L22.2489 9.61402L22.3262 33.4139L13.2482 33.4321L13.1709 9.63219ZM36.8832 9.58472C45.0092 9.56846 49.342 14.1158 49.3658 21.4598C49.3897 28.8037 45.0865 33.3683 36.9605 33.3846C36.7225 33.3851 24.0405 33.4105 24.0405 33.4105L23.9632 9.61059C23.9632 9.61059 36.6452 9.5852 36.8832 9.58472ZM35.676 25.2272C38.702 25.2211 39.921 23.6887 39.9138 21.4787C39.9066 19.2687 38.6777 17.7411 35.6517 17.7472C34.3937 17.7497 33.3737 17.7518 33.0677 17.7524L33.092 25.2323C33.398 25.2317 34.418 25.2297 35.676 25.2272ZM70.5761 16.6573L59.6282 16.6792L59.6331 18.2092L69.5951 18.1893L69.6161 24.6492L59.6541 24.6692L59.6591 26.1992L70.6071 26.1772L70.6302 33.3172L50.6043 33.3573L50.527 9.55741L70.5529 9.51733L70.5761 16.6573ZM89.183 9.48003L98.261 9.46186L98.3383 33.2617L86.9824 33.2845L81.2659 21.4639L81.0279 21.4644L81.0664 33.2963L71.9884 33.3145L71.9111 9.51461L83.573 9.49126L88.9835 21.3124L89.2215 21.312L89.183 9.48003ZM123.259 9.41182L123.285 17.5038L115.907 17.5186L115.958 33.2265L106.914 33.2446L106.863 17.5367L99.4853 17.5514L99.459 9.45947L123.259 9.41182ZM124.441 9.40946L133.519 9.39129L133.596 33.1912L124.518 33.2093L124.441 9.40946ZM158.523 9.34123L158.55 17.4332L151.172 17.448L151.223 33.1559L142.179 33.174L142.128 17.4661L134.75 17.4808L134.723 9.38888L158.523 9.34123ZM181.352 16.4355L168.772 16.4607L168.777 17.9907L180.371 17.9675L180.392 24.4275L168.798 24.4507L168.803 26.0147L181.383 25.9895L181.407 33.0955L159.783 33.1387L159.705 9.33887L181.329 9.29558L181.352 16.4355ZM170.217 0.545816L178.615 0.529006L173.776 7.6107L167.622 7.62302L170.217 0.545816Z" fill="white"/>
<path d="M19.9142 41.6187L30.1482 41.5982L22.0995 65.4144L8.36357 65.4419L0.16028 41.6583L10.3943 41.6378L14.5593 57.3375L15.8513 57.3349L19.9142 41.6187ZM47.7743 49.655L44.0003 49.6625L44.025 57.2785L47.799 57.2709L47.8253 65.3629L31.2333 65.3961L31.207 57.3041L34.981 57.2966L34.9563 49.6806L31.1823 49.6882L31.156 41.5962L47.748 41.563L47.7743 49.655ZM61.7715 65.947C52.7955 65.9649 49.0059 61.1785 48.9933 57.3025C51.4753 57.2976 57.5613 57.2854 57.5613 57.2854C57.5666 58.9174 59.4043 59.4237 60.9343 59.4206C62.6683 59.4172 63.4489 59.0076 63.4464 58.2256C63.4429 57.1376 60.6201 56.9053 57.9658 56.1966C52.3507 54.6438 49.8975 53.0507 49.8847 49.1067C49.8593 41.2868 57.6441 40.8972 61.5201 40.8894C66.4161 40.8796 72.5763 42.7713 72.5966 49.0273C69.8086 49.0329 64.1986 49.0441 64.1986 49.0441C64.1946 47.8201 62.9344 47.1426 61.5064 47.1455C60.0444 47.1484 59.0936 47.5243 59.0966 48.4423C59.101 49.8023 62.9442 50.1686 65.224 50.708C67.5037 51.2135 73.3197 51.8478 73.3386 57.6618C73.3607 64.4618 67.8915 65.9347 61.7715 65.947ZM90.9106 41.4766L99.9546 41.4585L99.9944 53.6984C100.021 61.7564 95.716 65.913 87.318 65.9298C78.886 65.9467 74.5546 61.8074 74.5284 53.7494L74.4886 41.5095L83.5666 41.4913L83.6064 53.7313C83.6151 56.4172 85.1485 57.4682 87.2905 57.4639C89.4325 57.4596 90.9591 56.4025 90.9504 53.7166L90.9106 41.4766ZM123.297 48.5518L110.717 48.577L110.722 50.107L122.316 50.0838L122.337 56.5437L110.743 56.5669L110.748 58.1309L123.328 58.1057L123.351 65.2117L101.727 65.255L101.65 41.4551L123.274 41.4118L123.297 48.5518ZM133.757 57.0989L147.289 57.0718L147.315 65.1637L124.705 65.209L124.628 41.4091L133.706 41.391L133.757 57.0989ZM157.565 57.0512L171.097 57.0241L171.123 65.1161L148.513 65.1613L148.436 41.3615L157.514 41.3433L157.565 57.0512ZM193.891 48.4105L181.311 48.4357L181.316 49.9657L192.91 49.9425L192.931 56.4024L181.337 56.4256L181.342 57.9896L193.922 57.9644L193.945 65.0704L172.321 65.1137L172.244 41.3138L193.868 41.2705L193.891 48.4105Z" fill="url(#paint0_linear_3654_5141)"/>
</g>
<defs>
<filter id="filter0_i_3654_5141" x="0.0273438" y="0.498047" width="194.216" height="65.9011" filterUnits="userSpaceOnUse" color-interpolation-filters="sRGB">
<feFlood flood-opacity="0" result="BackgroundImageFix"/>
<feBlend mode="normal" in="SourceGraphic" in2="BackgroundImageFix" result="shape"/>
<feColorMatrix in="SourceAlpha" type="matrix" values="0 0 0 0 0 0 0 0 0 0 0 0 0 0 0 0 0 0 127 0" result="hardAlpha"/>
<feOffset dx="0.295585" dy="0.295585"/>
<feGaussianBlur stdDeviation="0.369481"/>
<feComposite in2="hardAlpha" operator="arithmetic" k2="-1" k3="1"/>
<feColorMatrix type="matrix" values="0 0 0 0 1 0 0 0 0 1 0 0 0 0 1 0 0 0 1 0"/>
<feBlend mode="normal" in2="shape" result="effect1_innerShadow_3654_5141"/>
</filter>
<linearGradient id="paint0_linear_3654_5141" x1="96.9671" y1="66.1565" x2="96.8262" y2="43.2534" gradientUnits="userSpaceOnUse">
<stop stop-color="#E1FF8B"/>
<stop offset="1" stop-color="#F0FFC4"/>
</linearGradient>
</defs>
</svg>
