<svg width="127" height="29" viewBox="0 0 127 29" fill="none" xmlns="http://www.w3.org/2000/svg">
<path d="M2.43456 2.09375C3.90665 1.19508 5.72387 1.20056 7.25292 2C8.57427 2.69101 9.61674 3.67365 10.6055 4.79102C12.0849 6.46155 13.3417 8.21687 14.5547 10.1006L19.0078 17.0166C19.8569 18.3361 20.7226 19.5379 21.6709 20.7803V20.7783C23.1981 22.6933 24.8707 24.6544 27.2305 25.5439C25.3724 26.9774 23.2618 27.6644 21.0381 27.9033C20.6854 27.9419 20.3562 27.9996 19.9502 28.0234C19.252 28.062 18.6746 27.9038 18.0664 27.8652C16.1149 27.7439 14.4887 27.0087 13.0976 25.6582C11.9564 24.55 10.954 23.357 10.0185 22.0576L9.09081 20.7695L5.03808 14.9248L0.88671 9.0918C0.193883 8.1196 -0.14627 6.89161 0.0595617 5.75586C0.338949 4.22506 1.11508 2.90051 2.43456 2.09375ZM114.319 7.25195C116.249 6.75769 118.243 6.73401 120.169 7.24121C122.655 7.89734 124.486 9.59531 125.318 12.0137C125.671 13.0391 125.866 14.0703 125.991 15.1729L126.029 17.6914L113.382 17.6943C113.553 19.0744 114.451 20.1202 115.739 20.5742C116.965 20.9896 118.25 20.9753 119.588 20.7383V20.7402C120.808 20.426 121.873 19.9827 122.972 19.2861L125.091 23.7139C122.772 25.1896 120.202 25.8396 117.508 25.8213C113.417 25.7459 109.665 23.7191 108.421 19.709C106.839 14.6146 108.78 8.67442 114.319 7.25195ZM105.332 0.00390625V25.2354L99.5615 25.248L99.5098 22.7637C98.4401 24.5994 96.6424 25.6026 94.5566 25.7754C92.2447 25.9665 89.9584 25.3985 88.1904 23.8125C86.8232 22.5867 86.1068 21.0391 85.6767 19.3135C84.9858 16.5439 85.2115 13.7265 86.4502 11.1572C87.415 9.15786 89.1057 7.74263 91.2685 7.17285C94.5113 6.41957 97.5655 6.86395 99.5283 9.80762L99.5615 0L105.332 0.00390625ZM68.666 7.24609C70.3273 6.7647 72.0952 6.70748 73.751 7.19629C75.1753 7.61715 76.2709 8.53509 77.1016 9.7793V9.77734L77.1543 7.43164L82.956 7.4209L82.9404 25.2363L77.1855 25.248L77.0957 22.8291C75.9985 24.6118 74.2725 25.5677 72.2344 25.7588C69.7314 25.9958 67.2871 25.2788 65.4824 23.5127C64.3798 22.4321 63.7588 21.0794 63.3545 19.5908C62.5459 16.6044 62.8011 13.4784 64.2842 10.7529C65.2288 9.01803 66.7675 7.79744 68.666 7.24609ZM53.0185 18.5312L56.8721 7.43262L63.2842 7.43555L55.9512 25.2041L50.1387 25.2021L42.8115 7.45215L49.2139 7.41992L53.0185 18.5312ZM34.8389 1.42383L34.8408 1.42578C35.6456 1.42597 36.3203 2.33221 36.0117 3.11133L28.873 21.1455C28.7536 21.4486 28.5848 21.537 28.3975 21.5371C28.1953 21.5371 27.9693 21.3846 27.9473 21.1016L26.9844 8.6084L16.4473 2.27344C16.2343 2.14476 16.1959 1.91079 16.251 1.71973C16.2971 1.55998 16.4664 1.41699 16.7217 1.41699L34.8389 1.42383ZM75.3369 12.9287C73.659 11.8224 71.3907 11.9011 69.9756 13.4209C68.6138 14.882 68.537 17.1871 69.625 18.7988C70.4501 20.0227 71.7345 20.5262 73.1973 20.4473C75.6526 20.3149 77.2295 18.3486 76.9961 15.9834C76.873 14.7447 76.4249 13.6455 75.3369 12.9287ZM96.126 12.2471C94.8636 12.0138 93.6014 12.308 92.6367 13.1348C91.7307 13.9103 91.2987 15.059 91.2803 16.3086C91.2509 18.3833 92.6067 20.0243 94.6611 20.3682C96.0707 20.6034 97.4957 20.2413 98.4551 19.0449V19.0439C99.4897 17.7539 99.6618 15.9894 99.0371 14.5137C98.506 13.2603 97.4418 12.4915 96.126 12.2471ZM117.423 11.0566C117.107 10.9997 116.811 11.0108 116.499 11.0732L116.5 11.0752C114.758 11.1765 113.451 12.5489 113.451 14.2891L120.378 14.2764C120.402 12.5029 119.093 11.1761 117.423 11.0566Z" fill="url(#paint0_linear_2137_8478)"/>
<defs>
<linearGradient id="paint0_linear_2137_8478" x1="147.206" y1="28.0294" x2="-3.66773" y2="-10.0308" gradientUnits="userSpaceOnUse">
<stop stop-color="#9995C5" stop-opacity="0.772549"/>
<stop offset="0.449491" stop-color="white" stop-opacity="0.935136"/>
<stop offset="0.67446" stop-color="white"/>
<stop offset="1" stop-color="#9995C5"/>
</linearGradient>
</defs>
</svg>
