<svg width="161" height="36" viewBox="0 0 161 36" fill="none" xmlns="http://www.w3.org/2000/svg">
<path d="M45.5145 17.0888C45.557 16.8183 45.5994 16.5478 45.6419 16.2773C46.151 13.0607 48.1088 11.026 51.1879 9.944C53.1215 9.26185 55.1279 9.14424 57.1584 9.38534C57.8373 9.46766 58.5101 9.59705 59.1889 9.69114C59.4253 9.72642 59.5283 9.81463 59.5223 10.0557C59.5102 10.5026 59.5223 10.9554 59.5223 11.4612C59.3465 11.4141 59.2253 11.3906 59.1101 11.3553C58.007 10.979 56.8796 10.6673 55.7097 10.6497C52.6003 10.6026 49.0301 11.9551 48.2482 16.148C47.9269 17.871 48.1148 19.5293 49.0059 21.07C49.9029 22.6107 51.3395 23.4516 53.067 23.8632C55.1703 24.3689 57.2008 24.169 59.1344 23.187C59.2314 23.134 59.3404 23.0988 59.5162 23.0282C59.5162 23.6633 59.5284 24.2455 59.4981 24.8218C59.4981 24.91 59.292 25.0276 59.1647 25.0746C57.8797 25.5098 56.5583 25.7097 55.2005 25.6862C53.0245 25.645 50.9516 25.2275 49.115 24.0455C46.9572 22.6518 45.8297 20.6642 45.5933 18.1767C45.5812 18.0415 45.5448 17.9062 45.5206 17.771C45.5206 17.5475 45.5206 17.3182 45.5206 17.0947L45.5145 17.0888Z" fill="url(#paint0_linear_2137_8465)"/>
<path d="M11.8378 17.8651C11.8378 18.1826 11.8439 18.5061 11.8378 18.8236C11.8318 19.0059 11.8015 19.1941 11.7651 19.3764C11.6863 19.7527 11.6135 20.1291 11.4983 20.4937C11.3468 20.9759 11.1225 21.4346 10.7225 21.7756C10.5891 21.8874 10.4437 21.9932 10.3164 22.1108C9.9891 22.399 9.57692 22.5166 9.16475 22.6165C8.9526 22.6695 8.72228 22.6695 8.49801 22.6753C8.37073 22.6753 8.23735 22.6753 8.16461 22.7988C7.85548 23.3398 7.31604 23.5692 6.74628 23.7221C5.98255 23.9279 5.20671 24.0044 4.41267 23.9514C3.79442 23.9103 3.21254 23.7456 2.67914 23.4281C2.55791 23.3575 2.43063 23.3104 2.30941 23.2458C1.87905 23.0164 1.54564 22.6812 1.2062 22.346C0.891011 22.0344 0.642485 21.6815 0.436399 21.2993C0.339417 21.1288 0.297015 20.9288 0.236401 20.7406C0.181849 20.5642 0.11518 20.3878 0.0909349 20.2055C0.0545669 19.935 0.0545876 19.6586 0.0364036 19.3822C0.0242809 19.2058 0.0121227 19.0353 0 18.8589C0 18.8295 5.91942e-06 18.7942 0.00606726 18.7648C0.0788034 18.3473 0.157592 17.9298 0.224267 17.5122C0.315187 16.9653 0.569731 16.489 0.872798 16.0303C0.951595 15.9069 1.01228 15.7657 1.09714 15.6422C1.37596 15.26 1.65474 14.8778 1.96387 14.5073C2.12146 14.3191 2.32756 14.178 2.5094 14.0074C2.5882 13.9369 2.6488 13.8545 2.72154 13.7781C3.01248 13.4899 3.37012 13.29 3.72774 13.0901C4.03081 12.9195 4.34597 12.7725 4.68541 12.6725C4.94604 12.5961 5.21278 12.5373 5.48554 12.5432C5.8068 12.5491 6.12803 12.5432 6.44928 12.5608C6.62506 12.5726 6.80083 12.6314 6.97054 12.6725C7.50394 12.7902 8.01918 12.9725 8.51015 13.2194C8.82534 13.3723 9.1526 13.5076 9.44354 13.6899C9.75267 13.8839 10.0376 14.1192 10.3043 14.3661C10.5346 14.5778 10.7347 14.8366 10.9408 15.0718C10.9711 15.1071 10.9892 15.1483 11.0074 15.1894C11.1286 15.407 11.2559 15.6128 11.3589 15.8363C11.4802 16.1009 11.6014 16.3714 11.6681 16.6478C11.7651 17.0418 11.8135 17.4476 11.8863 17.8474C11.8742 17.8474 11.856 17.8474 11.8439 17.8474L11.8378 17.8651Z" fill="url(#paint1_linear_2137_8465)"/>
<path d="M23.7003 21.1229C23.9852 21.3111 24.2762 21.0406 24.5672 21.2052C24.3671 21.3228 24.1853 21.4287 24.0034 21.5345C24.0095 21.5463 24.0216 21.5639 24.0277 21.5757C24.1732 21.511 24.3186 21.4463 24.4641 21.3816C24.4701 21.3934 24.4762 21.4052 24.4823 21.4169C23.9489 21.6933 23.4155 21.9756 22.8881 22.252C22.9003 22.2755 22.9064 22.299 22.9185 22.3167C23.0094 22.2872 23.1003 22.2637 23.1851 22.2226C23.2761 22.1814 23.367 22.1285 23.4579 22.0814C23.4639 22.0932 23.4761 22.105 23.4821 22.1167C23.4215 22.1638 23.361 22.2167 23.2943 22.2637C23.1609 22.3519 23.0215 22.446 22.8821 22.5225C22.4335 22.7636 21.9911 23.0105 21.5365 23.2281C21.0879 23.4457 20.5667 23.434 20.0939 23.5869C19.8151 23.6751 19.5423 23.7045 19.2574 23.6927C18.6755 23.6633 18.1118 23.5339 17.5663 23.334C17.1783 23.1928 16.7905 23.0458 16.4631 22.793C16.148 22.5578 15.8388 22.3049 15.56 22.0344C15.2084 21.6933 14.8811 21.3287 14.5477 20.9641C14.4811 20.8936 14.4386 20.8053 14.3841 20.723C13.8689 19.9527 13.5233 19.1294 13.4506 18.2003C13.4264 17.9062 13.3658 17.6122 13.3233 17.3182C13.2688 16.936 13.287 16.5596 13.3719 16.1832C13.4507 15.8128 13.5112 15.4364 13.687 15.0836C13.9719 14.5014 14.372 13.9898 14.8569 13.5605C15.2569 13.2077 15.7055 12.9019 16.2389 12.7314C16.4813 12.6549 16.7177 12.5491 16.9601 12.4609C17.0329 12.4373 17.1177 12.4315 17.1965 12.4315C17.839 12.4373 18.4876 12.4432 19.1301 12.4609C19.6332 12.4785 20.1242 12.5844 20.5969 12.7431C20.9364 12.8549 21.2758 12.9783 21.591 13.1371C22.1608 13.4135 22.7124 13.7252 23.1851 14.1545C23.3124 14.2662 23.4215 14.3956 23.5488 14.5073C23.6579 14.6073 23.7731 14.7072 23.9004 14.7837C24.0277 14.8601 24.1065 14.9542 24.1671 15.0836C24.2641 15.2835 24.4035 15.4717 24.4944 15.6775C24.6035 15.9127 24.6944 16.1538 24.7732 16.4008C24.8763 16.7184 25.0278 17.0418 25.04 17.3652C25.0642 17.9121 25.1127 18.4649 24.9308 19C24.9126 19.0588 24.9066 19.1294 24.8884 19.1882C24.7429 19.6998 24.4822 20.1526 24.1428 20.5642C24.0337 20.6936 23.9004 20.8053 23.7852 20.9288C23.7428 20.9759 23.7246 21.0347 23.6882 21.0994L23.7003 21.1229Z" fill="url(#paint2_linear_2137_8465)"/>
<path d="M14.9717 9.63233C15.1657 9.71465 15.3536 9.7911 15.5476 9.87343C15.5597 9.85579 15.5657 9.84402 15.5778 9.82638C15.4203 9.67348 15.2748 9.51472 15.1112 9.36183C14.9657 9.22657 14.8142 9.08543 14.6445 8.96782C14.305 8.7326 14.0929 8.39742 13.8686 8.07399C13.7595 7.90933 13.6928 7.71527 13.6079 7.53886C13.5594 7.43301 13.4988 7.33304 13.4503 7.22719C13.2867 6.82731 13.2988 6.39804 13.2442 5.98052C13.1412 5.25133 13.3231 4.53978 13.3594 3.82235C13.3716 3.53421 13.4928 3.24018 13.6261 2.97555C13.808 2.60508 14.0323 2.25224 14.2626 1.90529C14.3414 1.7818 14.499 1.71123 14.6202 1.61126C14.8929 1.38192 15.1657 1.14082 15.4445 0.917364C15.687 0.723306 15.8992 0.476325 16.2447 0.441041C16.4144 0.276386 16.6386 0.341072 16.8387 0.294028C17.2326 0.199939 17.6327 0.117605 18.0267 0.0293966C18.2024 -0.0117672 18.3721 -0.00587444 18.554 0.0235283C18.9359 0.0764531 19.3177 0.0588115 19.7057 0.0235283C20.0693 -0.00587444 20.4451 0.0235204 20.8149 0.0705647C21.1058 0.105848 21.3119 0.317554 21.518 0.49985C21.7786 0.735072 22.0271 0.987935 22.2757 1.23492C22.3363 1.2996 22.3909 1.37017 22.4636 1.45249C22.3787 1.49366 22.3181 1.52306 22.2696 1.54659C22.1544 1.43486 22.0514 1.329 21.9483 1.22903C21.815 1.329 21.8029 1.41721 21.8817 1.52894C21.9483 1.62303 22.0271 1.72301 22.0453 1.82886C22.0574 1.91707 21.9847 2.01702 21.9181 2.09347C21.9181 2.16404 21.9181 2.22873 21.9181 2.29929C21.9181 2.44043 21.9665 2.48159 22.1241 2.49923C22.1787 2.49923 22.2332 2.54039 22.2817 2.56979C22.3363 2.5992 22.3908 2.63448 22.4696 2.68153V2.44631C22.5666 2.46983 22.6515 2.49335 22.7303 2.51687C22.8818 2.34045 22.8151 2.18168 22.706 2.02291C23.0757 1.94058 23.294 2.17581 23.5243 2.3581C23.9062 2.65801 24.1728 3.06376 24.3668 3.49304C24.4941 3.76943 24.5244 4.08697 24.5971 4.38688C24.6456 4.60446 24.7063 4.82792 24.7366 5.0455C24.8093 5.56298 24.785 6.0746 24.6941 6.58621C24.6032 7.1037 24.476 7.60353 24.282 8.0975C24.1183 8.51501 23.8516 8.86785 23.6273 9.24421C23.3485 9.70877 22.9424 10.0557 22.4999 10.3556C22.0999 10.6261 21.6756 10.8614 21.2028 11.0201C20.7906 11.1613 20.3785 11.2848 19.9481 11.3083C19.5481 11.3318 19.142 11.3083 18.7359 11.2671C17.9843 11.1907 17.2751 10.9496 16.5901 10.6379C16.0446 10.385 15.5052 10.1322 15.0324 9.7617C15.0021 9.73818 14.9718 9.7029 14.9475 9.67349C14.9475 9.66761 14.9596 9.65585 14.9656 9.64997L14.9717 9.63233Z" fill="url(#paint3_linear_2137_8465)"/>
<path d="M20.1119 24.9394C20.0695 24.9982 20.0392 25.0511 20.0028 25.0923C19.9361 25.1805 19.9543 25.2334 20.0695 25.251C20.2028 25.2687 20.3362 25.2628 20.4453 25.1628C20.5726 25.0452 20.7059 24.957 20.8877 25.0687C20.9059 25.0805 20.9362 25.0746 20.9665 25.0746C21.2635 25.0746 21.2757 25.0864 21.3242 25.3687C21.4454 25.4333 21.5545 25.3745 21.6575 25.3275C21.8636 25.2393 22.0698 25.1511 22.3061 25.2275C22.4456 25.5157 22.4698 25.5157 22.8698 25.2099C22.8698 25.2216 22.8819 25.2334 22.8819 25.2393C22.8698 25.3098 22.8577 25.3804 22.8395 25.451C22.9183 25.451 23.0153 25.4686 23.0819 25.4392C23.3486 25.3157 23.6032 25.1746 23.8639 25.0393C23.9063 25.0158 23.9548 24.9982 24.0033 24.9805C24.0093 24.9923 24.0215 24.9982 24.0275 25.0099C23.9306 25.1217 23.8336 25.2334 23.7245 25.3569C23.8821 25.4804 24.07 25.4216 24.2397 25.4392C24.4155 25.4569 24.5913 25.4804 24.7913 25.5039C24.7489 25.5509 24.7185 25.5862 24.6821 25.6274C24.7246 25.6744 24.7609 25.7215 24.8215 25.7921C24.7488 25.8038 24.7004 25.8214 24.6519 25.8214C24.4761 25.8273 24.2943 25.8215 24.1185 25.845C23.9185 25.8744 23.779 25.992 23.6941 26.1743C23.6638 26.2331 23.5972 26.2919 23.5305 26.3154C23.3547 26.3801 23.1911 26.4507 23.1244 26.6447C23.1062 26.6976 23.0274 26.7388 22.9971 26.7976C23.2517 26.8564 23.2699 26.5742 23.4275 26.4977C23.4396 26.5095 23.4517 26.5212 23.4638 26.533C23.4093 26.6036 23.3548 26.68 23.2942 26.7506C23.1487 26.9329 23.1487 26.9505 23.2942 27.1328C23.5002 27.4033 23.7184 27.6621 23.9184 27.9384C24.1912 28.3207 24.4033 28.7382 24.5427 29.1851C24.6034 29.3733 24.7003 29.5556 24.7488 29.7496C24.8519 30.1495 24.9489 30.5435 25.0095 30.9493C25.064 31.3433 25.0519 31.749 24.9791 32.1371C24.9064 32.5311 24.8034 32.9193 24.6033 33.278C24.47 33.5191 24.3367 33.7719 24.173 33.9954C24.0215 34.1953 23.8457 34.3894 23.6457 34.5423C23.2456 34.8598 22.8092 35.1245 22.3303 35.3303C22.1303 35.4126 21.9485 35.5361 21.7424 35.6184C21.5848 35.6831 21.4212 35.7243 21.2515 35.7596C20.8514 35.836 20.4574 35.9066 20.0513 35.9654C19.8937 35.9889 19.7301 35.9948 19.5664 35.9948C19.1967 35.9948 18.8269 36.0065 18.4571 35.9948C18.2935 35.9889 18.1359 35.9124 17.9783 35.9007C17.651 35.8713 17.3601 35.7419 17.0691 35.6184C16.8691 35.5361 16.6751 35.4361 16.4872 35.3244C16.0023 35.0363 15.572 34.6775 15.178 34.2835C14.9962 34.1071 14.8507 33.8896 14.7052 33.6896C14.4749 33.3779 14.2627 33.0486 14.0263 32.7428C13.7596 32.3841 13.6263 31.9901 13.6202 31.555C13.6141 31.0845 13.6384 30.6141 13.5535 30.1436C13.5353 30.0319 13.5657 29.8967 13.596 29.7791C13.796 29.0852 14.1173 28.4559 14.6507 27.9443C14.7537 27.8443 14.8264 27.715 14.9295 27.6209C15.1356 27.4268 15.3417 27.2387 15.5599 27.0564C16.0811 26.6094 16.6751 26.2684 17.2631 25.9155C17.3419 25.8685 17.4085 25.8038 17.4873 25.7509C17.6146 25.6627 17.748 25.5862 17.9117 25.5568C18.0268 25.5392 18.1359 25.4804 18.245 25.4333C18.5178 25.3098 18.7845 25.1863 19.0512 25.0629C19.0936 25.0452 19.1482 25.0629 19.2027 25.057C19.2452 25.057 19.3058 25.0687 19.33 25.0452C19.4634 24.9217 19.621 24.9453 19.7846 24.9453C19.8816 24.9453 19.9786 24.9453 20.1119 24.9453V24.9394ZM22.4091 34.0307C22.6274 34.0366 22.8819 33.8307 22.8759 33.672C22.7243 33.7896 22.5789 33.9013 22.4091 34.0307Z" fill="url(#paint4_linear_2137_8465)"/>
<path d="M27.4883 19.294C27.5367 19.3529 27.5792 19.4175 27.6277 19.4763C27.6458 19.4646 27.6641 19.4528 27.6823 19.4411C27.5913 19.2999 27.5186 19.147 27.4155 19.0118C27.1791 18.706 27.0579 18.3767 27.064 17.9886C27.064 17.7769 27.0094 17.5593 26.9791 17.3593C26.8579 17.5416 26.7609 18.0533 26.7185 18.7354C26.5669 18.1062 26.6336 17.4828 26.8337 16.8713C26.9488 16.5126 27.0882 16.1597 27.3246 15.8598C27.3913 15.7775 27.4701 15.6952 27.5368 15.6128C27.5913 15.5481 27.652 15.4835 27.6883 15.4129C27.9793 14.8131 28.4096 14.3191 28.9066 13.8722C28.949 13.831 28.9976 13.7957 29.0339 13.7487C29.2158 13.5076 29.4643 13.3606 29.731 13.2195C29.8462 13.1607 29.9613 13.0901 30.0704 13.0254C30.4947 12.7843 30.9675 12.6726 31.4281 12.5432C31.6463 12.4844 31.8888 12.5314 32.1252 12.5138C32.6647 12.4785 33.198 12.5314 33.6951 12.7255C34.0709 12.8725 34.4224 13.1019 34.7679 13.3135C34.9377 13.4135 35.071 13.5664 35.2286 13.6899C35.2771 13.7311 35.3377 13.7546 35.4165 13.8075C35.5135 13.5429 35.4468 13.2959 35.4407 13.0548C35.4589 13.0548 35.4711 13.043 35.4893 13.043C35.5984 13.19 35.7135 13.3371 35.8226 13.4841C35.8287 13.4841 35.8408 13.4841 35.8469 13.4782C35.8226 13.3959 35.7984 13.3194 35.7741 13.2371C36.0469 13.6546 36.2408 14.1133 36.5742 14.4955V14.3132C36.8045 14.3838 36.8227 14.6131 36.9379 14.7719C37.0712 14.966 37.1865 15.1718 37.3077 15.3717C37.5016 15.6952 37.6289 16.0421 37.6955 16.4185C37.7501 16.736 37.8895 17.0359 37.938 17.3535C37.9804 17.6299 37.9744 17.9239 37.938 18.2003C37.8835 18.7001 37.7441 19.1941 37.5319 19.6528C37.3622 20.0174 37.1743 20.3761 36.9561 20.7113C36.8167 20.923 36.6106 21.0994 36.4227 21.2817C36.2893 21.4052 36.1924 21.5581 36.0711 21.6874C35.7984 21.9932 35.4832 22.2637 35.1559 22.5225C34.9922 22.6518 34.7861 22.7812 34.5921 22.8047C34.3497 22.8283 34.1254 22.9753 33.8709 22.8988C33.683 23.0223 33.4526 22.9576 33.2587 23.0341C32.9617 23.1517 32.6586 23.0988 32.3616 23.0694C32.2222 23.0576 32.0827 23.0399 31.9433 23.0399C31.5918 23.0399 31.2402 23.0458 30.8887 23.0458C30.7977 23.0458 30.6947 23.0458 30.6159 23.0047C30.2947 22.8459 29.9734 22.693 29.6703 22.4989C29.3309 22.2814 29.0036 22.0461 28.7005 21.7874C28.2702 21.4228 27.9428 20.9641 27.7004 20.4702C27.5428 20.1526 27.4216 19.8115 27.4398 19.4469C27.4398 19.394 27.4519 19.3411 27.458 19.2882C27.4701 19.2882 27.4883 19.2882 27.5004 19.2882L27.4883 19.294ZM27.8519 19.7468C27.961 19.4999 27.9187 19.3293 27.6883 19.2C27.7308 19.2646 27.7489 19.2999 27.7731 19.3293C27.7974 19.3705 27.8277 19.4117 27.858 19.4528C27.658 19.5469 27.658 19.5528 27.858 19.7468H27.8519Z" fill="url(#paint5_linear_2137_8465)"/>
<path d="M83.1255 9.63233V16.5714C83.277 16.4243 83.3619 16.342 83.4407 16.2538C84.8105 14.7719 87.3138 14.1897 89.2232 14.9072C90.3687 15.3364 91.0901 16.1597 91.4356 17.2711C91.969 18.9824 91.9629 20.7171 91.4295 22.4284C90.89 24.1396 89.5929 25.0511 87.8291 25.3687C85.847 25.7274 83.8892 25.5451 81.9495 25.0452C81.01 24.7982 81.0101 24.7924 81.0101 23.8338C81.0101 19.3176 81.0101 14.7954 81.0101 10.2792C81.0101 10.191 81.0101 10.1028 81.0101 10.0146C81.0161 9.64408 81.0222 9.63233 81.4041 9.63233C81.9557 9.63233 82.5133 9.63233 83.1255 9.63233ZM83.18 21.7756C83.18 22.2755 83.1921 22.7812 83.18 23.2811C83.1679 23.5633 83.2709 23.7045 83.5558 23.7985C84.3741 24.0573 85.2166 24.1867 86.0713 24.2219C87.7503 24.2866 88.9141 23.4457 89.3566 21.8638C89.6475 20.8289 89.6475 19.7763 89.5444 18.7295C89.4899 18.212 89.3565 17.6887 89.1565 17.2065C88.8413 16.442 88.217 16.0421 87.3442 16.0362C86.4592 16.0303 85.6834 16.3244 85.047 16.8948C83.8529 17.9592 83.1618 19.2646 83.1921 20.8759C83.1921 21.1758 83.1921 21.4757 83.1921 21.7815L83.18 21.7756Z" fill="url(#paint6_linear_2137_8465)"/>
<path d="M62.5349 20.3231C62.5349 20.5525 62.5167 20.7524 62.5349 20.9465C62.5955 21.4816 62.6319 22.0226 62.7531 22.546C62.9289 23.3163 63.4562 23.8397 64.2381 24.0455C66.2323 24.5748 68.0628 24.3572 69.5478 22.7988C69.5842 22.7636 69.6206 22.7342 69.6872 22.6754C70.16 22.9753 70.6267 23.2752 71.1238 23.5927C70.7177 24.1161 70.2571 24.4924 69.7297 24.7865C68.9417 25.2216 68.0931 25.4804 67.196 25.5686C65.9898 25.6862 64.7897 25.6568 63.6138 25.3392C62.0863 24.9276 61.0559 23.9926 60.6134 22.5107C60.1406 20.9288 60.1528 19.3352 60.6922 17.7651C61.1953 16.3008 62.256 15.36 63.7774 14.9366C65.0382 14.5778 66.3354 14.5249 67.6204 14.7778C69.5843 15.16 70.6935 16.3773 71.0814 18.2473C71.2208 18.9118 71.2875 19.5822 71.2268 20.3231H62.5349ZM69.2205 18.9295C69.2084 18.2297 68.9659 17.6593 68.6204 17.1183C68.3719 16.7301 68.0265 16.4361 67.584 16.3009C66.3656 15.9363 65.1473 15.9363 64.0138 16.5596C63.0925 17.0653 62.7227 17.9121 62.6258 18.9295H69.2205Z" fill="url(#paint7_linear_2137_8465)"/>
<path d="M159.437 22.6695C159.898 22.9635 160.365 23.2634 160.856 23.581C160.383 24.2161 159.795 24.6277 159.128 24.9511C158.28 25.3569 157.377 25.5627 156.437 25.6039C155.401 25.6509 154.37 25.6098 153.358 25.3392C151.764 24.9041 150.733 23.922 150.309 22.3696C149.921 20.9583 149.915 19.5351 150.309 18.1297C150.794 16.3832 151.958 15.3012 153.764 14.866C154.946 14.5837 156.152 14.5426 157.346 14.7719C159.201 15.1306 160.341 16.2421 160.753 18.018C160.898 18.6354 160.929 19.2823 160.989 19.9174C161.026 20.2996 160.989 20.3173 160.583 20.3173C158.043 20.3173 155.51 20.3173 152.97 20.3173C152.297 20.3173 152.231 20.1526 152.291 21.0112C152.328 21.5228 152.376 22.0403 152.497 22.5342C152.679 23.2869 153.182 23.8044 153.952 24.0161C155.582 24.4748 157.152 24.4219 158.577 23.4104C158.88 23.1987 159.134 22.9282 159.444 22.6577L159.437 22.6695ZM158.959 18.9295C158.953 18.3591 158.765 17.8827 158.528 17.4182C158.189 16.7419 157.637 16.3185 156.874 16.1774C156.037 16.0186 155.201 16.0362 154.376 16.2773C153.855 16.4302 153.419 16.7125 153.067 17.1124C152.618 17.6299 152.406 18.2297 152.37 18.9295H158.959Z" fill="url(#paint8_linear_2137_8465)"/>
<path d="M93.7564 16.7536C93.6776 16.295 93.6109 15.901 93.5442 15.507C93.5078 15.307 93.6352 15.2365 93.7988 15.2012C94.4171 15.0601 95.0293 14.8954 95.6475 14.7895C96.7992 14.5955 97.9569 14.5191 99.1207 14.7425C100.885 15.0777 101.915 16.1538 102.103 17.8886C102.139 18.212 102.157 18.5413 102.157 18.8648C102.157 20.8465 102.157 22.8341 102.157 24.8159C102.157 25.153 101.978 25.3216 101.618 25.3216C101.503 25.3216 101.382 25.3098 101.266 25.3216C100.806 25.3804 100.424 25.2569 100.145 24.8864C99.9935 24.6924 99.8238 24.7041 99.6055 24.7923C98.3327 25.3157 96.9992 25.5098 95.6233 25.451C93.8837 25.3745 92.7381 24.2925 92.5926 22.6048C92.5078 21.5816 92.6957 20.6466 93.5139 19.9292C94.0595 19.4469 94.7262 19.1941 95.4475 19.1353C96.3506 19.0647 97.2537 19.0765 98.1569 19.0294C98.6175 19.0059 99.0843 18.9647 99.5389 18.8648C99.9632 18.7766 99.9935 18.706 99.9753 18.2885C99.9632 17.965 99.9329 17.6357 99.8723 17.3182C99.7147 16.5184 99.2904 16.1715 98.4236 16.1186C96.9871 16.0362 95.5809 16.195 94.211 16.6243C94.0777 16.6654 93.9443 16.7007 93.7503 16.7595L93.7564 16.7536ZM100.012 20.229C99.9632 20.229 99.9208 20.2114 99.8905 20.2173C98.8298 20.3996 97.7569 20.4172 96.684 20.4113C96.3991 20.4113 96.1142 20.4407 95.8354 20.4878C95.4475 20.5584 95.1384 20.7524 94.9444 21.0935C94.211 22.3696 94.8899 23.775 96.3749 24.0161C97.6659 24.2278 98.7994 23.8456 99.8359 23.1281C99.9268 23.0635 99.9814 22.8988 99.9874 22.7753C100.012 22.3519 100.006 21.9226 100.012 21.4992C100.012 21.0758 100.012 20.6524 100.012 20.229Z" fill="url(#paint9_linear_2137_8465)"/>
<path d="M118.481 16.736C118.403 16.2773 118.318 15.8539 118.275 15.4188C118.269 15.3541 118.433 15.2247 118.53 15.2071C119.439 15.0189 120.348 14.8248 121.264 14.6778C122.088 14.5485 122.912 14.572 123.737 14.7249C125.707 15.0895 126.816 16.2597 126.858 18.1944C126.913 20.476 126.876 22.7636 126.876 25.0511C126.876 25.1217 126.858 25.1922 126.84 25.3098C126.361 25.3098 125.894 25.351 125.44 25.2922C125.24 25.2687 125.052 25.0629 124.894 24.9041C124.713 24.7218 124.549 24.6983 124.312 24.7982C123.088 25.3098 121.803 25.4863 120.482 25.4569C118.585 25.4157 117.36 24.2337 117.3 22.399C117.263 21.3228 117.542 20.3761 118.5 19.7292C119.251 19.2235 120.118 19.0765 121.009 19.0471C121.9 19.0177 122.797 19.0236 123.688 18.9706C124.634 18.9177 124.767 18.7354 124.688 17.8357C124.688 17.8121 124.688 17.7828 124.682 17.7592C124.525 16.4714 124.106 16.1303 122.773 16.095C121.439 16.0598 120.142 16.2479 118.875 16.6361C118.766 16.6713 118.657 16.689 118.481 16.7301V16.736ZM124.767 20.2232C124.1 20.2879 123.512 20.3643 122.924 20.3937C122.33 20.4231 121.736 20.3937 121.136 20.4172C120.882 20.429 120.603 20.4525 120.379 20.5525C120.124 20.6701 119.845 20.8465 119.7 21.07C118.912 22.299 119.609 23.7633 121.07 24.0102C122.349 24.2278 123.47 23.8574 124.519 23.1752C124.7 23.0576 124.719 22.8988 124.719 22.7224C124.737 22.0344 124.749 21.3405 124.761 20.6525C124.761 20.5172 124.761 20.382 124.761 20.2173L124.767 20.2232Z" fill="url(#paint10_linear_2137_8465)"/>
<path d="M139.175 25.3628H137.156C137.15 25.204 137.132 25.057 137.132 24.91C137.132 22.9282 137.132 20.9406 137.132 18.9588C137.132 18.6472 137.102 18.3296 137.035 18.0238C136.805 16.8889 136.047 16.2185 134.847 16.1244C133.598 16.0304 132.459 16.3303 131.495 17.1477C130.919 17.6357 130.61 18.2355 130.616 18.9941C130.628 20.9524 130.616 22.9106 130.616 24.8688V25.3451H128.543V14.9013C128.949 14.9013 129.355 14.9013 129.767 14.9013C130.2 14.9013 130.436 15.1091 130.477 15.5246C130.501 15.7834 130.531 16.0421 130.555 16.2891C131.028 15.9892 131.465 15.6599 131.956 15.4129C133.289 14.7484 134.689 14.4191 136.192 14.7249C137.526 14.9954 138.387 15.7834 138.859 17.0065C139.138 17.7357 139.205 18.5002 139.211 19.2646C139.229 21.1876 139.217 23.1046 139.211 25.0276C139.211 25.1275 139.193 25.2216 139.175 25.3569V25.3628Z" fill="url(#paint11_linear_2137_8465)"/>
<path d="M149.576 25.4569C149.073 25.5274 148.6 25.6156 148.128 25.6509C146.782 25.745 145.436 25.7274 144.115 25.3981C141.763 24.8041 140.393 23.2458 140.26 20.8818C140.218 20.1115 140.236 19.3176 140.369 18.559C140.702 16.6713 141.909 15.507 143.788 15.0071C145.564 14.5367 147.364 14.5014 149.164 14.9072C149.57 14.9954 149.57 15.0013 149.57 15.4011C149.57 15.7775 149.57 16.148 149.57 16.5772C149.358 16.5184 149.194 16.4832 149.043 16.4302C147.8 16.0127 146.539 15.948 145.254 16.1774C143.672 16.4596 142.769 17.2947 142.46 18.8177C142.266 19.7645 142.297 20.7171 142.527 21.658C142.884 23.1282 143.891 23.9103 145.388 24.1631C146.618 24.369 147.837 24.2984 149.049 24.0396C149.2 24.0102 149.346 23.975 149.576 23.9279V25.4569Z" fill="url(#paint12_linear_2137_8465)"/>
<path d="M109.183 9.66172H111.232V25.3216H109.183V9.66172Z" fill="url(#paint13_linear_2137_8465)"/>
<path d="M104.716 25.3451C104.716 25.1687 104.716 25.0452 104.716 24.9217C104.716 19.9762 104.716 15.0307 104.716 10.0851C104.716 9.6382 104.716 9.63821 105.194 9.63821C105.619 9.63821 106.049 9.64409 106.473 9.63821C106.704 9.63821 106.813 9.71465 106.801 9.94399C106.795 10.0557 106.801 10.1674 106.801 10.2851C106.801 15.1306 106.801 19.9762 106.801 24.8217C106.801 24.9335 106.819 25.057 106.789 25.1569C106.764 25.2334 106.667 25.3451 106.607 25.3451C105.988 25.3569 105.376 25.351 104.716 25.351V25.3451Z" fill="url(#paint14_linear_2137_8465)"/>
<path d="M74.6511 25.2922H72.4993V14.9131C73.0509 14.9131 73.5904 14.9013 74.1299 14.9248C74.2026 14.9248 74.3117 15.113 74.3359 15.2306C74.4087 15.5952 74.4571 15.9598 74.5238 16.4008C74.639 16.2597 74.6996 16.1891 74.7602 16.1068C75.53 14.9954 76.6453 14.5779 77.9667 14.6249C78.7001 14.6484 79.4275 14.766 80.1669 15.0424C80.0942 15.5481 80.0154 16.0362 79.9366 16.5772C79.7366 16.5243 79.579 16.489 79.4275 16.442C78.7668 16.2479 78.0939 16.1068 77.4029 16.2009C76.1725 16.3714 75.4027 17.1183 75.0148 18.212C74.8208 18.7589 74.7057 19.3587 74.6875 19.9409C74.639 21.5581 74.6633 23.1811 74.6633 24.7982C74.6633 24.9453 74.6633 25.0923 74.6633 25.2804L74.6511 25.2922Z" fill="url(#paint15_linear_2137_8465)"/>
<path d="M113.638 25.3569C113.626 25.1687 113.613 25.0158 113.613 24.8688C113.613 21.7051 113.613 18.5472 113.613 15.3835C113.613 14.9072 113.614 14.9072 114.111 14.9072C114.638 14.9072 115.165 14.9072 115.735 14.9072V25.3569H113.638Z" fill="url(#paint16_linear_2137_8465)"/>
<path d="M115.771 11.9198C115.771 12.4785 115.771 12.9666 115.771 13.4547C115.771 13.6429 115.771 13.8252 115.771 14.0486H113.613C113.613 13.7193 113.613 13.4017 113.613 13.0783C113.613 12.7784 113.613 12.4785 113.613 12.1786C113.613 12.0375 113.656 11.9257 113.826 11.9257C114.456 11.9257 115.086 11.9257 115.771 11.9257V11.9198Z" fill="url(#paint17_linear_2137_8465)"/>
<defs>
<linearGradient id="paint0_linear_2137_8465" x1="188.053" y1="36" x2="-4.8088" y2="-12.3917" gradientUnits="userSpaceOnUse">
<stop stop-color="#9995C5" stop-opacity="0.772549"/>
<stop offset="0.449491" stop-color="white" stop-opacity="0.935136"/>
<stop offset="0.67446" stop-color="white"/>
<stop offset="1" stop-color="#9995C5"/>
</linearGradient>
<linearGradient id="paint1_linear_2137_8465" x1="188.053" y1="36" x2="-4.8088" y2="-12.3917" gradientUnits="userSpaceOnUse">
<stop stop-color="#9995C5" stop-opacity="0.772549"/>
<stop offset="0.449491" stop-color="white" stop-opacity="0.935136"/>
<stop offset="0.67446" stop-color="white"/>
<stop offset="1" stop-color="#9995C5"/>
</linearGradient>
<linearGradient id="paint2_linear_2137_8465" x1="188.053" y1="36" x2="-4.8088" y2="-12.3917" gradientUnits="userSpaceOnUse">
<stop stop-color="#9995C5" stop-opacity="0.772549"/>
<stop offset="0.449491" stop-color="white" stop-opacity="0.935136"/>
<stop offset="0.67446" stop-color="white"/>
<stop offset="1" stop-color="#9995C5"/>
</linearGradient>
<linearGradient id="paint3_linear_2137_8465" x1="188.053" y1="36" x2="-4.8088" y2="-12.3917" gradientUnits="userSpaceOnUse">
<stop stop-color="#9995C5" stop-opacity="0.772549"/>
<stop offset="0.449491" stop-color="white" stop-opacity="0.935136"/>
<stop offset="0.67446" stop-color="white"/>
<stop offset="1" stop-color="#9995C5"/>
</linearGradient>
<linearGradient id="paint4_linear_2137_8465" x1="188.053" y1="36" x2="-4.8088" y2="-12.3917" gradientUnits="userSpaceOnUse">
<stop stop-color="#9995C5" stop-opacity="0.772549"/>
<stop offset="0.449491" stop-color="white" stop-opacity="0.935136"/>
<stop offset="0.67446" stop-color="white"/>
<stop offset="1" stop-color="#9995C5"/>
</linearGradient>
<linearGradient id="paint5_linear_2137_8465" x1="188.053" y1="36" x2="-4.8088" y2="-12.3917" gradientUnits="userSpaceOnUse">
<stop stop-color="#9995C5" stop-opacity="0.772549"/>
<stop offset="0.449491" stop-color="white" stop-opacity="0.935136"/>
<stop offset="0.67446" stop-color="white"/>
<stop offset="1" stop-color="#9995C5"/>
</linearGradient>
<linearGradient id="paint6_linear_2137_8465" x1="188.053" y1="36" x2="-4.8088" y2="-12.3917" gradientUnits="userSpaceOnUse">
<stop stop-color="#9995C5" stop-opacity="0.772549"/>
<stop offset="0.449491" stop-color="white" stop-opacity="0.935136"/>
<stop offset="0.67446" stop-color="white"/>
<stop offset="1" stop-color="#9995C5"/>
</linearGradient>
<linearGradient id="paint7_linear_2137_8465" x1="188.053" y1="36" x2="-4.8088" y2="-12.3917" gradientUnits="userSpaceOnUse">
<stop stop-color="#9995C5" stop-opacity="0.772549"/>
<stop offset="0.449491" stop-color="white" stop-opacity="0.935136"/>
<stop offset="0.67446" stop-color="white"/>
<stop offset="1" stop-color="#9995C5"/>
</linearGradient>
<linearGradient id="paint8_linear_2137_8465" x1="188.053" y1="36" x2="-4.8088" y2="-12.3917" gradientUnits="userSpaceOnUse">
<stop stop-color="#9995C5" stop-opacity="0.772549"/>
<stop offset="0.449491" stop-color="white" stop-opacity="0.935136"/>
<stop offset="0.67446" stop-color="white"/>
<stop offset="1" stop-color="#9995C5"/>
</linearGradient>
<linearGradient id="paint9_linear_2137_8465" x1="188.053" y1="36" x2="-4.8088" y2="-12.3917" gradientUnits="userSpaceOnUse">
<stop stop-color="#9995C5" stop-opacity="0.772549"/>
<stop offset="0.449491" stop-color="white" stop-opacity="0.935136"/>
<stop offset="0.67446" stop-color="white"/>
<stop offset="1" stop-color="#9995C5"/>
</linearGradient>
<linearGradient id="paint10_linear_2137_8465" x1="188.053" y1="36" x2="-4.8088" y2="-12.3917" gradientUnits="userSpaceOnUse">
<stop stop-color="#9995C5" stop-opacity="0.772549"/>
<stop offset="0.449491" stop-color="white" stop-opacity="0.935136"/>
<stop offset="0.67446" stop-color="white"/>
<stop offset="1" stop-color="#9995C5"/>
</linearGradient>
<linearGradient id="paint11_linear_2137_8465" x1="188.053" y1="36" x2="-4.8088" y2="-12.3917" gradientUnits="userSpaceOnUse">
<stop stop-color="#9995C5" stop-opacity="0.772549"/>
<stop offset="0.449491" stop-color="white" stop-opacity="0.935136"/>
<stop offset="0.67446" stop-color="white"/>
<stop offset="1" stop-color="#9995C5"/>
</linearGradient>
<linearGradient id="paint12_linear_2137_8465" x1="188.053" y1="36" x2="-4.8088" y2="-12.3917" gradientUnits="userSpaceOnUse">
<stop stop-color="#9995C5" stop-opacity="0.772549"/>
<stop offset="0.449491" stop-color="white" stop-opacity="0.935136"/>
<stop offset="0.67446" stop-color="white"/>
<stop offset="1" stop-color="#9995C5"/>
</linearGradient>
<linearGradient id="paint13_linear_2137_8465" x1="188.053" y1="36" x2="-4.8088" y2="-12.3917" gradientUnits="userSpaceOnUse">
<stop stop-color="#9995C5" stop-opacity="0.772549"/>
<stop offset="0.449491" stop-color="white" stop-opacity="0.935136"/>
<stop offset="0.67446" stop-color="white"/>
<stop offset="1" stop-color="#9995C5"/>
</linearGradient>
<linearGradient id="paint14_linear_2137_8465" x1="188.053" y1="36" x2="-4.8088" y2="-12.3917" gradientUnits="userSpaceOnUse">
<stop stop-color="#9995C5" stop-opacity="0.772549"/>
<stop offset="0.449491" stop-color="white" stop-opacity="0.935136"/>
<stop offset="0.67446" stop-color="white"/>
<stop offset="1" stop-color="#9995C5"/>
</linearGradient>
<linearGradient id="paint15_linear_2137_8465" x1="188.053" y1="36" x2="-4.8088" y2="-12.3917" gradientUnits="userSpaceOnUse">
<stop stop-color="#9995C5" stop-opacity="0.772549"/>
<stop offset="0.449491" stop-color="white" stop-opacity="0.935136"/>
<stop offset="0.67446" stop-color="white"/>
<stop offset="1" stop-color="#9995C5"/>
</linearGradient>
<linearGradient id="paint16_linear_2137_8465" x1="188.053" y1="36" x2="-4.8088" y2="-12.3917" gradientUnits="userSpaceOnUse">
<stop stop-color="#9995C5" stop-opacity="0.772549"/>
<stop offset="0.449491" stop-color="white" stop-opacity="0.935136"/>
<stop offset="0.67446" stop-color="white"/>
<stop offset="1" stop-color="#9995C5"/>
</linearGradient>
<linearGradient id="paint17_linear_2137_8465" x1="188.053" y1="36" x2="-4.8088" y2="-12.3917" gradientUnits="userSpaceOnUse">
<stop stop-color="#9995C5" stop-opacity="0.772549"/>
<stop offset="0.449491" stop-color="white" stop-opacity="0.935136"/>
<stop offset="0.67446" stop-color="white"/>
<stop offset="1" stop-color="#9995C5"/>
</linearGradient>
</defs>
</svg>
