<svg width="138" height="28" viewBox="0 0 138 28" fill="none" xmlns="http://www.w3.org/2000/svg">
<path d="M0.0112054 0.0573478C2.12136 0.0573478 4.23149 0.069015 6.34164 0.069015C13.2095 0.069015 20.0773 0.069015 26.9451 0.069015C27.0291 0.069015 27.113 0.069015 27.2306 0.069015C27.2306 0.162332 27.2306 0.238151 27.2306 0.313971C27.2306 4.7582 27.2306 9.1966 27.2306 13.6408C27.2306 18.2834 27.2418 22.9259 27.2418 27.5684C27.2418 27.8406 27.113 27.9767 26.8555 27.9767C18.0455 27.9767 9.24105 27.9767 0.430998 27.9767C0.28547 27.9767 0.145528 27.9883 0 28C0 18.6858 0 9.3774 0 0.0631858L0.0112054 0.0573478ZM4.86403 14.7723H22.3721V13.2442H4.86403V14.7723Z" fill="url(#paint0_linear_2137_8463)"/>
<path d="M91.7664 23.3283V27.5567H89.5667V15.9679C89.6675 15.9679 89.7682 15.9563 89.8746 15.9563C92.1527 15.9563 94.4363 15.9563 96.7144 15.9563C97.5596 15.9563 98.3768 16.1079 99.0988 16.6036C100.336 17.4552 100.784 18.6975 100.616 20.1672C100.425 21.8002 99.3674 22.8617 97.7274 23.2117C97.6379 23.2292 97.5484 23.2525 97.4084 23.2817C98.5279 24.7281 99.6193 26.1453 100.761 27.6209C100.168 27.6209 99.6417 27.5684 99.1324 27.6326C98.4159 27.72 97.9682 27.4459 97.5596 26.8277C96.8319 25.7312 96.0091 24.7047 95.2423 23.6316C95.0744 23.3983 94.9009 23.2875 94.6042 23.2992C93.7814 23.3225 92.9642 23.2991 92.1414 23.305C92.0295 23.305 91.9175 23.3166 91.7776 23.3283H91.7664ZM91.7776 21.357C91.8727 21.3628 91.9399 21.3745 92.0015 21.3745C93.5799 21.3745 95.1583 21.3745 96.7423 21.3745C96.9774 21.3745 97.2181 21.322 97.4476 21.252C98.0129 21.0712 98.4383 20.7038 98.5558 20.0739C98.679 19.4207 98.6006 18.7966 98.0857 18.3183C97.6883 17.9451 97.1957 17.8868 96.692 17.8868C95.1527 17.8868 93.6079 17.8868 92.0686 17.8868C91.9735 17.8868 91.8783 17.9101 91.7832 17.9218V21.3628L91.7776 21.357Z" fill="url(#paint1_linear_2137_8463)"/>
<path d="M91.3746 5.09064V7.02114H85.0777V10.1356H93.6191V12.0369H82.85V0.459779H93.2665C93.2665 1.05468 93.2665 1.63208 93.2665 2.20365C93.2665 2.41361 93.1097 2.36695 92.9922 2.36695C91.7048 2.36695 90.4119 2.36695 89.1245 2.36695C87.8763 2.36695 86.6226 2.36695 85.3744 2.36695C85.2792 2.36695 85.1897 2.36695 85.0777 2.36695V5.08481H91.3802L91.3746 5.09064Z" fill="url(#paint2_linear_2137_8463)"/>
<path d="M127.237 15.9563C127.348 15.9563 127.444 15.9563 127.539 15.9563C130.796 15.9563 134.054 15.9563 137.312 15.9504C137.586 15.9504 137.681 16.0262 137.664 16.3179C137.642 16.8253 137.659 17.3327 137.659 17.8751H129.464V20.5988H135.767V22.5235H129.464V25.6437H138V27.5626H127.237V15.9563Z" fill="url(#paint3_linear_2137_8463)"/>
<path d="M60.0354 15.9796V17.8751H51.8747V20.593H58.1716V22.5176H51.8914C51.8746 22.6051 51.8523 22.6518 51.8523 22.6926C51.8523 23.6024 51.8522 24.5065 51.8466 25.4163C51.8466 25.6671 51.981 25.6554 52.1433 25.6554C54.2367 25.6554 56.3356 25.6554 58.429 25.6554C59.0055 25.6554 59.5764 25.6612 60.1529 25.6554C60.36 25.6554 60.444 25.7021 60.4384 25.9354C60.4216 26.4719 60.4384 27.0085 60.4384 27.5626H49.6525V15.9854H60.0354V15.9796Z" fill="url(#paint4_linear_2137_8463)"/>
<path d="M62.325 15.9563C63.0023 15.9563 63.6516 15.9504 64.3008 15.9621C64.396 15.9621 64.5079 16.0554 64.5751 16.1429C66.1143 17.9859 67.6424 19.8348 69.1816 21.6778C70.0268 22.6926 70.872 23.7074 71.7228 24.7281C71.6668 21.8061 71.6164 18.9016 71.5604 15.9738H73.8105V27.5742C73.0997 27.5742 72.4056 27.5801 71.7172 27.5626C71.6164 27.5626 71.4989 27.4518 71.4261 27.3643C69.4783 25.0372 67.5305 22.7043 65.5882 20.3713C65.1964 19.9047 64.8102 19.4382 64.4184 18.9716C64.368 18.9132 64.3121 18.8666 64.1889 18.7558V27.5451H62.325V15.9504V15.9563Z" fill="url(#paint5_linear_2137_8463)"/>
<path d="M48.4719 6.18712C48.4887 3.66173 49.9608 1.46877 52.2445 0.576422C54.461 -0.286761 56.6271 -0.199274 58.6925 1.02551C62.1292 3.07266 62.3419 7.8085 60.0583 10.2989C58.9892 11.4654 57.6683 12.1011 56.1514 12.3227C54.3099 12.591 52.5803 12.2702 51.0187 11.1912C49.3675 10.0539 48.4607 8.24593 48.4719 6.18712ZM54.9927 2.02284C54.8528 2.03451 54.6234 2.04617 54.3995 2.0695C52.502 2.27946 50.778 3.63256 50.6381 5.92466C50.5429 7.47606 51.0635 8.77083 52.3284 9.65151C53.5822 10.5264 54.9816 10.643 56.4089 10.2639C57.8138 9.89064 58.8101 8.98663 59.2131 7.51105C59.6329 5.96549 59.4258 4.51908 58.3175 3.32345C57.4388 2.38445 56.3137 2.052 54.9983 2.01701L54.9927 2.02284Z" fill="url(#paint6_linear_2137_8463)"/>
<path d="M45.047 3.10766C44.297 2.86854 43.5806 2.60608 42.8529 2.40778C41.5712 2.05784 40.267 1.98786 38.9572 2.26781C38.655 2.33196 38.3472 2.45444 38.0841 2.61774C37.4852 2.99101 37.4628 3.70255 38.0729 4.05832C38.5039 4.30911 39.0076 4.47242 39.4946 4.58324C40.7204 4.85736 41.963 5.03816 43.1832 5.32977C43.8212 5.48142 44.4425 5.74387 45.0302 6.04715C46.0769 6.58955 46.6311 7.50523 46.6255 8.73585C46.6199 9.93731 46.0433 10.8122 45.0694 11.4129C44.0787 12.0253 42.9817 12.2294 41.8566 12.3052C39.5394 12.4569 37.3452 11.9961 35.3078 10.8063C35.2742 10.7888 35.2463 10.7655 35.1959 10.7305C35.459 10.1414 35.7221 9.55821 35.9963 8.94581C36.3042 9.10329 36.5952 9.26076 36.8919 9.40073C38.7558 10.3047 40.698 10.5847 42.7186 10.1939C43.1384 10.1123 43.5638 9.91398 43.9276 9.67485C44.4929 9.30158 44.6216 8.55505 44.2018 8.13512C43.9444 7.8785 43.5862 7.67436 43.2447 7.57521C42.4331 7.34775 41.6047 7.19028 40.7819 7.02697C39.5673 6.79368 38.3471 6.59539 37.2109 6.06464C35.7052 5.36477 35.0504 3.80754 35.6773 2.33779C36.0355 1.49794 36.7015 0.984697 37.4964 0.646422C38.8229 0.0806869 40.2222 0.02819 41.6215 0.139004C43.0264 0.249818 44.3698 0.640584 45.6404 1.28797C45.6907 1.3113 45.7355 1.34629 45.8026 1.38712C45.5508 1.97035 45.2989 2.53609 45.0526 3.10182L45.047 3.10766Z" fill="url(#paint7_linear_2137_8463)"/>
<path d="M118.247 10.1298C118.247 10.7072 118.236 11.2379 118.247 11.7628C118.253 12.0019 118.18 12.0661 117.956 12.0661C116.21 12.0544 114.463 12.0661 112.717 12.0661C111.2 12.0661 109.683 12.0661 108.167 12.0661C108.066 12.0661 107.96 12.0661 107.842 12.0661V0.465609H117.867V2.37278H109.689V5.09064H115.986V7.02114H109.695V10.1298H118.247Z" fill="url(#paint8_linear_2137_8463)"/>
<path d="M78.7313 20.5988H85.045V22.5235H78.7145C78.7145 22.6868 78.7145 22.8151 78.7145 22.9375C78.7145 23.7249 78.7257 24.5123 78.7089 25.2996C78.7033 25.5971 78.7984 25.6612 79.0671 25.6612C81.6978 25.6496 84.3341 25.6612 86.9648 25.6496C87.2223 25.6496 87.3174 25.7079 87.3062 25.9937C87.2838 26.5069 87.3006 27.026 87.3006 27.5567H76.8506C76.8506 27.4343 76.8506 27.3235 76.8506 27.2185C76.8506 23.5908 76.8506 19.9631 76.845 16.3354C76.845 16.0379 76.9066 15.9504 77.2088 15.9504C80.3321 15.9621 83.4554 15.9563 86.5786 15.9563C86.6738 15.9563 86.7689 15.9563 86.892 15.9563V17.8751H78.7369V20.5988H78.7313Z" fill="url(#paint9_linear_2137_8463)"/>
<path d="M46.7765 17.3502C46.4071 17.9159 46.0432 18.4642 45.7018 18.9891C45.1533 18.6916 44.6439 18.3475 44.0842 18.1317C42.5506 17.5368 40.9833 17.3968 39.4329 18.0617C37.9496 18.6974 37.0485 20.2313 37.1157 21.8819C37.194 23.7191 38.1343 25.078 39.7239 25.6437C40.9217 26.0695 42.1363 26.0228 43.3509 25.7545C43.7315 25.6729 44.101 25.5213 44.476 25.4046C44.6943 25.3346 44.7839 25.2063 44.7783 24.9497C44.7615 24.0107 44.7727 23.0775 44.7727 22.1385V21.7886H46.9836C46.9892 21.8936 47.0003 21.9869 47.0003 22.086C47.0003 23.4216 47.0003 24.7572 47.0059 26.0928C47.0059 26.3145 46.9332 26.4311 46.7597 26.5361C45.366 27.3701 43.8603 27.8192 42.2595 27.93C40.821 28.0292 39.4329 27.8192 38.1343 27.1368C34.692 25.323 33.8748 20.6279 36.5055 17.6885C37.5018 16.5745 38.7669 15.9563 40.1998 15.7288C42.5226 15.3614 44.6999 15.7696 46.6366 17.2277C46.6758 17.2569 46.7149 17.286 46.782 17.3443L46.7765 17.3502Z" fill="url(#paint10_linear_2137_8463)"/>
<path d="M114.621 27.5742C113.893 27.5742 113.21 27.5801 112.533 27.5626C112.454 27.5626 112.348 27.4401 112.303 27.3526C111.934 26.6119 111.576 25.8595 111.217 25.113C111.133 24.938 111.038 24.8564 110.826 24.8564C108.984 24.868 107.143 24.868 105.296 24.8564C105.089 24.8564 104.993 24.9322 104.909 25.1188C104.557 25.8712 104.199 26.6177 103.829 27.3643C103.784 27.4518 103.678 27.5626 103.594 27.5626C102.906 27.5801 102.217 27.5742 101.478 27.5742C101.669 27.1601 101.842 26.7752 102.021 26.3961C103.622 23.0017 105.228 19.6073 106.824 16.2129C106.913 16.0262 107.003 15.9446 107.21 15.9504C107.775 15.9679 108.341 15.9621 108.906 15.9504C109.085 15.9504 109.175 16.0146 109.253 16.1779C110.932 19.7473 112.611 23.3108 114.29 26.8744C114.391 27.0902 114.486 27.3059 114.609 27.5742H114.621ZM105.917 22.8967H110.227C109.505 21.322 108.805 19.7881 108.072 18.19C107.339 19.7939 106.633 21.3336 105.917 22.8967Z" fill="url(#paint11_linear_2137_8463)"/>
<path d="M75.4008 1.74289C75.0145 2.33195 74.6563 2.88019 74.2869 3.44593C74.0126 3.26512 73.7664 3.07849 73.4978 2.92685C71.7906 1.95285 70.0107 1.70206 68.1636 2.42527C66.6467 3.02017 65.7455 4.46075 65.7399 6.22795C65.7287 7.89599 66.6579 9.3599 68.1356 9.96647C69.7028 10.6022 71.2756 10.4797 72.8148 9.86148C73.3466 9.65152 73.8336 9.33074 74.3877 9.03329C74.7235 9.5407 75.0874 10.0948 75.4624 10.6663C74.8747 11.1563 74.2366 11.5412 73.5369 11.8036C71.5107 12.556 69.4565 12.6843 67.408 11.9203C64.4582 10.8238 62.9134 7.71519 63.7586 4.5599C64.2679 2.65273 65.4545 1.3288 67.2065 0.628924C70.0946 -0.525876 72.8148 -0.0534646 75.4008 1.74289Z" fill="url(#paint12_linear_2137_8463)"/>
<path d="M101.466 12.0603C100.744 12.0603 100.061 12.0603 99.373 12.0544C99.3226 12.0544 99.2554 11.9728 99.233 11.9086C99.2107 11.827 99.2274 11.7337 99.2274 11.6403C99.2274 8.68919 99.2274 5.73804 99.2274 2.78689C99.2274 2.65858 99.2274 2.53026 99.2274 2.36112C98.7685 2.36112 98.3431 2.36112 97.9177 2.36112C96.955 2.36112 95.9866 2.36112 95.0239 2.36112C94.8224 2.36112 94.7553 2.3028 94.7609 2.09284C94.7721 1.55627 94.7609 1.01969 94.7609 0.453959H105.916V2.34946H101.466V12.0603Z" fill="url(#paint13_linear_2137_8463)"/>
<path d="M116.412 15.9796H118.247V16.3412C118.247 19.2982 118.247 22.261 118.247 25.218C118.247 25.5096 118.384 25.6554 118.656 25.6554C120.884 25.6554 123.117 25.6554 125.345 25.6554C125.457 25.6554 125.569 25.6671 125.697 25.6729V27.5568H116.412V15.9796Z" fill="url(#paint14_linear_2137_8463)"/>
<path d="M79.811 12.0486H77.6113V0.477276H79.811V12.0486Z" fill="url(#paint15_linear_2137_8463)"/>
<defs>
<linearGradient id="paint0_linear_2137_8463" x1="161.189" y1="28" x2="-2.04804" y2="-17.1376" gradientUnits="userSpaceOnUse">
<stop stop-color="#9995C5" stop-opacity="0.772549"/>
<stop offset="0.449491" stop-color="white" stop-opacity="0.935136"/>
<stop offset="0.67446" stop-color="white"/>
<stop offset="1" stop-color="#9995C5"/>
</linearGradient>
<linearGradient id="paint1_linear_2137_8463" x1="161.189" y1="28" x2="-2.04804" y2="-17.1376" gradientUnits="userSpaceOnUse">
<stop stop-color="#9995C5" stop-opacity="0.772549"/>
<stop offset="0.449491" stop-color="white" stop-opacity="0.935136"/>
<stop offset="0.67446" stop-color="white"/>
<stop offset="1" stop-color="#9995C5"/>
</linearGradient>
<linearGradient id="paint2_linear_2137_8463" x1="161.189" y1="28" x2="-2.04804" y2="-17.1376" gradientUnits="userSpaceOnUse">
<stop stop-color="#9995C5" stop-opacity="0.772549"/>
<stop offset="0.449491" stop-color="white" stop-opacity="0.935136"/>
<stop offset="0.67446" stop-color="white"/>
<stop offset="1" stop-color="#9995C5"/>
</linearGradient>
<linearGradient id="paint3_linear_2137_8463" x1="161.189" y1="28" x2="-2.04804" y2="-17.1376" gradientUnits="userSpaceOnUse">
<stop stop-color="#9995C5" stop-opacity="0.772549"/>
<stop offset="0.449491" stop-color="white" stop-opacity="0.935136"/>
<stop offset="0.67446" stop-color="white"/>
<stop offset="1" stop-color="#9995C5"/>
</linearGradient>
<linearGradient id="paint4_linear_2137_8463" x1="161.189" y1="28" x2="-2.04804" y2="-17.1376" gradientUnits="userSpaceOnUse">
<stop stop-color="#9995C5" stop-opacity="0.772549"/>
<stop offset="0.449491" stop-color="white" stop-opacity="0.935136"/>
<stop offset="0.67446" stop-color="white"/>
<stop offset="1" stop-color="#9995C5"/>
</linearGradient>
<linearGradient id="paint5_linear_2137_8463" x1="161.189" y1="28" x2="-2.04804" y2="-17.1376" gradientUnits="userSpaceOnUse">
<stop stop-color="#9995C5" stop-opacity="0.772549"/>
<stop offset="0.449491" stop-color="white" stop-opacity="0.935136"/>
<stop offset="0.67446" stop-color="white"/>
<stop offset="1" stop-color="#9995C5"/>
</linearGradient>
<linearGradient id="paint6_linear_2137_8463" x1="161.189" y1="28" x2="-2.04804" y2="-17.1376" gradientUnits="userSpaceOnUse">
<stop stop-color="#9995C5" stop-opacity="0.772549"/>
<stop offset="0.449491" stop-color="white" stop-opacity="0.935136"/>
<stop offset="0.67446" stop-color="white"/>
<stop offset="1" stop-color="#9995C5"/>
</linearGradient>
<linearGradient id="paint7_linear_2137_8463" x1="161.189" y1="28" x2="-2.04804" y2="-17.1376" gradientUnits="userSpaceOnUse">
<stop stop-color="#9995C5" stop-opacity="0.772549"/>
<stop offset="0.449491" stop-color="white" stop-opacity="0.935136"/>
<stop offset="0.67446" stop-color="white"/>
<stop offset="1" stop-color="#9995C5"/>
</linearGradient>
<linearGradient id="paint8_linear_2137_8463" x1="161.189" y1="28" x2="-2.04804" y2="-17.1376" gradientUnits="userSpaceOnUse">
<stop stop-color="#9995C5" stop-opacity="0.772549"/>
<stop offset="0.449491" stop-color="white" stop-opacity="0.935136"/>
<stop offset="0.67446" stop-color="white"/>
<stop offset="1" stop-color="#9995C5"/>
</linearGradient>
<linearGradient id="paint9_linear_2137_8463" x1="161.189" y1="28" x2="-2.04804" y2="-17.1376" gradientUnits="userSpaceOnUse">
<stop stop-color="#9995C5" stop-opacity="0.772549"/>
<stop offset="0.449491" stop-color="white" stop-opacity="0.935136"/>
<stop offset="0.67446" stop-color="white"/>
<stop offset="1" stop-color="#9995C5"/>
</linearGradient>
<linearGradient id="paint10_linear_2137_8463" x1="161.189" y1="28" x2="-2.04804" y2="-17.1376" gradientUnits="userSpaceOnUse">
<stop stop-color="#9995C5" stop-opacity="0.772549"/>
<stop offset="0.449491" stop-color="white" stop-opacity="0.935136"/>
<stop offset="0.67446" stop-color="white"/>
<stop offset="1" stop-color="#9995C5"/>
</linearGradient>
<linearGradient id="paint11_linear_2137_8463" x1="161.189" y1="28" x2="-2.04804" y2="-17.1376" gradientUnits="userSpaceOnUse">
<stop stop-color="#9995C5" stop-opacity="0.772549"/>
<stop offset="0.449491" stop-color="white" stop-opacity="0.935136"/>
<stop offset="0.67446" stop-color="white"/>
<stop offset="1" stop-color="#9995C5"/>
</linearGradient>
<linearGradient id="paint12_linear_2137_8463" x1="161.189" y1="28" x2="-2.04804" y2="-17.1376" gradientUnits="userSpaceOnUse">
<stop stop-color="#9995C5" stop-opacity="0.772549"/>
<stop offset="0.449491" stop-color="white" stop-opacity="0.935136"/>
<stop offset="0.67446" stop-color="white"/>
<stop offset="1" stop-color="#9995C5"/>
</linearGradient>
<linearGradient id="paint13_linear_2137_8463" x1="161.189" y1="28" x2="-2.04804" y2="-17.1376" gradientUnits="userSpaceOnUse">
<stop stop-color="#9995C5" stop-opacity="0.772549"/>
<stop offset="0.449491" stop-color="white" stop-opacity="0.935136"/>
<stop offset="0.67446" stop-color="white"/>
<stop offset="1" stop-color="#9995C5"/>
</linearGradient>
<linearGradient id="paint14_linear_2137_8463" x1="161.189" y1="28" x2="-2.04804" y2="-17.1376" gradientUnits="userSpaceOnUse">
<stop stop-color="#9995C5" stop-opacity="0.772549"/>
<stop offset="0.449491" stop-color="white" stop-opacity="0.935136"/>
<stop offset="0.67446" stop-color="white"/>
<stop offset="1" stop-color="#9995C5"/>
</linearGradient>
<linearGradient id="paint15_linear_2137_8463" x1="161.189" y1="28" x2="-2.04804" y2="-17.1376" gradientUnits="userSpaceOnUse">
<stop stop-color="#9995C5" stop-opacity="0.772549"/>
<stop offset="0.449491" stop-color="white" stop-opacity="0.935136"/>
<stop offset="0.67446" stop-color="white"/>
<stop offset="1" stop-color="#9995C5"/>
</linearGradient>
</defs>
</svg>
