<svg width="130" height="20" viewBox="0 0 130 20" fill="none" xmlns="http://www.w3.org/2000/svg">
<path d="M83.5963 0.876281C86.2876 0.876281 88.9735 0.876275 91.6648 0.870104C91.9284 0.870104 92.0218 0.937994 92.0108 1.24654C91.9888 1.85129 91.9943 2.45604 92.0108 3.0608C92.0218 3.357 91.9229 3.42488 91.6758 3.42488C90.4784 3.42488 89.2755 3.44956 88.0782 3.4619C87.7706 3.4619 87.7651 3.47423 87.9189 3.77661C89.7698 7.3866 91.6263 11.0028 93.4772 14.6128C93.5157 14.6807 93.5376 14.7917 93.609 14.7979C93.7079 14.8041 93.7244 14.6807 93.7628 14.6004C95.4765 10.9781 97.1901 7.34958 98.9038 3.72107C99.0466 3.4187 99.0411 3.40637 98.728 3.40637C97.8822 3.40637 97.0364 3.4002 96.1905 3.40637C95.9983 3.40637 95.9323 3.34464 95.9378 3.12249C95.9488 2.47454 95.9488 1.8266 95.9378 1.18483C95.9378 0.93799 95.9983 0.863927 96.218 0.863927C97.4922 0.876269 98.7665 0.863927 100.041 0.863927C102.424 0.863927 104.803 0.86394 107.186 0.857769C107.456 0.857769 107.538 0.937988 107.527 1.24036C107.505 1.86363 107.511 2.49307 107.527 3.11633C107.527 3.33849 107.467 3.40019 107.274 3.40019C106.165 3.40019 105.061 3.41253 103.951 3.40019C103.721 3.40019 103.605 3.48658 103.501 3.70874C101.068 8.84295 98.6292 13.9648 96.2015 19.099C96.0752 19.3706 95.9379 19.4816 95.6523 19.4816C92.7687 19.4693 89.8852 19.4693 87.0017 19.4816C86.7655 19.4816 86.6391 19.3953 86.5293 19.1608C84.1071 14.0574 81.6739 8.96019 79.2572 3.85683C79.1089 3.54212 78.9442 3.44338 78.6366 3.44955C77.5765 3.47423 76.5165 3.44956 75.4565 3.4619C75.2423 3.4619 75.1654 3.40019 75.1709 3.14718C75.1874 2.49923 75.1874 1.85129 75.1709 1.20952C75.1654 0.931824 75.2368 0.857769 75.4839 0.857769C78.1917 0.870111 80.8995 0.857769 83.6073 0.857769L83.5963 0.876281Z" fill="url(#paint0_linear_2137_8462)"/>
<path d="M8.44277 0.876281C11.1231 0.876281 13.8034 0.876275 16.4837 0.870104C16.7528 0.870104 16.8572 0.925645 16.8462 1.25888C16.8188 1.8698 16.8298 2.48689 16.8462 3.10398C16.8517 3.35699 16.7748 3.42488 16.5606 3.42488C15.3413 3.42488 14.122 3.44956 12.9026 3.4619C12.5896 3.4619 12.5841 3.47423 12.7379 3.77661C14.5834 7.38043 16.4343 10.9843 18.2853 14.5881C18.3292 14.6745 18.3512 14.8164 18.4555 14.8041C18.5379 14.8041 18.5599 14.6683 18.5983 14.5881C20.3065 10.9719 22.0201 7.35575 23.7283 3.73958C23.8711 3.43104 23.8656 3.41253 23.5635 3.41253C22.7286 3.41253 21.8883 3.40635 21.0534 3.41253C20.8283 3.41253 20.7624 3.33231 20.7679 3.09164C20.7788 2.45604 20.7788 1.82043 20.7679 1.18483C20.7679 0.968845 20.8118 0.870104 21.0315 0.870104C24.7279 0.876275 28.4188 0.870104 32.1153 0.870104C32.3075 0.870104 32.3734 0.931808 32.3679 1.15396C32.357 1.80808 32.3515 2.46837 32.3624 3.12249C32.3624 3.33847 32.291 3.40637 32.0988 3.40637C31.0003 3.40637 29.9018 3.41871 28.8033 3.40637C28.5562 3.40637 28.4243 3.49275 28.309 3.73958C25.8923 8.84295 23.4646 13.9463 21.0479 19.0497C20.8997 19.3644 20.7459 19.4878 20.4163 19.4878C17.5603 19.4693 14.7042 19.4755 11.8481 19.4878C11.5899 19.4878 11.4581 19.3953 11.3373 19.1422C8.93158 14.0636 6.50942 8.99722 4.10921 3.91855C3.93895 3.56063 3.75768 3.44338 3.40616 3.45573C2.38456 3.48658 1.35749 3.45573 0.335892 3.47424C0.0832383 3.47424 -0.0101255 3.40637 0.000859448 3.11633C0.0173368 2.49307 0.0173368 1.86363 0.000859448 1.24036C-0.00463301 0.95033 0.0777405 0.87011 0.330394 0.876281C3.03818 0.888623 5.74595 0.876281 8.45373 0.876281H8.44277Z" fill="url(#paint1_linear_2137_8462)"/>
<path d="M118.045 0C120.912 0.0431965 123.603 0.765192 126.014 2.56093C127.541 3.69638 128.777 5.14039 129.463 7.07806C130.452 9.88583 130.051 12.5023 128.453 14.8843C127.003 17.0441 125.015 18.3462 122.757 19.1731C121.543 19.6174 120.297 19.8519 119.017 19.9445C116.386 20.1234 113.87 19.6421 111.492 18.3524C109.735 17.402 108.235 16.0876 107.197 14.2055C105.571 11.2681 105.742 7.83091 107.62 5.09102C109.042 3.02376 110.943 1.72787 113.112 0.894793C114.365 0.41346 115.655 0.141929 116.979 0.0555361C117.331 0.0308524 117.682 0.00617696 118.039 0.00617696L118.045 0ZM113.607 9.58963C113.607 10.7251 113.678 11.5026 113.837 12.2678C114.118 13.6193 114.601 14.8596 115.469 15.8716C116.853 17.4823 118.731 17.5193 120.17 15.9642C120.582 15.5199 120.917 15.0077 121.175 14.4338C122.175 12.237 122.351 9.92903 121.862 7.54088C121.576 6.14625 121.044 4.88121 120.104 3.88152C118.764 2.45604 116.974 2.45603 115.622 3.87535C115.37 4.1407 115.145 4.43073 114.947 4.74545C113.98 6.30669 113.634 8.07159 113.601 9.58963H113.607Z" fill="url(#paint2_linear_2137_8462)"/>
<path d="M42.8315 19.9877C40.1786 19.9506 37.6576 19.3274 35.3508 17.8031C33.9007 16.8467 32.6814 15.6125 31.8301 13.9648C30.413 11.2126 30.6217 7.9852 32.3793 5.41192C33.6975 3.48042 35.4496 2.22771 37.4544 1.38846C38.9264 0.77137 40.4478 0.444308 42.0186 0.364086C45.001 0.203642 47.8186 0.84543 50.4111 2.55478C51.8611 3.51127 53.0914 4.74545 53.8988 6.42395C55.3433 9.42302 55.0632 12.3048 53.2507 14.9892C51.8556 17.0503 49.9387 18.2968 47.7802 19.1176C46.5279 19.5927 45.2372 19.8642 43.9135 19.9506C43.551 19.9753 43.1885 20 42.826 20L42.8315 19.9877ZM46.9343 10.5029C46.9343 9.33047 46.8685 8.50972 46.6817 7.71367C46.3522 6.27584 45.7974 4.97379 44.7648 3.98644C43.5455 2.83248 42.0186 2.78927 40.7444 3.85684C40.2171 4.30114 39.7942 4.85653 39.4756 5.49831C38.3496 7.74453 38.1849 10.1327 38.7066 12.6011C38.9977 13.9833 39.558 15.2237 40.5301 16.1802C41.3266 16.9639 42.2493 17.3342 43.3148 17.075C44.2101 16.859 44.8967 16.2666 45.4459 15.4705C46.5279 13.9093 46.9124 12.0889 46.9398 10.5029H46.9343Z" fill="url(#paint3_linear_2137_8462)"/>
<path d="M67.5309 19.4755C64.219 19.4755 60.9071 19.4755 57.5951 19.4755C57.0733 19.4755 56.5515 19.4508 56.0352 19.4508C55.854 19.4508 55.7936 19.3829 55.7936 19.1793C55.8045 18.4202 55.8045 17.655 55.7936 16.896C55.7936 16.6615 55.854 16.5936 56.0627 16.5936C57.2326 16.606 58.408 16.5936 59.5779 16.606C59.8305 16.606 59.9184 16.5381 59.9129 16.2419C59.9019 12.1012 59.9019 7.96051 59.9019 3.82599C59.9019 3.56681 59.8415 3.46806 59.5889 3.46806C58.5014 3.48657 57.4138 3.46807 56.3208 3.48042C56.0517 3.48042 55.9913 3.38168 56.0023 3.11016C56.0188 2.5054 56.0023 1.90065 56.0023 1.2959C56.0023 1.02026 56.1213 0.882458 56.3593 0.882458C59.2813 0.882458 62.2033 0.882458 65.1252 0.882458C67.0806 0.882458 69.0359 0.882452 70.9857 0.876281C71.2439 0.876281 71.3427 0.93181 71.3318 1.2527C71.3098 1.87596 71.3153 2.5054 71.3318 3.12867C71.3318 3.36316 71.2659 3.43104 71.0626 3.43104C69.9751 3.43104 68.8876 3.4619 67.8001 3.4619C67.5475 3.4619 67.487 3.55446 67.487 3.81981C67.4925 7.9605 67.487 12.1012 67.487 16.2357C67.487 16.4887 67.531 16.606 67.7946 16.5998C69.1512 16.5813 70.5134 16.6121 71.87 16.5813C74.2647 16.5319 76.3958 14.3844 76.7308 11.7248C76.7473 11.6014 76.7803 11.4779 76.7803 11.3545C76.7803 10.7127 76.8517 10.8423 77.2636 10.8362C77.8403 10.8362 78.417 10.8362 78.9937 10.8362C79.1914 10.8362 79.2793 10.8794 79.2738 11.1262C79.2683 13.8167 79.2683 16.5073 79.2738 19.1978C79.2738 19.4755 79.1585 19.494 78.9663 19.4878C75.149 19.4878 71.3372 19.4878 67.52 19.4878L67.5309 19.4755Z" fill="url(#paint4_linear_2137_8462)"/>
<defs>
<linearGradient id="paint0_linear_2137_8462" x1="151.844" y1="20" x2="5.74327" y2="-33.2803" gradientUnits="userSpaceOnUse">
<stop stop-color="#9995C5" stop-opacity="0.772549"/>
<stop offset="0.449491" stop-color="white" stop-opacity="0.935136"/>
<stop offset="0.67446" stop-color="white"/>
<stop offset="1" stop-color="#9995C5"/>
</linearGradient>
<linearGradient id="paint1_linear_2137_8462" x1="151.844" y1="20" x2="5.74327" y2="-33.2803" gradientUnits="userSpaceOnUse">
<stop stop-color="#9995C5" stop-opacity="0.772549"/>
<stop offset="0.449491" stop-color="white" stop-opacity="0.935136"/>
<stop offset="0.67446" stop-color="white"/>
<stop offset="1" stop-color="#9995C5"/>
</linearGradient>
<linearGradient id="paint2_linear_2137_8462" x1="151.844" y1="20" x2="5.74327" y2="-33.2803" gradientUnits="userSpaceOnUse">
<stop stop-color="#9995C5" stop-opacity="0.772549"/>
<stop offset="0.449491" stop-color="white" stop-opacity="0.935136"/>
<stop offset="0.67446" stop-color="white"/>
<stop offset="1" stop-color="#9995C5"/>
</linearGradient>
<linearGradient id="paint3_linear_2137_8462" x1="151.844" y1="20" x2="5.74327" y2="-33.2803" gradientUnits="userSpaceOnUse">
<stop stop-color="#9995C5" stop-opacity="0.772549"/>
<stop offset="0.449491" stop-color="white" stop-opacity="0.935136"/>
<stop offset="0.67446" stop-color="white"/>
<stop offset="1" stop-color="#9995C5"/>
</linearGradient>
<linearGradient id="paint4_linear_2137_8462" x1="151.844" y1="20" x2="5.74327" y2="-33.2803" gradientUnits="userSpaceOnUse">
<stop stop-color="#9995C5" stop-opacity="0.772549"/>
<stop offset="0.449491" stop-color="white" stop-opacity="0.935136"/>
<stop offset="0.67446" stop-color="white"/>
<stop offset="1" stop-color="#9995C5"/>
</linearGradient>
</defs>
</svg>
