<svg width="32" height="32" viewBox="0 0 25.5571 25.5571" fill="none" xmlns="http://www.w3.org/2000/svg">
<g id="SVG" clip-path="url(#clip0_0_244)">
<g id="Subtract">
</g>
<path id="Subtract_2" d="M11.0996 0C13.4503 0.00757839 15.622 0.768116 17.3711 2.04492C17.0025 2.76157 16.8047 3.56194 16.8047 4.38281C16.8047 5.7384 17.3432 7.0385 18.3018 7.99707C19.1706 8.86589 20.3201 9.38805 21.5371 9.47852C21.551 9.67661 21.5615 9.8761 21.5635 10.0771C21.6354 13.3169 20.2636 16.4239 17.7939 18.6006C17.3081 18.958 16.7817 19.3067 16.3184 19.5908V25.5566H6.11914V19.6406C5.60633 19.329 5.11159 18.999 4.63477 18.6416C2.1245 16.4787 0.702725 13.3629 0.743164 10.1094C0.707174 4.53235 5.34563 0.0045826 11.0996 0ZM7.36719 11.7148L10.0342 11.6357L8.7168 16.0918L14.9395 9.74707L11.8447 9.95605L12.9971 5.67969L7.36719 11.7148Z" fill="var(--fill-0, white)"/>
<path id="Vector" d="M21.8722 7.73661C22.7376 7.73661 23.5675 7.39285 24.1794 6.78094C24.7913 6.16904 25.135 5.33913 25.135 4.47377C25.135 3.60841 24.7913 2.7785 24.1794 2.1666C23.5675 1.5547 22.7376 1.21094 21.8722 1.21094C21.0069 1.21094 20.1769 1.5547 19.565 2.1666C18.9531 2.7785 18.6094 3.60841 18.6094 4.47377C18.6094 5.33913 18.9531 6.16904 19.565 6.78094C20.1769 7.39285 21.0069 7.73661 21.8722 7.73661Z" fill="var(--fill-0, #DCC4FF)"/>
</g>
<defs>
<clipPath id="clip0_0_244">
<rect width="25.5571" height="25.5571" fill="white"/>
</clipPath>
</defs>
</svg>
