<svg width="32" height="32" viewBox="0 0 27 27" fill="none" xmlns="http://www.w3.org/2000/svg">
<g id="SVG" clip-path="url(#clip0_0_452)">
<path id="Vector" fill-rule="evenodd" clip-rule="evenodd" d="M17.8774 3.69484C17.8774 6.69319 20.3121 9.12387 23.3145 9.12387C23.6452 9.12252 23.9753 9.09012 24.3 9.02937V19.7922C24.3 24.3201 21.629 26.9992 17.0944 26.9992H7.21777C2.67097 26.9992 0 24.3201 0 19.7922V9.93049C0 5.40124 2.67097 2.69922 7.21777 2.69922H17.9725C17.9091 3.02727 17.876 3.36072 17.8774 3.69484ZM15.0525 17.4102L18.9108 12.4314V12.4077C19.0696 12.1944 19.1387 11.9274 19.1033 11.6637C19.0678 11.4001 18.9307 11.1608 18.7211 10.997C18.6166 10.9163 18.497 10.8574 18.3693 10.8238C18.2416 10.7902 18.1085 10.7826 17.9778 10.8014C17.8471 10.8202 17.7215 10.8651 17.6085 10.9334C17.4955 11.0016 17.3973 11.0919 17.3198 11.1988L14.067 15.3825L10.3639 12.4665C10.2593 12.3849 10.1394 12.325 10.0113 12.2903C9.88317 12.2556 9.74943 12.2468 9.61788 12.2644C9.48634 12.282 9.35962 12.3256 9.24515 12.3928C9.13067 12.4599 9.03073 12.5492 8.95117 12.6555L4.96192 17.8003C4.82212 17.9751 4.7468 18.1928 4.74862 18.4166C4.73806 18.6367 4.80065 18.854 4.92662 19.0348C5.05258 19.2156 5.23485 19.3496 5.44497 19.4159C5.65509 19.4821 5.88124 19.477 6.08814 19.4013C6.29504 19.3255 6.47104 19.1834 6.58867 18.9971L9.92452 14.6832L13.6282 17.587C13.7325 17.671 13.8527 17.7332 13.9815 17.7698C14.1103 17.8065 14.2451 17.8168 14.378 17.8002C14.5109 17.7837 14.6391 17.7405 14.755 17.6734C14.8708 17.6063 14.972 17.5165 15.0525 17.4095V17.4102Z" fill="var(--fill-0, white)"/>
<path id="Vector_2" d="M23.625 6.75C24.5201 6.75 25.3786 6.39442 26.0115 5.76149C26.6444 5.12855 27 4.27011 27 3.375C27 2.47989 26.6444 1.62145 26.0115 0.988515C25.3786 0.355579 24.5201 0 23.625 0C22.7299 0 21.8714 0.355579 21.2385 0.988515C20.6056 1.62145 20.25 2.47989 20.25 3.375C20.25 4.27011 20.6056 5.12855 21.2385 5.76149C21.8714 6.39442 22.7299 6.75 23.625 6.75Z" fill="var(--fill-0, #DCC4FF)"/>
</g>
<defs>
<clipPath id="clip0_0_452">
<rect width="27" height="27" fill="white"/>
</clipPath>
</defs>
</svg>
