<svg width="32" height="32" viewBox="0 0 28.9414 29.9394" fill="none" xmlns="http://www.w3.org/2000/svg">
<g id="SVG" clip-path="url(#clip0_0_351)">
<g id="Subtract">
</g>
<g id="Frame" clip-path="url(#clip1_0_351)">
<g id="Vector">
</g>
<path id="Subtract_2" d="M12.795 0.541954C13.3516 0.409863 13.8501 0.642122 14.1847 1.19625C14.6333 1.94067 15.082 2.68507 15.5304 3.42965C15.3064 4.03814 15.1876 4.69046 15.1876 5.35543C15.1877 6.77189 15.724 8.1302 16.6779 9.1318C17.5444 10.0416 18.6913 10.5869 19.9054 10.6796C20.2648 11.2739 20.6225 11.8691 20.9825 12.4629C21.2967 12.9783 21.3074 13.439 21.0138 13.9609C20.109 15.5718 19.2311 17.1954 18.3331 18.8095C18.2171 19.022 18.1594 19.2283 18.1661 19.4697C18.1866 20.0592 18.1798 20.0629 18.8077 20.0693C19.4974 20.0757 20.0241 20.5109 20.048 21.1552C20.0855 22.286 20.0983 23.417 20.0949 24.5478C20.0948 25.1309 19.7363 25.5366 19.1866 25.6494C19.0126 25.6847 18.8284 25.6852 18.6476 25.6884C18.2618 25.6981 18.2614 25.6947 18.2648 26.0459C18.2682 26.397 18.2784 26.7484 18.2784 27.0996C18.2818 27.8887 17.8111 28.3464 16.9747 28.3593C15.807 28.3754 14.6356 28.3881 13.4679 28.4043C12.29 28.4204 11.1116 28.4363 9.93372 28.4492C9.1316 28.4587 8.63683 28.0044 8.62317 27.2539C8.61635 26.8417 8.60269 26.4327 8.6095 26.0205C8.6095 25.8627 8.55144 25.8078 8.38782 25.8173C8.20696 25.827 8.02571 25.827 7.84485 25.8173C7.18929 25.7722 6.74816 25.3559 6.7345 24.7373C6.7072 23.6067 6.69007 22.4762 6.68665 21.3457C6.68665 20.6949 7.17224 20.237 7.86536 20.208C8.02915 20.2015 8.19327 20.2046 8.35364 20.1982C8.42529 20.1982 8.51671 20.198 8.50989 20.1015C8.47578 19.7343 8.58181 19.3607 8.36341 19C7.39033 17.3762 6.43805 15.7392 5.4718 14.1123V14.1152C5.19533 13.6481 5.18461 13.2101 5.46106 12.7334C6.18144 11.4866 6.8813 10.2268 7.58802 8.97359C9.04586 6.38987 10.5042 3.80605 11.962 1.22555C12.1464 0.897007 12.3957 0.635447 12.795 0.541954ZM13.4464 8.62984C13.4259 8.44695 13.1574 8.45057 13.1427 8.63375C13.0385 9.97338 12.9033 11.6719 12.8849 11.7197C11.8937 11.9572 11.4235 12.8793 11.4718 13.6533C11.5329 14.6545 12.4176 15.4618 13.424 15.4082C14.4734 15.3518 15.2484 14.4777 15.1925 13.4101C15.1492 12.5852 14.5443 11.9009 13.7921 11.7119L13.4464 8.62984Z" fill="var(--fill-0, white)"/>
</g>
<g id="Subtract_3">
</g>
<path id="Vector_2" d="M19.9627 8.98202C20.7567 8.98202 21.5183 8.66659 22.0797 8.10512C22.6412 7.54364 22.9566 6.78212 22.9566 5.98808C22.9566 5.19404 22.6412 4.43252 22.0797 3.87105C21.5183 3.30957 20.7567 2.99414 19.9627 2.99414C19.1686 2.99414 18.4071 3.30957 17.8457 3.87105C17.2842 4.43252 16.9688 5.19404 16.9688 5.98808C16.9688 6.78212 17.2842 7.54364 17.8457 8.10512C18.4071 8.66659 19.1686 8.98202 19.9627 8.98202Z" fill="var(--fill-0, #DCC4FF)"/>
</g>
<defs>
<clipPath id="clip0_0_351">
<rect width="28.9414" height="29.9394" fill="white"/>
</clipPath>
<clipPath id="clip1_0_351">
<rect width="30.1513" height="30.1513" fill="white" transform="translate(-1.20312 -0.210938)"/>
</clipPath>
</defs>
</svg>
