<svg width="32" height="32" viewBox="0 0 27.9434 27.9434" fill="none" xmlns="http://www.w3.org/2000/svg">
<g id="SVG" clip-path="url(#clip0_0_397)">
<path id="Subtract" d="M11.9904 4.18284C13.0546 4.00544 14.1276 3.93956 15.2053 4.03733C15.6304 4.07673 15.8178 4.25982 15.8293 4.67698C15.8492 5.45801 16.1111 6.13148 16.758 6.62229C17.6807 7.32318 18.8831 7.30937 19.7717 6.64768C19.4419 7.32795 19.2658 8.08047 19.2658 8.85081C19.266 10.1899 19.7975 11.4743 20.7444 12.4211C21.6913 13.3681 22.9764 13.8996 24.3156 13.8996C24.9738 13.8996 25.618 13.7697 26.216 13.5266C26.2313 13.5726 26.2452 13.6209 26.2541 13.6721C26.4213 14.6345 26.4866 15.6 26.4113 16.5735C26.3643 17.1762 26.2182 17.3196 25.592 17.3498C24.2092 17.4175 23.1997 18.379 23.1819 19.6721C23.1714 20.4079 23.4783 21.0161 24.049 21.509C24.5372 21.9303 24.5429 22.1068 24.1613 22.634C23.6074 23.3979 22.9526 24.0738 22.2346 24.6936C21.806 25.0635 21.5361 25.0696 21.0949 24.6936C20.4971 24.1858 19.8134 23.9914 19.0285 24.1184C17.9226 24.2968 17.0775 25.2195 17.0315 26.3C17.0242 26.4763 17.0344 26.654 17.0188 26.8293C16.9915 27.1315 16.8102 27.318 16.5051 27.3694C15.418 27.5548 14.3246 27.6255 13.2229 27.5217C12.7703 27.4794 12.621 27.2926 12.5969 26.7746C12.5321 25.4189 11.5451 24.4453 10.1799 24.4221C9.41683 24.409 8.78433 24.7065 8.28049 25.2649C7.8719 25.7182 7.65721 25.7327 7.13986 25.384C6.34872 24.8498 5.64298 24.2229 5.00021 23.5285C4.59795 23.0932 4.58046 22.8409 4.97971 22.4055C5.51041 21.8271 5.69884 21.1621 5.57248 20.4104C5.39582 19.3621 4.44281 18.5468 3.34104 18.4924C3.18122 18.4844 3.02038 18.4946 2.86057 18.4866C2.49059 18.4684 2.25438 18.2874 2.19162 17.9377C2.00556 16.9006 1.93442 15.8552 2.04416 14.8049C2.08911 14.3765 2.25857 14.2301 2.7551 14.219C3.5442 14.1998 4.21904 13.9387 4.70822 13.3401C5.31866 12.5932 5.42423 11.762 5.03439 10.8811L5.03635 10.883C4.87329 10.5192 4.59889 10.2398 4.301 9.97776C3.94663 9.66529 3.91816 9.42994 4.18576 9.05296C4.78366 8.21034 5.49447 7.46334 6.29514 6.7971C6.63587 6.51289 6.93628 6.52316 7.33029 6.85667C7.91672 7.3536 8.58291 7.5653 9.35959 7.45139C10.4988 7.28498 11.3634 6.36093 11.4094 5.24925C11.4146 5.1172 11.4042 4.98383 11.4094 4.85179C11.4251 4.47395 11.6142 4.24533 11.9904 4.18284ZM18.9201 13.6662C17.7327 11.2068 14.5956 10.1006 12.0471 11.2414C9.46409 12.3986 8.31853 15.418 9.5217 17.8987C10.725 20.379 13.8653 21.471 16.4377 20.3059C18.9732 19.1567 20.1072 16.1244 18.9201 13.6662Z" fill="var(--fill-0, white)"/>
<path id="Vector" d="M24.2859 12.1674C25.1407 12.1674 25.9606 11.8278 26.5651 11.2233C27.1696 10.6188 27.5092 9.79894 27.5092 8.94405C27.5092 8.08917 27.1696 7.2693 26.5651 6.6648C25.9606 6.06031 25.1407 5.7207 24.2859 5.7207C23.431 5.7207 22.6111 6.06031 22.0066 6.6648C21.4021 7.2693 21.0625 8.08917 21.0625 8.94405C21.0625 9.79894 21.4021 10.6188 22.0066 11.2233C22.6111 11.8278 23.431 12.1674 24.2859 12.1674Z" fill="var(--fill-0, #DCC4FF)"/>
</g>
<defs>
<clipPath id="clip0_0_397">
<rect width="27.9434" height="27.9434" fill="white"/>
</clipPath>
</defs>
</svg>
