<svg width="32" height="32" viewBox="0 0 27.2092 27.2092" fill="none" xmlns="http://www.w3.org/2000/svg">
<g id="SVG" clip-path="url(#clip0_0_498)">
<path id="Subtract" d="M16.3721 0.257812C17.0083 0.258047 17.5261 0.768268 17.5264 1.38672C17.5264 2.00541 17.0048 2.51637 16.3721 2.5166H15.2686V4.33691C16.5353 4.46514 17.7337 4.78602 18.8467 5.27734C18.6343 5.85812 18.5234 6.47717 18.5234 7.10742C18.5234 8.52051 19.0848 9.87579 20.084 10.875C21.0832 11.8742 22.4385 12.4355 23.8516 12.4355C24.3004 12.4355 24.7433 12.3779 25.1709 12.2686C25.5013 13.3183 25.6806 14.4327 25.6807 15.5879C25.6806 21.8195 20.4878 26.8972 14.1143 26.8975C7.74045 26.8975 2.54693 21.8197 2.54688 15.5879C2.54696 9.72898 7.11439 4.90155 12.9551 4.33691V2.5166H11.7266C11.0899 2.5166 10.5713 2.00556 10.5713 1.38672C10.5716 0.768125 11.0938 0.257812 11.7266 0.257812H16.3721ZM13.8027 9.39551C13.3402 9.39558 12.963 9.76553 12.9629 10.2178V16.207C12.9631 17.1115 13.7214 17.8534 14.6465 17.8535H18.9668C19.4291 17.8533 19.8064 17.4842 19.8066 17.0322L19.8027 17.0283C19.8026 16.5761 19.4254 16.2072 18.9629 16.207H14.6436V10.2178C14.6435 9.76549 14.2653 9.39552 13.8027 9.39551Z" fill="var(--fill-0, white)"/>
<path id="Vector" d="M23.8074 10.6089C24.7094 10.6089 25.5745 10.2506 26.2124 9.61277C26.8502 8.97493 27.2086 8.10983 27.2086 7.20779C27.2086 6.30575 26.8502 5.44065 26.2124 4.80282C25.5745 4.16498 24.7094 3.80664 23.8074 3.80664C22.9054 3.80664 22.0403 4.16498 21.4024 4.80282C20.7646 5.44065 20.4062 6.30575 20.4062 7.20779C20.4062 8.10983 20.7646 8.97493 21.4024 9.61277C22.0403 10.2506 22.9054 10.6089 23.8074 10.6089Z" fill="var(--fill-0, #DCC4FF)"/>
</g>
<defs>
<clipPath id="clip0_0_498">
<rect width="27.2092" height="27.2092" fill="white"/>
</clipPath>
</defs>
</svg>
